<svg xmlns="http://www.w3.org/2000/svg" width="185.91" height="52.459" viewBox="0 0 185.91 52.459"><g transform="translate(23.305 46.487)"><path d="M154.6-29.5H66.338V-1.042h87.127a1.14,1.14,0,0,0,1.14-1.14Z" transform="translate(8 -3)" fill="#58d06f" fill-rule="evenodd"/><g transform="translate(-23.305 -41.932) rotate(-11)"><path d="M23.872,0a12.451,12.451,0,0,0-4.75,11.908A31.2,31.2,0,0,0,4.28,37.023,30.761,30.761,0,0,0,5.9,48.607l-.045.194A31.449,31.449,0,0,1,23.872,0Z" transform="translate(0)" fill="#57d16e" fill-rule="evenodd"/><path d="M20.589,0c-1.576,2.04-3.234,3.661-3.405,7.11a19.254,19.254,0,0,0,.388,3.864c-1.521,1.623-3.207,3.386-4.9,5.343A43.806,43.806,0,0,0,3.1,33.1c-1.354,4.8-.853,12.239-.469,15.523h0C1.744,47-1.25,36.9.584,28,3.393,14.357,13.92,4.453,20.589,0Z" transform="translate(3.283 0)" fill="#a6f6b5" fill-rule="evenodd"/></g><path d="M32.129.48A10.615,10.615,0,0,0,24.2,8,26.6,26.6,0,0,0,3.731,22.132C2.127,25.2.338,28.113.011,31.36h0C-.115,26.744.8,19.39,3.38,14.457A26.582,26.582,0,0,1,32.129.48Z" transform="translate(-14.163 -26.434) rotate(-14)" fill="#3f3d56" fill-rule="evenodd"/><g transform="translate(19.278 -8.725)"><text fill="#3f3d56" font-size="45" font-family="JosefinSans-Regular, Josefin Sans"><tspan x="0" y="0">e</tspan></text><text transform="translate(21.447)" fill="#3f3d56" font-size="45" font-family="JosefinSans-Regular, Josefin Sans"><tspan x="0" y="0">s</tspan></text><text transform="translate(37.77)" fill="#3f3d56" font-size="45" font-family="JosefinSans-Regular, Josefin Sans"><tspan x="0" y="0">s</tspan></text></g><g transform="translate(73.37 -8.725)"><text fill="#fff" font-size="45" font-family="JosefinSans-Regular, Josefin Sans"><tspan x="0" y="0">e</tspan></text><text transform="translate(21.447)" fill="#fff" font-size="45" font-family="JosefinSans-Regular, Josefin Sans"><tspan x="0" y="0">n</tspan></text><text transform="translate(44.39)" fill="#fff" font-size="45" font-family="JosefinSans-Regular, Josefin Sans"><tspan x="0" y="0">c</tspan></text><text transform="translate(62.934)" fill="#fff" font-size="45" font-family="JosefinSans-Regular, Josefin Sans"><tspan x="0" y="0">e</tspan></text></g></g></svg>