<svg xmlns="http://www.w3.org/2000/svg" xmlns:xlink="http://www.w3.org/1999/xlink" width="2586.727" height="2096.602" viewBox="0 0 2586.727 2096.602">
  <defs>
    <filter id="Path_730" x="72.257" y="1166.32" width="2514.47" height="792.615" filterUnits="userSpaceOnUse">
      <feOffset dy="-20" input="SourceAlpha"/>
      <feGaussianBlur stdDeviation="10" result="blur"/>
      <feFlood flood-opacity="0.161"/>
      <feComposite operator="in" in2="blur"/>
      <feComposite in="SourceGraphic"/>
    </filter>
    <filter id="Path_743" x="104.434" y="1801.313" width="2399.069" height="295.289" filterUnits="userSpaceOnUse">
      <feOffset dx="20" dy="20" input="SourceAlpha"/>
      <feGaussianBlur stdDeviation="10" result="blur-2"/>
      <feFlood flood-opacity="0.161"/>
      <feComposite operator="in" in2="blur-2"/>
      <feComposite in="SourceGraphic"/>
    </filter>
    <filter id="Path_738" x="0" y="0" width="2567.494" height="1251.048" filterUnits="userSpaceOnUse">
      <feOffset dy="20" input="SourceAlpha"/>
      <feGaussianBlur stdDeviation="10" result="blur-3"/>
      <feFlood flood-opacity="0.161"/>
      <feComposite operator="in" in2="blur-3"/>
      <feComposite in="SourceGraphic"/>
    </filter>
  </defs>
  <g id="RegisterPage_bg" data-name="RegisterPage bg" transform="translate(179.309 420.673)">
    <g transform="matrix(1, 0, 0, 1, -179.31, -420.67)" filter="url(#Path_730)">
      <path id="Path_730-2" data-name="Path 730" d="M178.72,201.576C577.354,201.576,268,59.994,268,134A134,134,0,0,1,134,268c-5.31,0,151.819,305-165.008,382.826-568.416,139.629-1776.049,88.229-1906.105,76.611-16.448-1.469-213.416-340.489-99.839-414.807,580.305,97.491,664.883-380.24,1558.942-286.8C-247.944,111.617-219.914,201.576,178.72,201.576Z" transform="translate(2174.31 1202.67)" fill="#fff"/>
    </g>
    <g transform="matrix(1, 0, 0, 1, -179.31, -420.67)" filter="url(#Path_743)">
      <path id="Path_743-2" data-name="Path 743" d="M1387.133,1239.64c-7.532,6.819,278.364,267.347,0,159.919-421.326-179.208-1295.339,237.723-2214.465,0-1.914.527-4.61-55.614,0-159.919C-216.611,1394.765-259.592,1442.568,1387.133,1239.64Z" transform="translate(944.31 571.67)" fill="#fff"/>
    </g>
    <g transform="matrix(1, 0, 0, 1, -179.31, -420.67)" filter="url(#Path_738)">
      <path id="Path_738-2" data-name="Path 738" d="M2207.264,649.48c375.388,77.114,43.783,18.466,43.783-55.54a134,134,0,0,0-134-134C2102.256,459.94,248.829-17.622,45.933.5,29.486,1.973-115.256,319.754-1.678,394.072,645.568,357.957,1305.7,772.828,1397.506,982.906,1465.306,740.683,1831.876,572.366,2207.264,649.48Z" transform="matrix(1, -0.09, 0.09, 1, 74.65, 217.98)" fill="#fff"/>
    </g>
  </g>
</svg>
