<svg xmlns="http://www.w3.org/2000/svg" width="545" height="444" viewBox="0 0 545 444">
  <g id="contact_art" data-name="contact art" transform="translate(0 -33)">
    <circle id="Ellipse_59" data-name="Ellipse 59" cx="222" cy="222" r="222" transform="translate(101 33)" fill="#fff"/>
    <path id="Path_76" data-name="Path 76" d="M653.173,787.827c0,8.879-117.228,27.562-261.837,27.562S129.5,796.706,129.5,787.827s117.228-4.594,261.837-4.594S653.173,778.947,653.173,787.827Z" transform="translate(-129.5 -367.51)" fill="#3f3d56"/>
    <path id="Path_77" data-name="Path 77" d="M653.173,787.827c0,8.879-117.228,27.562-261.837,27.562S129.5,796.706,129.5,787.827s117.228-4.594,261.837-4.594S653.173,778.947,653.173,787.827Z" transform="translate(-129.5 -367.51)" fill="#123523" opacity="0.1"/>
    <ellipse id="Ellipse_60" data-name="Ellipse 60" cx="262" cy="16" rx="262" ry="16" transform="translate(0 404)" fill="#3f3d56"/>
    <path id="Path_78" data-name="Path 78" d="M851.689,659.413c0,36.292,22.768,65.659,50.9,65.659" transform="translate(-437.006 -315.228)" fill="#3f3d56"/>
    <path id="Path_79" data-name="Path 79" d="M940.34,724.525c0-36.7,25.407-66.4,56.806-66.4" transform="translate(-474.753 -314.681)" fill="#6ed782"/>
    <path id="Path_80" data-name="Path 80" d="M883.809,665.142c0,34.474,14.519,62.369,32.461,62.369" transform="translate(-450.682 -317.667)" fill="#6ed782"/>
    <path id="Path_81" data-name="Path 81" d="M940.34,710.848c0-46.894,29.367-84.84,65.659-84.84" transform="translate(-474.753 -301.004)" fill="#3f3d56"/>
    <path id="Path_82" data-name="Path 82" d="M921.69,771.674s7.219-.222,9.395-1.772,11.1-3.4,11.644-.914,10.849,12.358,2.7,12.423-18.938-1.269-21.109-2.592S921.69,771.674,921.69,771.674Z" transform="translate(-466.812 -361.368)" fill="#a8a8a8"/>
    <path id="Path_83" data-name="Path 83" d="M945.574,783.432c-8.15.066-18.938-1.269-21.109-2.592-1.654-1.007-2.313-4.622-2.533-6.289l-.241.009s.457,5.822,2.629,7.145,12.959,2.658,21.109,2.592c2.353-.019,3.165-.856,3.121-2.1C948.222,782.95,947.325,783.418,945.574,783.432Z" transform="translate(-466.812 -364.253)" opacity="0.2"/>
    <path id="Path_84" data-name="Path 84" d="M702.135,287s7.345,15.425,4.407,22.771S717.56,325.2,717.56,325.2l18.363-10.284V301.695l-2.938-5.876s-11.753-6.611-10.284-16.894S702.135,287,702.135,287Z" transform="translate(-359.326 -146.885)" fill="#ffb9b9"/>
    <path id="Path_85" data-name="Path 85" d="M702.135,287s7.345,15.425,4.407,22.771S717.56,325.2,717.56,325.2l18.363-10.284V301.695l-2.938-5.876s-11.753-6.611-10.284-16.894S702.135,287,702.135,287Z" transform="translate(-359.326 -146.885)" opacity="0.1"/>
    <path id="Path_86" data-name="Path 86" d="M661.581,407.888s-1.469,16.16-1.469,18.363-2.2,9.549-2.2,9.549-8.08,37.461-13.222,41.134-8.08,26.443,0,24.974,10.283-21.3,10.283-21.3l16.724-31.579,2.374-38.2Z" transform="translate(-332.728 -203.129)" fill="#ffb9b9"/>
    <path id="Path_87" data-name="Path 87" d="M681.77,351.6h-5.876s-5.876,35.258,0,36.727,16.894,1.469,16.894,1.469Z" transform="translate(-347.04 -179.163)" fill="#3f3d56"/>
    <path id="Path_88" data-name="Path 88" d="M616.129,684.706l2.938,13.956,5.876-4.407-2.938-12.487-5.876,2.2Z" transform="translate(-248.346 -285.295)" fill="#ffb9b9"/>
    <path id="Path_89" data-name="Path 89" d="M695.961,487.2l-4.407,2.938s-2.2,25.709,2.938,45.541,8.814,43.337,8.814,43.337,8.815,58.763,11.018,60.232,16.16,2.2,16.894-.735-5.142-58.028-5.142-58.028-4.407-46.276-.734-52.152c0,0,11.753,50.683,15.425,55.825,0,0,5.142,55.825,8.08,57.294s16.894,2.2,17.629-.734-4.407-66.109-6.611-71.25-2.938-81.534-8.08-80.8S695.961,487.2,695.961,487.2Z" transform="translate(-354.621 -236.901)" fill="#969696"/>
    <circle id="Ellipse_61" data-name="Ellipse 61" cx="16.894" cy="16.894" r="16.894" transform="translate(333.26 112.941)" fill="#ffb9b9"/>
    <path id="Path_90" data-name="Path 90" d="M705.675,327.4,702,320.785s-4.407-5.876-6.611-4.407-2.2,6.611-2.2,6.611-16.894,5.876-15.425,13.956,11.018,22.036,11.018,22.036,1.469,11.753,0,14.691-4.407,5.142-2.2,8.08,2.938,3.673,2.2,7.345-2.2,5.142-.734,6.611-.735,16.894-2.2,17.629,47.01,8.08,50.683,5.876,13.956-2.2,13.222-4.407-3.673-15.425-3.673-17.629,0-11.753-.735-12.487.735-11.753.735-11.753L742.4,342.087l11.753-18.363s-2.938-10.284-16.894-11.753-17.817-5.142-17.817-5.142-1.281,6.611-4.219,8.08S705.675,327.4,705.675,327.4Z" transform="translate(-348.91 -160.099)" fill="#3f3d56"/>
    <path id="Path_91" data-name="Path 91" d="M805.421,377.187l4.407,33.054-9.549,47.745s-3.673,27.178-11.018,26.443,0-29.382,0-29.382l5.876-44.807s-9.549-22.771-7.345-25.709S805.421,377.187,805.421,377.187Z" transform="translate(-395.034 -190.057)" fill="#ffb9b9"/>
    <path id="Path_92" data-name="Path 92" d="M738.035,756.356s-9.549-5.142-11.753-4.407-4.407,11.018-4.407,11.018S704.98,775.453,716,778.392s15.425-3.673,15.425-3.673,11.018-5.876,11.018-7.345-1.469-11.018-1.469-11.018Z" transform="translate(-363.641 -349.599)" fill="#2f2e41"/>
    <path id="Path_93" data-name="Path 93" d="M793.681,753.281s-4.407,24.24-1.469,25.709,15.425,3.673,16.894,0,1.469-12.487.735-15.425-2.938-10.284-2.938-10.284Z" transform="translate(-397.25 -350.197)" fill="#2f2e41"/>
    <path id="Path_94" data-name="Path 94" d="M696.682,230.746a3.919,3.919,0,0,0-2.024-.061,6.055,6.055,0,0,0-2.04,1.665c-1.685,1.6-4.091,2.1-6.287,2.857s-4.506,2.1-5.056,4.355a23.717,23.717,0,0,0-.239,2.741c-.327,2.662-2.358,5.06-1.995,7.718.237,1.736,1.475,3.209,1.729,4.943.283,1.933-.693,3.945-.149,5.822.534,1.839,2.34,2.959,4,3.907q1.07-6.8,2.572-13.513a4.883,4.883,0,0,1,.916-2.233c1.477-1.673,4.374-.72,6.29-1.863.728-.434,1.269-1.151,2.033-1.516,2.214-1.058,4.609,1.286,7.063,1.308,1.083.01,2.271-.42,3.186.159a2.911,2.911,0,0,1,.932,1.146c.874,1.641,1.355,3.486,2.375,5.041s2.847,2.824,4.655,2.388c-.276-1.4.822-2.664,1.261-4.024.756-2.34-.48-4.879-.182-7.32.28-2.292,1.773-4.982.135-6.609a4.643,4.643,0,0,0-1.938-.973C708.127,234.845,702.772,231.761,696.682,230.746Z" transform="translate(-349.475 -127.633)" fill="#2f2e41"/>
    <path id="Path_95" data-name="Path 95" d="M792.631,331.134l7.345,2.938s9.549,30.851,7.345,30.851-22.036,5.142-22.036,2.938S786.755,331.134,792.631,331.134Z" transform="translate(-394.731 -170.448)" fill="#3f3d56"/>
    <path id="Path_96" data-name="Path 96" d="M297.384,162H70v74.646h8.613v19.523l19.523-19.523H297.384Z" transform="translate(-29.806 -67.979)" fill="#3f3d56"/>
    <path id="Path_97" data-name="Path 97" d="M297.384,512H70v74.646h8.613v19.523l19.523-19.523H297.384Z" transform="translate(-29.806 -218.008)" fill="#3f3d56"/>
    <path id="Path_98" data-name="Path 98" d="M140,338H367.384v74.646h-8.613v19.523l-19.523-19.523H140Z" transform="translate(-59.612 -143.919)" fill="#3f3d56"/>
    <rect id="Rectangle_131" data-name="Rectangle 131" width="174.558" height="6.89" transform="translate(66.608 105.366)" fill="#fff" opacity="0.6"/>
    <rect id="Rectangle_132" data-name="Rectangle 132" width="87.279" height="6.89" transform="translate(66.608 118.573)" fill="#fff" opacity="0.6"/>
    <circle id="Ellipse_62" data-name="Ellipse 62" cx="9.761" cy="9.761" r="9.761" transform="translate(66.608 135.799)" fill="#fff" opacity="0.6"/>
    <rect id="Rectangle_133" data-name="Rectangle 133" width="174.558" height="6.89" transform="translate(101.06 205.278)" fill="#fff"/>
    <rect id="Rectangle_134" data-name="Rectangle 134" width="87.279" height="6.89" transform="translate(101.06 218.484)" fill="#fff"/>
    <circle id="Ellipse_63" data-name="Ellipse 63" cx="9.761" cy="9.761" r="9.761" transform="translate(101.06 235.71)" fill="#fff"/>
    <rect id="Rectangle_135" data-name="Rectangle 135" width="174.558" height="6.89" transform="translate(66.608 306.337)" fill="#fff" opacity="0.6"/>
    <rect id="Rectangle_136" data-name="Rectangle 136" width="87.279" height="6.89" transform="translate(66.608 319.544)" fill="#fff" opacity="0.6"/>
    <circle id="Ellipse_64" data-name="Ellipse 64" cx="9.761" cy="9.761" r="9.761" transform="translate(66.608 336.77)" fill="#fff" opacity="0.6"/>
  </g>
</svg>
