<svg xmlns="http://www.w3.org/2000/svg" width="1455.981" height="1080.224" viewBox="0 0 1455.981 1080.224"><g transform="translate(-769.227 108.224)"><path d="M312.579,211.434C454.853,72.752,396.518-41.737,533.556-21.23s264.189,180.074,264.7,348.584c.738,244.789-97.706,330.372-277.69,378.822C342.381,754.142,39.323,670.19,22.45,498.243S170.3,350.116,312.579,211.434Z" transform="matrix(0.995, -0.105, 0.105, 0.995, 1356.113, 148.075)" fill="#111d4a"/><path d="M303.667,241.178C409.281,136.676,388.929-8.584,535.4,8.511s239.5,154.6,224.884,321.425S642.655,644,477.713,689.609,55.752,674.717,12.667,526.311,198.053,345.68,303.667,241.178Z" transform="matrix(0.995, -0.105, 0.105, 0.995, 1366.832, 104.765)" fill="#ffe7cd"/><g transform="translate(984 396)"><path d="M943.948,763.3c-51.132,516.223-312.3,474.537-458.51-255.142C446.961,316.167,635.764,101.665,818.489,65.11s471.829,43.806,506.473,236.606S963.28,568.128,943.948,763.3Z" transform="translate(-628.343 -560.746)" fill="rgba(255,207,153,0.49)"/><path d="M132.891,682.326c0,40.833,24.753,55.09,55.288,55.09s55.288-14.257,55.288-55.09-55.288-92.779-55.288-92.779S132.891,641.492,132.891,682.326Z" transform="translate(-328.229 -240.609)" fill="#ffe7cd"/><path d="M56.6,668.65l-.484-33.282L36,594.192,56.04,630.146l-.218-14.965L41.959,585.392l13.805,25.829h0l-.39-26.916L40.53,560.589l14.783,19.484-.244-49.354L56.6,596.054l-.127-2.695L71.57,567.51,56.719,598.533l1.406,30.06.042-.8,17.4-27.2L58.22,630.614l.175,3.759.032.057-.014.308L61.981,711H57.214l-.572-39.392-17.3-29.948Z" transform="translate(-195.841 -179.053)" fill="#3f3d56"/><ellipse cx="493.327" cy="31.956" rx="493.327" ry="31.956" transform="translate(-214.773 512.089)" fill="#3f3d56"/><ellipse cx="85.405" cy="14.955" rx="85.405" ry="14.955" transform="translate(443.238 535.783)" opacity="0.1"/><ellipse cx="85.405" cy="12.884" rx="85.405" ry="12.884" transform="translate(85.422 541.396)" opacity="0.1"/><path d="M416.571,446.723l-25.279.972s-22.362,10.7-22.362,19.446,26.252-9.723,26.252-9.723l21.39-.972Z" transform="translate(97.463 -161.136)" fill="#ffb9b9"/><path d="M416.571,446.723l-25.279.972s-22.362,10.7-22.362,19.446,26.252-9.723,26.252-9.723l21.39-.972Z" transform="translate(97.463 -161.136)" opacity="0.1"/><path d="M328.047,436.159s-4.861,11.667-3.889,17.5,37.919,3.889,37.919,3.889l-5.834-17.5Z" transform="translate(185.014 -158.349)" fill="#ffb9b9"/><path d="M204.678,663.9l1.944,26.252-16.529.972-2.916-25.279Z" transform="translate(343.386 -175.106)" fill="#ffb9b9"/><path d="M352.728,457.288l3.889,9.723s8.751,8.75,6.806,30.141-2.917,22.362-2.917,22.362,7.778,135.147.972,136.119-44.725,19.446-48.614-1.945-5.834-107.923-5.834-107.923l44.725-80.7Z" transform="translate(195.335 -163.922)" fill="#2f2e41"/><path d="M352.728,457.288l3.889,9.723s8.751,8.75,6.806,30.141-2.917,22.362-2.917,22.362,7.778,135.147.972,136.119-44.725,19.446-48.614-1.945-5.834-107.923-5.834-107.923l44.725-80.7Z" transform="translate(195.335 -163.922)" opacity="0.1"/><path d="M255.833,642.074l8.75,12.64L250,660.548l-12.64-20.418Z" transform="translate(248.478 -168.837)" fill="#ffb9b9"/><ellipse cx="22.362" cy="22.362" rx="22.362" ry="22.362" transform="translate(490.699 158.219)" fill="#ffb9b9"/><path d="M320.794,293.535s19.446,20.418,25.279,21.39-20.418,17.5-20.418,17.5v-5.834s-8.751-8.751-13.612-9.723S320.794,293.535,320.794,293.535Z" transform="translate(209.768 -120.732)" fill="#ffb9b9"/><path d="M460.78,450.6l5.834,14.584s11.667,29.168-4.861,44.725-64.17,64.17-62.226,74.866,30.764,48.5,21.7,53.418-108.235-12.582-109.207-24.25c-.365-4.375,3.236-12.852,7.879-21.74a228.784,228.784,0,0,1,32.118-46.185L418,471.995s6.806-14.584,4.861-17.5c0,0,7.778-7.778,31.113-1.945Z" transform="translate(85.338 -162.1)" fill="#2f2e41"/><path d="M354.411,754.421s4.861,15.556,6.806,16.529,3.889,11.667,1.945,13.612-2.917,10.7-2.917,10.7H358.3l-.972-9.723s-20.143,12.161-23.335,13.612c-5.348,2.431-29.168,1.945-28.2-2.917s29.168-20.418,28.2-24.307,1.945-15.556,1.945-15.556Z" transform="translate(196.569 -242.292)" fill="#2f2e41"/><path d="M327.991,722.582l19.446-7.778s4.861,7.778,10.7,7.778,10.368,7.072,10.045,7.425,8.428,12.021,8.428,12.021l-1.571,2.826-11.069-6.715-3.1,13.029a49.709,49.709,0,0,1-9.828,20.093c-3.814,4.641-8.568,8.578-13.321,7.714,0,0-1.945,0,0-13.612s-1.945-28.2-1.945-28.2Z" transform="translate(167.569 -231.843)" fill="#2f2e41"/><path d="M324.6,320.957s-1.945,4.861-3.889,5.834-7.778,4.861-8.751,8.75S306.13,351.1,306.13,351.1s-10.7,5.834-9.723,16.529,1.945,19.446,0,20.418-3.889.972-2.917,3.889-1.945,5.834-2.917,6.806-2.917-.972-.972,1.945.972,3.889,0,4.861-1.945.972-.972,2.917,36.947,14.584,38.891,14.584,1.945-1.945.972-4.861-4.861-5.834-.972-6.806,4.861-.972,4.861-5.834,16.529-34.03,16.529-34.03,6.806-22.362,0-32.085-11.667-16.529-15.556-18.473S324.6,320.957,324.6,320.957Z" transform="translate(221.515 -127.737)" fill="#fc326f"/><path d="M234.315,383.335l11.667,32.085,23.335,69.032s24.307,34.03,7.778,32.085-18.473-32.085-18.473-32.085L236.26,430.977l-20.418-40.836Z" transform="translate(343.889 -144.417)" fill="#ffb9b9"/><path d="M290.863,345.038l3.889.972s13.612,27.224,10.7,30.141-18.473,10.7-21.39,9.723-6.806-29.168-6.806-29.168Z" transform="translate(275.673 -134.316)" fill="#fc326f"/><path d="M372.978,283.232c-7.543-3.317-16.672-10.578-25.34-16.57-2.809-1.942-5.545-3.98-8.267-6.043-5.486-4.158-18.687-5.6-30.081,1.706-13.023,8.35-19.378,21.673-15.852,27.172,2.915,4.546,12.591,3.749,23.215-1.381,1.494,9.953,4.909,19.873,8.64,25.692,8.443,13.168,15.546.754,28.714-7.69S387.3,289.529,372.978,283.232Z" transform="translate(192.413 -111.141)" fill="#2f2e41"/><path d="M43.411,0C67.386,0,86.128,16.257,86.128,40.233S67.386,86.822,43.411,86.822,2.783,68.594,2.783,44.619,19.436,0,43.411,0Z" transform="translate(335.561 303.527)" fill="#111d4a"/><path d="M877.789,217.173v82.982l-3.681-1.994v9.571l-4.417,11.78s-4.417,0-4.417,2.209,4.417,5.89,4.417,5.89h8.1v39.149l-5.154-11.907h-9.571L856.438,368.1s4.417,1.472,4.417,4.417-5.154,8.835-4.417,12.516,3.681,9.571,5.89,11.78l9.571,9.571h5.89v256.95h-42.7V217.174Z" transform="translate(-706.963 -112.591)" fill="#3f3d56"/><path d="M799.44,477.063l-11.044-5.89s-2.945,11.044,0,13.252,16.934,8.1,16.934,8.1l-8.835,8.835h13.989Z" transform="translate(-604.317 -167.585)" fill="#3f3d56"/><path d="M752.263,814.1l-3.528,1.938s4.706,2.325,5.932,1.9a39.2,39.2,0,0,0,4.992-3.106l3.242,3.493,1.129-3.525Z" transform="translate(-529.627 -258.033)" fill="#3f3d56"/><path d="M790.065,805.5s11.914-7.476,1.526-5.689a80.914,80.914,0,0,1-19.3.921l-1.526,5.689Z" transform="translate(-577.656 -254.191)" fill="#3f3d56"/><path d="M806.638,819.976s11.056-2.472,2.478-3.871a70.916,70.916,0,0,1-15.4-4.4l-2.478,3.871Z" transform="translate(-609.268 -257.401)" fill="#3f3d56"/><path d="M681.976,494.764v-4.417H670.2v13.989Z" transform="translate(-487.589 -129.331)" fill="#3f3d56"/></g></g></svg>