<svg xmlns="http://www.w3.org/2000/svg" width="81.166" height="81.166" viewBox="0 0 81.166 81.166">
  <defs>
    <style>
      .cls-1 {
        fill: #6ed782;
      }
    </style>
  </defs>
  <path id="Icon_awesome-check-circle" data-name="Icon awesome-check-circle" class="cls-1" d="M81.728,41.145A40.583,40.583,0,1,1,41.145.562,40.583,40.583,0,0,1,81.728,41.145ZM36.451,62.634l30.11-30.11a2.618,2.618,0,0,0,0-3.7l-3.7-3.7a2.618,2.618,0,0,0-3.7,0L34.6,49.674,23.135,38.21a2.618,2.618,0,0,0-3.7,0l-3.7,3.7a2.618,2.618,0,0,0,0,3.7L32.748,62.634A2.618,2.618,0,0,0,36.451,62.634Z" transform="translate(-0.563 -0.563)"/>
</svg>
