<svg xmlns="http://www.w3.org/2000/svg" xmlns:xlink="http://www.w3.org/1999/xlink" width="549.128" height="361" viewBox="0 0 549.128 361">
  <defs>
    <style>
      .cls-1, .cls-28 {
        fill: #57d16e;
      }

      .cls-1, .cls-10, .cls-4 {
        opacity: 0.1;
      }

      .cls-2 {
        fill: url(#linear-gradient);
      }

      .cls-3 {
        fill: #65617d;
      }

      .cls-5 {
        fill: #a5636d;
      }

      .cls-6 {
        fill: #e7effd;
      }

      .cls-7 {
        fill: #3f3d56;
      }

      .cls-8 {
        fill: #5f5d7e;
      }

      .cls-9 {
        fill: #4c3e42;
      }

      .cls-11 {
        fill: #e6e8ec;
      }

      .cls-12 {
        fill: #6c63ff;
      }

      .cls-13 {
        fill: rgba(110,215,130,0.42);
      }

      .cls-14 {
        fill: #444053;
      }

      .cls-15 {
        opacity: 0.7;
      }

      .cls-16 {
        fill: #6ed782;
      }

      .cls-17 {
        fill: #262727;
      }

      .cls-18 {
        fill: #212026;
      }

      .cls-19 {
        fill: url(#linear-gradient-2);
      }

      .cls-20 {
        fill: #fbbebe;
      }

      .cls-21 {
        opacity: 0.05;
      }

      .cls-22 {
        fill: #5c5c8e;
      }

      .cls-23 {
        fill: none;
      }

      .cls-24 {
        fill: #f7cddd;
      }

      .cls-25 {
        fill: #7c5c5c;
      }

      .cls-26 {
        fill: #3acc6c;
      }

      .cls-27 {
        opacity: 0.5;
      }
    </style>
    <linearGradient id="linear-gradient" x1="0.5" y1="1" x2="0.5" gradientUnits="objectBoundingBox">
      <stop offset="0" stop-color="gray" stop-opacity="0.251"/>
      <stop offset="0.54" stop-color="gray" stop-opacity="0.122"/>
      <stop offset="1" stop-color="gray" stop-opacity="0.102"/>
    </linearGradient>
    <linearGradient id="linear-gradient-2" x1="0.5" y1="1" x2="0.5" y2="0" xlink:href="#linear-gradient"/>
  </defs>
  <g id="Group_357" data-name="Group 357" transform="translate(0.05 -0.017)">
    <path id="Path_754" data-name="Path 754" class="cls-1" d="M534.613,368.483q-2.571,2.26-5.256,4.391c-.3.244-.612.478-.917.726a184.577,184.577,0,0,1-20.069,13.556l-1.3.76c-.315.191-.626.368-.956.545-7.292,4.21-14.856,8.085-22.511,11.755l-.081.043-.578.272q-9.261,4.439-18.8,8.5l-.153.057q-4.3,1.811-8.6,3.527c-1.171.478-2.346.922-3.522,1.376-2.212.846-4.43,1.677-6.666,2.475l-.277.105-.478.167-.6.22q-8.749,3.125-17.733,5.772l-.105.029q-6.264,1.825-12.61,3.378l-.578.143c-6.212,1.5-12.524,2.791-18.875,3.823l-1.462.234q-6.967,1.094-14.03,1.787c-26.468,2.556-53.251.478-79.556-3.087-53.117-7.206-105.532-20.715-153.335-41.888Q131.8,381.055,118.574,374.1c-.072-.038-.134-.076-.205-.11q-7.918-4.162-15.621-8.673c-1.505-.87-3-1.758-4.487-2.652q-2.743-1.653-5.462-3.345-3.584-2.236-7.168-4.583l-1.118-.745-.43-.291c-.607-.406-1.2-.812-1.806-1.223-22.459-15.291-42.485-33.822-51.946-57.011-10.933-26.759-3.937-60.686,23.142-76.5,9.308-5.447,20.127-8.405,31.06-10.847l1.118-.248c1.849-.406,3.7-.8,5.538-1.19,6.446-1.367,12.926-2.724,19.343-4.238h0c3.345-.788,6.656-1.615,9.949-2.509l1.348-.373a161.079,161.079,0,0,0,23.228-8.181h.048q1.211-.538,2.389-1.113c.507-.239,1.013-.478,1.52-.741,8.123-4.043,16.725-9.648,23.343-16.328.53-.535,1.046-1.08,1.548-1.625.387-.425.769-.855,1.137-1.285,4.64-5.409,7.851-11.416,8.463-17.79h0a22.936,22.936,0,0,0-.287-6.417c-.75-4.009-1.477-7.932-2.012-11.76-1-7.192-1.338-14.068.048-20.7h0a38.955,38.955,0,0,1,10.708-19.568q1.381-1.434,2.977-2.867a62.731,62.731,0,0,1,16.548-10.455q1.118-.478,2.251-.956c16.763-6.785,36.9-8.2,55.721-7.263a303.971,303.971,0,0,1,52.209,7.263c1.362.306,2.724.626,4.076.956a361.9,361.9,0,0,1,43.006,13.3c36.5,13.728,70.945,32.79,103.128,53.824l.956.621q2.016,1.314,4.009,2.638,3.856,2.556,7.645,5.146l1.706,1.161q1.261.86,2.509,1.725l2.561,1.773h0a2.806,2.806,0,0,1,.344.244l2.179,1.51c1.262.879,2.513,1.763,3.77,2.652h0l2.695,1.911c.559.4,1.123.8,1.682,1.2l2.867,2.093.64.478c.134.1.268.191.4.3l.081.053c7.77,5.7,15.353,11.612,22.459,17.876l.918.812.1.086c.774.688,1.548,1.386,2.308,2.088a155.571,155.571,0,0,1,24.389,27.562C587.3,266.138,578.034,330.317,534.613,368.483Z" transform="translate(-25.44 -72.24)"/>
    <path id="Path_755" data-name="Path 755" class="cls-2" d="M965.119,304.607c.306-.831-1.978-5.447-1.978-5.677s-2.389-2.8-2.389-4.238-3.12-4.54-3.12-4.54-4.2-1.744-4.654-5.524-4.855-3.861-5.027-3.866c0,0,0-.344.029-.87a12.63,12.63,0,0,0-.564-4.425,4.492,4.492,0,0,0-2.59-2.2s-.478-2.948-1.376-3.856a4.344,4.344,0,0,1-1.061-4.09,5.43,5.43,0,0,0-.6-3.531,3.618,3.618,0,0,0-2.227-2.069h-.081c-2.188-.53-4.64-1.343-4.64-1.343s-.248.048-.616.1l-.306-.1a13.657,13.657,0,0,1-1.6.2,1.983,1.983,0,0,1-1.295-.425c-.765-.836-6.938-2.423-8.08-2.423s-4.425-1.515-4.425-1.515l-3.273-2.5a20.872,20.872,0,0,1-2.867-3.957l-.038-.053h0a13,13,0,0,1-.6-1.668c-.033-.105-.057-.21-.091-.325h0a18.237,18.237,0,0,0,1.821-2.236v-.024c.148-.205.287-.43.425-.645q.3-.478.573-.989c.076-.148.148-.3.224-.444a1.912,1.912,0,0,0,.478-.081l.205-.076a2.425,2.425,0,0,0,.526-.33l.153-.139a3.732,3.732,0,0,0,.956-1.467c.053-.162.1-.33.139-.478a.7.7,0,0,1,.043-.172c.014-.053.052-.229.072-.349l.029-.191a1.929,1.929,0,0,1,.057-.339.649.649,0,0,0,0-.2c0-.139.038-.287.053-.43.067-.54.124-1.07.239-1.6a.042.042,0,0,0,0-.024,12.2,12.2,0,0,1,1.128-2.905c.478-.922,1-1.83,1.433-2.781h0c.124-.272.244-.55.349-.827s.21-.612.306-.922a1.265,1.265,0,0,1,.067-.282,6.672,6.672,0,0,0,.153-.683,2.4,2.4,0,0,0,.057-.3c.057-.315.1-.631.124-.956a11.726,11.726,0,0,0-.784-5.318c-.569-1.433-1.434-2.7-2-4.119-.875-2.155-1.1-4.592-2.174-6.647a7.918,7.918,0,0,0-9.495-3.866c-1.653.612-3.092,1.811-4.778,2.351-2.246.722-4.659.177-6.991-.148s-4.912-.349-6.785,1.171c-2.155,1.754-2.748,5.051-4.778,6.972a10.989,10.989,0,0,1-1.591,1.195c-.411.282-.827.559-1.214.879a4.524,4.524,0,0,0-1.41,1.911,1.582,1.582,0,0,0-.053.162,1.506,1.506,0,0,0-.052.2,1.972,1.972,0,0,1-.033.225.85.85,0,0,0,0,.158,2.765,2.765,0,0,0,0,.344h0v.057a2.192,2.192,0,0,0,.062.382v.105a1.9,1.9,0,0,0,.1.315.23.23,0,0,1,0,.062,3.48,3.48,0,0,0,.139.344.555.555,0,0,0,.067.172.66.66,0,0,1,.067.143,9.052,9.052,0,0,1,.707,1.754,1.987,1.987,0,0,1-.072,1.166,1.862,1.862,0,0,1-.306.511,6.37,6.37,0,0,1-.535.593,15.829,15.829,0,0,0-3.445,5.51c-.086.234-.167.478-.244.712h0l.1.029.1.024a3.351,3.351,0,0,0,.569.119,3.467,3.467,0,0,0,.382.043,5.92,5.92,0,0,0,1.558-.124,2.4,2.4,0,0,0,.253-.057h0a.275.275,0,0,0,.076-.024h.048a8.285,8.285,0,0,0,1.252-.435c.1-.043.2-.081.291-.129v1.778a17.981,17.981,0,0,0,9.155,14.617c.272.158.54.306.817.444.024.162.048.33.067.478s.038.272.053.411l-.21-.2A1.39,1.39,0,0,0,889.6,250a1.825,1.825,0,0,0-.908.234,3.345,3.345,0,0,0-1.19,1.161,8.474,8.474,0,0,1-3.737,2.867s-13.857,2.193-14.4,4.009l-6.479.382s-2.289.3-2.513,5.07v.11c-.033.569-.076,1.075-.129,1.529v.067c-.4,3.178-1.309,3.517-1.309,3.517s-2.671,4.692-2.442,7.115a.225.225,0,0,1,0,.057h0a3.119,3.119,0,0,1-.062.98,4.3,4.3,0,0,1-2,2.576l-.3,4.3a2.929,2.929,0,0,0-3.2,2.576,10.193,10.193,0,0,1-1.911,4.3s-4.191,3.483-4.42,6.432L842,298.878s-6.016-1.362-7.392-3.785c0,0-.162-.162-.421-.4l-.038-.057a.15.15,0,0,0,0,.029,21.108,21.108,0,0,0-2.518-2.222,1.873,1.873,0,0,1,.124,1.223l-.449-.478-1.2-1.338s-1.715-1.606-4.129-3.522h0q-.827-.659-1.744-1.348c-3.087-2.289-6.8-4.611-9.557-4.96-.057-.115-.287-.98-.827-.98a.908.908,0,0,0-.593.291A7.951,7.951,0,0,0,813.208,293l.626.583,1.94,1.816,6.547,6.116c.081.057.158.119.239.172l.387.478.3.387.521.664.75.956c-.038.1-.081.2-.115.292-.282.688-.526,1.357-.726,1.969v.067c-.048.153-.1.3-.139.44a.6.6,0,0,1-.048.148c-.048.143-.086.287-.129.416a2.04,2.04,0,0,0-.067.248,1.373,1.373,0,0,1-.048.148c-.215.76-.349,1.343-.42,1.668l-.507-.158.478.215a.644.644,0,0,1,0,.081l-.029.153c.148.072.306.139.478.205l.11.048,1.873.827h0c.377.167.788.344,1.228.545s.779.349,1.2.53h0c4.893,2.179,11.75,5.309,12.237,5.935.76.989,5.792,3.861,10.369,1.434a10.915,10.915,0,0,0,5.557-6.135s4.425-6.126,4.578-7.034c.115-.7,2.16-1.486,3.106-1.816l.091-.029.382-.124V305.4a58.656,58.656,0,0,1-.7,10.135.063.063,0,0,0,0,.029,11.028,11.028,0,0,1-.76,2.533c-1.754,3.708-5.027,20.136-5.027,20.136h.076a2.218,2.218,0,0,1,.573-.029c-.067.306-.11.545-.143.707s-.048.244-.048.244h.057a2.2,2.2,0,0,1,.554-.033,1.168,1.168,0,0,1,.186.024,2.935,2.935,0,0,1-.048.344v.119c0,.019-.029.148-.038.229-.4,2.733-1.543,9.848-1.543,9.848s-.478,3.933-1.223,5.295a13.114,13.114,0,0,0-.64,3.823c0,.239-.033.478-.053.726-.124,2.026-.143,3.923-.143,3.923l-.033.124-1.123,5.094a1.5,1.5,0,0,0,.062.139h0c.081.153.21.416.4.741h0l.057.124a14.23,14.23,0,0,0,2.647,3.727,6.884,6.884,0,0,0,.8.683h0a.857.857,0,0,1-.033.167c-.01.048-.029.182-.043.268a7.74,7.74,0,0,1-.54,1.911,6.393,6.393,0,0,0-.549,2.083h0a9.575,9.575,0,0,0-.048,1.548l-.062.282h0c-.167.779-.645,3.063-.9,4.922-.062.425-.12.836-.153,1.219a5.929,5.929,0,0,0,0,1.066,8.757,8.757,0,0,1-.1,1.787,4.052,4.052,0,0,1-.062.526c-.258,1.682-.683,3.445-.683,3.445l-1.371,13.165v.779a1.52,1.52,0,0,1-.029.344c0,.311-.048.679-.081,1.109a4.161,4.161,0,0,1-.029.478,2.491,2.491,0,0,1-.029.454v.248a2.252,2.252,0,0,1-.024.378,1.841,1.841,0,0,0,0,.363v.339c-.043.7-.091,1.462-.124,2.232v.736a5.526,5.526,0,0,1-.033.736v4.864a13.908,13.908,0,0,0,.115,1.52c.053.373.091.764.11,1.166v.554a2.691,2.691,0,0,1,0,.277v2.141c-.12,1.644-.344,2.977-.378,3.187h0v.449c0,.119.029.272.043.44v.239h0a.944.944,0,0,0,.029.277c.029.1,0,.091,0,.143,0,.172.029.349.048.535s.043.387.057.588l.029.377c0,.182.038.373.053.559v.191c0,.129.029.253.038.387l.043.588c0,.129.029.263.038.392a1.335,1.335,0,0,1,0,.2l.062.774a2.052,2.052,0,0,0,.024.382c0,.2.029.406.048.6s0,.44.033.64a4.119,4.119,0,0,1,.029.583,8.071,8.071,0,0,1,0,1.62c-.124.545-.526,2.069-.755,3.722,0,.148-.043.3-.057.449a1.623,1.623,0,0,0,0,.268l-.029.358c0,.287-.033.578-.033.86a6.627,6.627,0,0,0,.215,1.911,9.037,9.037,0,0,1,.239,1.262.647.647,0,0,0,.024.21c0,.153.033.311.048.478s.024.325.033.478c0,.335.029.679.043,1.027v.693c.033,2.017-.062,3.99-.091,4.5v.124s.478,8.482.989,11.2c.067.358.115.722.148,1.094a2.425,2.425,0,0,0,.024.416,21.321,21.321,0,0,1-.325,4.7s-.535,5.825-.76,5.825a3.73,3.73,0,0,0-.683,2.255v.038a7.357,7.357,0,0,0,2.509,5.658l.229.225.277-.105c2.236-.8,4.453-1.629,6.666-2.475,1.176-.454,2.351-.908,3.522-1.376q4.339-1.715,8.6-3.526h0a.545.545,0,0,1-.272-.344c-.44-1.171.215-4.778.349-5.333s1.371-12.343,1.371-12.343-.478-3.7.153-5.29-.765-7.727-.765-7.727a1.366,1.366,0,0,1,.382-1.663c.86-.908.535-9.007.535-9.007s-.077-4.09-.077-5.151a18.9,18.9,0,0,1,1.749-6.212c.831-1.29.311-5.3.311-5.3h0l.048-.306a3.038,3.038,0,0,1,.067-.425l.072-.406a56.15,56.15,0,0,1,1.481-6.57c.994-3.178,2.136-8.778,2.136-8.778l6.666-17.876h0l.22-.554.081-.22s3.273,6.059,3.273,11.659c0,0,.841,6.738.616,8.553s.683,10.369.683,10.369.984,12.266.984,12.792,1.223,9.963,1.988,11.4-.765,5.83-1.219,6.284.153,11.583.153,11.583-1.152,8.778-1.376,10.594c-.043.33-.11.827-.182,1.434,7.646-3.67,15.219-7.545,22.511-11.755.315-.177.626-.354.956-.545l.052-10.861s.535-5.07-.076-7.12-1.219-5.973-.378-7.034.077-5.978.077-5.978,0-10.374,1.142-12.945.765-18.846.765-18.846l.3-10.675s2.432-2.3,1.911-14.235v-.406c2.657-.167,5.653-.263,6.107.11.726.583,4.817,3.23,7.985,2.571h0a3.886,3.886,0,0,0,1.462-.607,43,43,0,0,0,3.823-2.953l-1.214-20.418h0l-.129-2.27c.229.349.43.659.6.956.478.726.741,1.171.741,1.171,0-3.178,9-13.47,9-13.47s8.386-10.823,10.212-12.113,5.414-8.1,5.414-8.1a33.043,33.043,0,0,1,1.83-3.785C967.571,309.075,964.813,305.439,965.119,304.607Zm-26.831,14.531a4.745,4.745,0,0,1-1.013,2.04c-.038-.478-.077-.922-.115-1.4v-.124c-.535-6.661-1.109-14.718-.846-15.506a18.484,18.484,0,0,0,.315-3.909h0c.033-1.83,0-3.574,0-3.574h0l.086-.119c1.539,4.778,6.312,10.35,6.312,10.35s.841,2.423,1.83,2.5.607,3.178.607,3.178a3.6,3.6,0,0,0-1.3.478,11.392,11.392,0,0,0-1.348.913h0C940.63,315.626,938.341,318.364,938.288,319.138Z" transform="translate(-435.49 -141.797)"/>
    <path id="Path_756" data-name="Path 756" class="cls-3" d="M837,409.991s2.781-14.574,11.717-14.651l6.537,13.446-4.4,2.987S841.415,412.074,837,409.991Z" transform="translate(-449.228 -240.94)"/>
    <path id="Path_757" data-name="Path 757" class="cls-4" d="M855.234,408.783l-4.377,3.006a51.66,51.66,0,0,1-11.42-.956,13.048,13.048,0,0,1-2.437-.827.883.883,0,0,1,.048-.234.334.334,0,0,1,0-.057,33.157,33.157,0,0,1,1.692-5.352c.272-.655.588-1.328.922-2,1.309-2.518,3.149-4.989,5.667-6.212a7.75,7.75,0,0,1,2.977-.779h.4l.148.3,2.208,4.544Z" transform="translate(-449.228 -240.956)"/>
    <path id="Path_758" data-name="Path 758" class="cls-3" d="M1023.013,504.587s9.39-.9,10.216-.225,6.159,4.133,9.318,1.954,1.051-9.767,1.051-10.068-.3-11.043-.3-11.043l-5.634-7.588-7.062-13.294-14.421-1.434.373,21.111-.072,10.818Z" transform="translate(-542.788 -276.212)"/>
    <path id="Path_759" data-name="Path 759" class="cls-4" d="M1023.013,504.587s9.39-.9,10.216-.225,6.159,4.133,9.318,1.954,1.051-9.767,1.051-10.068-.3-11.043-.3-11.043l-5.634-7.588-7.062-13.294-14.421-1.434.373,21.111-.072,10.818Z" transform="translate(-542.788 -276.212)"/>
    <path id="Path_760" data-name="Path 760" class="cls-5" d="M834.144,379.4s-.741,9.165-6.475,9.308a44.939,44.939,0,0,1-3.794-2.6c-5.017-3.751-12.973-10.967-10.775-17.68,3.154-9.614,18.478,8.123,18.478,8.123l1.18,1.319Z" transform="translate(-436.552 -225.397)"/>
    <path id="Path_761" data-name="Path 761" class="cls-4" d="M845.807,392.833s-.741,9.165-6.475,9.308a44.951,44.951,0,0,1-3.794-2.6l-.478-.626a7.463,7.463,0,0,0,3.13.846,4.2,4.2,0,0,0,4.086-2.576,33.171,33.171,0,0,0,1.582-3.636,10.955,10.955,0,0,0,.573-2.255Z" transform="translate(-448.215 -238.826)"/>
    <path id="Path_762" data-name="Path 762" class="cls-6" d="M843.817,408.6l-1.285-1.653-4.3-5.567L836,398.541a7.459,7.459,0,0,0,3.125.841,4.189,4.189,0,0,0,4.086-2.576,32.258,32.258,0,0,0,1.582-3.636c.712-2.026.7-3.068.444-3.421a23,23,0,0,1,2.485,2.208l.033.029.411.392.158.306,2.174,4.353v.182C850.7,398.6,851.429,407.362,843.817,408.6Z" transform="translate(-448.706 -237.996)"/>
    <path id="Path_763" data-name="Path 763" class="cls-7" d="M919.611,624.342a2.177,2.177,0,0,0-.449-.3h-.038c-.9-.378-.077-5.036.076-5.639s1.352-12.223,1.352-12.223-.449-3.675.153-5.256-.755-7.646-.755-7.646a1.4,1.4,0,0,1,.377-1.653c.827-.9.526-8.94.526-8.94s-.072-4.052-.072-5.108a18.633,18.633,0,0,1,1.725-6.159c.827-1.281.3-5.256.3-5.256h0l.043-.306c.024-.11.043-.253.067-.42l.072-.4a1.951,1.951,0,0,1,.053-.306c.043-.239.091-.478.143-.784.029-.172.062-.354.1-.535.11-.573.239-1.2.377-1.849.043-.2.091-.406.139-.607s.115-.478.177-.726c.038-.148.072-.292.115-.44.11-.44.229-.865.358-1.271.956-3.159,2.107-8.716,2.107-8.716l6.981-18.34.081-.22.22.425h0c.726,1.467,3.006,6.46,3.006,11.139,0,0,.832,6.69.6,8.486s.678,10.293.678,10.293.956,12.166.956,12.691,1.2,9.92,1.954,11.344-.75,5.787-1.2,6.212.153,11.5.153,11.5-1.128,8.711-1.357,10.513c-.048.43-.143,1.152-.244,2.036l.578-.272.081-.043c7.646-3.67,15.219-7.545,22.511-11.755l.062-11.521s.526-5.036-.072-7.063-1.2-5.935-.382-6.991.081-5.93.081-5.93,0-10.293,1.123-12.844.755-18.707.755-18.707l.3-10.589s2.451-2.337,1.873-14.531c-.062-1.3-.158-2.709-.292-4.248-.416-4.6-.836-8.768-1.219-12.376-.033-.311-.067-.616-.1-.913-.038-.4-.086-.8-.124-1.185-.091-.817-.177-1.6-.263-2.346-.029-.22-.053-.435-.077-.65q-.186-1.605-.349-2.963c-.038-.354-.086-.7-.124-1.032-.062-.478-.12-.956-.172-1.4a2.389,2.389,0,0,0-.043-.315,4.011,4.011,0,0,0-.067-.549c-.249-1.95-.4-3.015-.4-3.015H962l-7.555.067-16.49.158h-.483l-8.6.081h-.526l-4.129.043h-.7l-8.6.081h-.521l-3.531,14.555-7.211,16.529s-.11,1.811-.363,3.579v.105a.346.346,0,0,1-.029.172,1.254,1.254,0,0,0-.043.268,9.279,9.279,0,0,1-.607,2.337,5.837,5.837,0,0,0-.478,1.649,9.667,9.667,0,0,0-.11,1.83h0v.1s-.573,2.6-.908,4.821c-.062.425-.12.836-.153,1.219a7.709,7.709,0,0,0-.067,1.4,7.847,7.847,0,0,1-.053,1.433,4.019,4.019,0,0,1-.062.526c-.234,1.758-.707,3.727-.707,3.727l-1.357,13.074a.317.317,0,0,1,0,.043v.545a1.512,1.512,0,0,1-.029.344c0,.311-.048.679-.081,1.109a4.174,4.174,0,0,1-.029.478,2.5,2.5,0,0,1-.029.454v.249a2.241,2.241,0,0,1-.024.378,1.841,1.841,0,0,0,0,.363v.339c-.038.7-.086,1.462-.119,2.232v.736a5.516,5.516,0,0,1-.034.736v4.9a13,13,0,0,0,.115,1.6c.048.354.086.717.11,1.089v2.972c-.119,1.644-.344,2.977-.377,3.187h0v.449c0,.12.029.272.043.44v.239h0a.946.946,0,0,0,.029.277c.029.1,0,.091,0,.143,0,.172.029.349.048.535s.038.387.057.588l.029.378c0,.182.038.373.053.559v.191c0,.129.029.253.038.387l.043.588c0,.129.029.263.038.392v.2l.062.774a2.052,2.052,0,0,0,.024.382c0,.2.029.406.048.6s0,.44.033.64a4.092,4.092,0,0,1,.029.583,8.5,8.5,0,0,1,0,1.567,36.62,36.62,0,0,0-.745,3.775c0,.148-.043.3-.057.449a1.623,1.623,0,0,0,0,.268l-.029.358c0,.287-.034.578-.034.86a6.587,6.587,0,0,0,.215,1.8,10.124,10.124,0,0,1,.263,1.586c.038.306.062.631.081.956s.029.679.043,1.027v.693c.029,2.27-.1,4.439-.1,4.439a.5.5,0,0,0,0,.057v.038c.048.956.478,8.491.956,11.024a11.458,11.458,0,0,1,.167,1.357,2.419,2.419,0,0,0,.024.416,21.894,21.894,0,0,1-.339,4.391s-.7,5.834-.927,5.834A4.08,4.08,0,0,0,897.64,626v.038a7.426,7.426,0,0,0,2.48,5.256l.535.535c2.236-.8,4.454-1.629,6.666-2.475,1.176-.454,2.351-.908,3.522-1.376q4.339-1.716,8.6-3.526Z" transform="translate(-480.891 -287.569)"/>
    <path id="Path_764" data-name="Path 764" class="cls-5" d="M998.338,291.2l-11.119,11.874s-14.268-5.734-12.768-7.645c.583-.755.478-3.139.153-5.772-.526-4.162-1.653-8.955-1.653-8.955s24.939-4.057,22.831.153a6.9,6.9,0,0,0-.158,4.989A18.916,18.916,0,0,0,998.338,291.2Z" transform="translate(-520.215 -180.161)"/>
    <path id="Path_765" data-name="Path 765" class="cls-4" d="M995.781,280.813c-.765,1.534-1.132,1.682-.655,3.345-3.259,3.5-7.407,7.325-12.562,7.325a17.8,17.8,0,0,1-7.961-1.864c-.526-4.162-1.653-8.955-1.653-8.955S997.888,276.6,995.781,280.813Z" transform="translate(-520.215 -180.142)"/>
    <path id="Path_766" data-name="Path 766" class="cls-5" d="M991.412,247.18a17.881,17.881,0,0,1-35.762,0v-.258a17.88,17.88,0,1,1,35.759.258Z" transform="translate(-511.182 -154.173)"/>
    <path id="Path_767" data-name="Path 767" class="cls-4" d="M980.949,502.876c-2.389,0-10.255.086-19.066.225h-.11l-2.91.048h-.091c-10.45.167-20.748-1.873-24.881-1.486-8.792.827,3.154-8.123,3.154-8.123a73.589,73.589,0,0,0,20.022,2.026l2.528-.134c7.985-.449,16.012-1.2,20.208-2.461C980.093,495.3,980.519,498.68,980.949,502.876Z" transform="translate(-498.134 -291.919)"/>
    <path id="Path_768" data-name="Path 768" class="cls-8" d="M980.949,501.936c-2.389,0-10.255.081-19.066.225h-.11l-2.91.048h-.091c-10.45.167-20.748-1.873-24.881-1.486-8.792.822,3.154-8.123,3.154-8.123a73.47,73.47,0,0,0,20.022,2.021l2.528-.129c7.985-.449,16.012-1.2,20.208-2.461C980.093,494.362,980.519,497.75,980.949,501.936Z" transform="translate(-498.134 -291.428)"/>
    <path id="Path_769" data-name="Path 769" class="cls-4" d="M956.245,312.034l-13.824,6.46L931.76,400.961s6.307-2.867,9.915-1.051,14.722.153,14.722.153,8.123-.478,9.313.449,15.329-3.756,15.329-3.756,2.552-5.71.6-6.609.6-9.781.6-9.781l-1.2-59.5-2.389-7.646-6.46-3.9-6.609,5.256-3.154.454Z" transform="translate(-498.708 -196.024)"/>
    <path id="Path_770" data-name="Path 770" class="cls-6" d="M956.245,310.14l-13.819,6.46L931.76,399.086s6.307-2.867,9.915-1.051,14.722.148,14.722.148,8.123-.449,9.313.449,15.329-3.756,15.329-3.756,2.552-5.705.6-6.609.6-9.767.6-9.767l-1.2-59.5-2.389-7.645-6.46-3.909-6.609,5.256-3.154.449Z" transform="translate(-498.708 -195.048)"/>
    <path id="Path_773" data-name="Path 773" class="cls-4" d="M972.806,303.65s-.6.449-.75,3.455-2.255,9.767-2.255,9.767,7.813-5.409,11.721-4.807Z" transform="translate(-518.57 -193.064)"/>
    <path id="Path_774" data-name="Path 774" class="cls-6" d="M972.806,301.76s-.6.454-.75,3.455-2.255,9.767-2.255,9.767,7.813-5.409,11.721-4.807Z" transform="translate(-518.57 -192.077)"/>
    <path id="Path_775" data-name="Path 775" class="cls-4" d="M1007.3,298.62,995,309.438s10.369,6.159,11.721,7.645,2.7-14.722,2.7-14.722Z" transform="translate(-531.729 -190.437)"/>
    <path id="Path_776" data-name="Path 776" class="cls-6" d="M1008.219,296.73,995.9,307.548s10.364,6.159,11.717,7.646,2.7-14.727,2.7-14.727Z" transform="translate(-532.199 -189.45)"/>
    <path id="Path_777" data-name="Path 777" class="cls-4" d="M937.838,303.525s-1.352-.679-2.628,1.276a8.551,8.551,0,0,1-3.679,2.867s-13.676,2.179-14.2,3.98l-6.384.373s-2.255.272-2.466,5.051-1.434,5.18-1.434,5.18-2.633,4.659-2.389,7.063a3.912,3.912,0,0,1-2.031,3.608l9.409,24.389s.3,10.068-1.433,13.748-4.96,19.983-4.96,19.983,1.352-.3,1.276.6-1.653,10.742-1.653,10.742-.449,3.9-1.2,5.256-.827,8.415-.827,8.415L902,421.166s2.867,6.384,7.215,5.481,12.242-17.953,12.242-17.953l5.032-18.4L930.4,372.11l1.128-12.319,1.8-27.271,2.628-18.029S938.9,304.8,937.838,303.525Z" transform="translate(-483.168 -192.939)"/>
    <path id="Path_778" data-name="Path 778" class="cls-3" d="M936.933,301.637s-1.352-.674-2.628,1.281a8.552,8.552,0,0,1-3.684,2.867s-13.671,2.179-14.2,3.98l-6.384.377s-2.255.3-2.48,5.032-1.433,5.185-1.433,5.185-2.628,4.659-2.389,7.062a3.91,3.91,0,0,1-2.026,3.6l9.375,24.4s.3,10.068-1.434,13.748-4.955,19.983-4.955,19.983,1.352-.3,1.276.6-1.653,10.742-1.653,10.742-.449,3.9-1.2,5.256-.827,8.415-.827,8.415L901.1,419.3s2.867,6.384,7.211,5.486,12.247-17.957,12.247-17.957l5.032-18.4L929.5,370.27l1.123-12.319,1.806-27.266,2.628-18.029S937.985,302.918,936.933,301.637Z" transform="translate(-482.698 -191.954)"/>
    <path id="Path_779" data-name="Path 779" class="cls-4" d="M854.723,408.261l-4.377,3.006a51.668,51.668,0,0,1-11.421-.956l-2.427-1.075-.478-.215.5.158a9.916,9.916,0,0,0,6.011.215c6.169-2.074,5.486-12.257,5.256-14.56a2.067,2.067,0,0,0-.048-.435.141.141,0,0,1,0-.029l.038.057a2.723,2.723,0,0,0,.282.4,3.169,3.169,0,0,0,.277.291h0l2.174,4.353v.182Z" transform="translate(-448.716 -240.434)"/>
    <path id="Path_780" data-name="Path 780" class="cls-3" d="M870.313,362l-2.1.6-.3,4.3a2.887,2.887,0,0,0-3.154,2.556,10.445,10.445,0,0,1-1.878,4.3s-4.133,3.455-4.358,6.384l-2.556,1.577s-5.935-1.352-7.287-3.756c0,0,2.7,19.381-11.717,14.651,0,0,16.151,7.063,16.9,8.037s5.71,3.823,10.216,1.434a10.838,10.838,0,0,0,5.486-6.159s4.358-6.083,4.506-6.986,3.531-1.954,3.531-1.954l6.46-15.621Z" transform="translate(-449.207 -223.532)"/>
    <path id="Path_781" data-name="Path 781" class="cls-4" d="M1015.491,306.645l2.179-9.915s.956,3.23,1.954,3.98,3.23,2.48,3.23,2.48,3.23,1.505,4.353,1.505,7.215,1.577,7.965,2.389,3.756.225,3.756.225,2.48.827,4.659,1.352,3.23,4.133,2.776,5.557a4.344,4.344,0,0,0,1.051,4.057c.9.9,1.352,3.823,1.352,3.823a4.406,4.406,0,0,1,2.556,2.179c.75,1.653.526,5.256.526,5.256L1040.659,345.3s.148,6.083-.3,7.435,1.577,24.341,1.577,24.341l2.327,39.513a41.554,41.554,0,0,1-3.756,2.929c-.678.3-1.352-13.972-1.352-14.5s-17.35-25.995-17.35-25.995-2.332-3.756-2.332-4.583-2.179-8.41-2.179-8.41L1014,351.419Z" transform="translate(-541.65 -189.45)"/>
    <path id="Path_782" data-name="Path 782" class="cls-3" d="M1053.758,328.677c0,.516-.029.86-.029.86l-11.186,15.769h0s.153,6.088-.3,7.44c-.263.784.311,8.869.841,15.506.377,4.778.736,8.831.736,8.831l.984,16.763,1.338,22.755a42.048,42.048,0,0,1-3.751,2.929c-.674.3-1.352-13.972-1.352-14.5s-17.365-26-17.365-26-2.327-3.761-2.327-4.587-2.179-8.415-2.179-8.415l-3.3-14.646,1.5-44.774,1.276-9.915s1.878,3.235,2.867,3.98,3.225,2.48,3.225,2.48,3.23,1.505,4.358,1.505,7.211,1.577,7.966,2.389,3.756.225,3.756.225,2.475.827,4.654,1.352,3.23,4.133,2.781,5.557a4.329,4.329,0,0,0,1.051,4.057c.9.9,1.352,3.823,1.352,3.823a4.42,4.42,0,0,1,2.557,2.179A12.918,12.918,0,0,1,1053.758,328.677Z" transform="translate(-542.626 -189.43)"/>
    <path id="Path_783" data-name="Path 783" class="cls-4" d="M913.636,783.475c-1.171.478-2.346.922-3.522,1.376-3.684-1.075-7.125-2.341-7.125-2.341a97.833,97.833,0,0,1,10.646.965Z" transform="translate(-483.685 -443.104)"/>
    <path id="Path_784" data-name="Path 784" class="cls-4" d="M999.67,700.6s8.94,2.1,9.466,3.531Z" transform="translate(-534.167 -400.334)"/>
    <path id="Path_785" data-name="Path 785" class="cls-4" d="M925.2,714.12s-4.659,1.352-.148,4.057S925.2,714.12,925.2,714.12Z" transform="translate(-494.177 -407.394)"/>
    <path id="Path_786" data-name="Path 786" class="cls-4" d="M970.74,561.023c.526,0,8.716-2.7,11.568-1.5a18.982,18.982,0,0,0,6.389,1.2Z" transform="translate(-519.061 -326.508)"/>
    <path id="Path_787" data-name="Path 787" class="cls-4" d="M961.356,576.468l-.081.745-7.005,18.32s-1.128,5.557-2.107,8.711a57.1,57.1,0,0,0-1.462,6.523l6.212-38.447Z" transform="translate(-508.597 -333.352)"/>
    <path id="Path_788" data-name="Path 788" class="cls-7" d="M990.627,504.86l-2.91.048h-.091l-1.706-7.574c.836-.038,1.682-.081,2.528-.134Z" transform="translate(-526.987 -294.127)"/>
    <path id="Path_789" data-name="Path 789" class="cls-5" d="M1036.915,486.126l-1.868,1.544-6.226,5.146s-16.9,9.017-21.555.449c-4.1-7.545,15.057-12.93,19.673-14.106.626-.158.984-.239.984-.239Z" transform="translate(-537.834 -284.582)"/>
    <path id="Path_790" data-name="Path 790" class="cls-4" d="M918.87,339.49s3.3,1.505,4.052,3.608S918.87,339.49,918.87,339.49Z" transform="translate(-491.977 -211.778)"/>
    <path id="Path_791" data-name="Path 791" class="cls-4" d="M893.843,386.66s-4.807,5.858-2.867,8.123S893.843,386.66,893.843,386.66Z" transform="translate(-477.171 -236.408)"/>
    <path id="Path_792" data-name="Path 792" class="cls-4" d="M1072.239,346.41s-4.506.449-4.659,4.358Z" transform="translate(-569.627 -215.391)"/>
    <path id="Path_793" data-name="Path 793" class="cls-4" d="M989.92,459.47c.478-.449,10.818-15.769,13.222-14.421Z" transform="translate(-529.076 -266.852)"/>
    <path id="Path_794" data-name="Path 794" class="cls-4" d="M991.412,247.2a17.818,17.818,0,0,1-2.117,8.439h-.134c-1.133-.239-1.72-1.558-2.585-2.389a3.522,3.522,0,0,0-4.057-.569,4.114,4.114,0,0,0-1.993,3.856c-.573-2.389-.392-4.965-.956-7.373s-2.241-4.85-4.544-4.893c-.994,0-2.15.368-2.867-.378-.435-.449-.521-1.156-.846-1.7-1.648-2.662-6.656-1.314-8.7.053s-4.42,3.546-6.962,4.716a17.88,17.88,0,1,1,35.759.258Z" transform="translate(-511.182 -154.194)"/>
    <path id="Path_795" data-name="Path 795" class="cls-9" d="M966.321,231.176c.325.545.411,1.252.846,1.7.717.741,1.873.358,2.867.378,2.3.038,3.985,2.48,4.544,4.888s.377,4.97.956,7.373a4.114,4.114,0,0,1,1.993-3.851,3.512,3.512,0,0,1,4.052.569c.865.822,1.433,2.141,2.59,2.389s2.227-.851,2.638-2.045a32.376,32.376,0,0,0,.645-3.741c.511-2.346,2.04-4.267,2.867-6.494a11.756,11.756,0,0,0-.077-8.391c-.564-1.434-1.4-2.681-1.974-4.09-.86-2.141-1.089-4.554-2.141-6.594a7.756,7.756,0,0,0-9.356-3.823c-1.634.616-3.053,1.806-4.711,2.337-2.217.712-4.592.177-6.891-.143s-4.841-.349-6.69,1.161c-2.126,1.739-2.709,5.008-4.707,6.919-.841.8-1.883,1.314-2.767,2.055a3.787,3.787,0,0,0-1.548,3.049c.134,1.558,1.658,2.972,1.094,4.41a3.483,3.483,0,0,1-.836,1.1,15.768,15.768,0,0,0-3.636,6.188c4.023,1.257,8.372-3.178,11.521-5.256C959.67,229.862,964.678,228.51,966.321,231.176Z" transform="translate(-506.185 -143.646)"/>
    <path id="Path_796" data-name="Path 796" class="cls-4" d="M1058.7,486.121l-1.868,1.543c-1.649-2.748-8.42-8.233-8.42-8.233l.291-.282c.626-.158.984-.239.984-.239Z" transform="translate(-559.617 -284.577)"/>
    <path id="Path_797" data-name="Path 797" class="cls-6" d="M1060.995,480.738s-.674,1.672-1.367,3.12-1.433,2.757-1.491,1.692c-.077-2.107-8.788-9.17-8.788-9.17l1.18-1.147,1.371-1.333Z" transform="translate(-560.108 -281.961)"/>
    <path id="Path_798" data-name="Path 798" class="cls-4" d="M1061.374,455.317l.984,16.763c-2.332-3.627-8.74-12.93-12.859-12.629l9.992-11.468a12.86,12.86,0,0,0,1.147-1.472C1061.016,451.279,1061.374,455.317,1061.374,455.317Z" transform="translate(-560.186 -267.659)"/>
    <path id="Path_799" data-name="Path 799" class="cls-4" d="M1062.306,480.738s-.674,1.672-1.367,3.12c-2.619-3.593-6.212-7.832-9.079-8.625l1.371-1.333Z" transform="translate(-561.419 -281.961)"/>
    <path id="Path_800" data-name="Path 800" class="cls-3" d="M1069.081,361l2.7,2.1s4.506.076,4.955,3.823,4.583,5.486,4.583,5.486,3.082,3.077,3.082,4.506,2.327,3.98,2.327,4.205,2.255,4.807,1.954,5.634,2.389,4.434,1.577,5.787a33.142,33.142,0,0,0-1.8,3.756s-3.531,6.761-5.338,8.037-10.063,12.018-10.063,12.018-8.864,10.216-8.864,13.38c0,0-8.64-14.426-13.748-14.049l9.992-11.492s1.725-1.878,1.8-3.006,4.807-6.312,7.063-6.537c0,0,.373-3.082-.6-3.154s-1.8-2.48-1.8-2.48-6.613-7.813-6.69-12.773S1069.081,361,1069.081,361Z" transform="translate(-560.682 -223.009)"/>
    <path id="Path_801" data-name="Path 801" class="cls-4" d="M1092.142,376s-6.312,4.654-4.96,6.159S1092.142,376,1092.142,376Z" transform="translate(-579.764 -230.842)"/>
    <path id="Path_802" data-name="Path 802" class="cls-4" d="M1098.4,414.386s11.717-3.756,12.9,0Z" transform="translate(-585.72 -250.014)"/>
    <path id="Path_803" data-name="Path 803" class="cls-4" d="M923.338,374.08s0,17.126-1.467,18.817S923.338,374.08,923.338,374.08Z" transform="translate(-493.33 -229.839)"/>
    <path id="Path_804" data-name="Path 804" class="cls-4" d="M1067.11,385.63l2.179,6.121S1070.154,385.745,1067.11,385.63Z" transform="translate(-569.382 -235.87)"/>
    <g id="Group_357-2" data-name="Group 357" class="cls-10" transform="translate(439.914 79.799)">
      <path id="Path_805" data-name="Path 805" d="M954.551,243.521c.55-1.41-.889-2.791-1.08-4.3a2.866,2.866,0,0,0-.239,1.357c.1,1.142.956,2.2,1.161,3.259A1.9,1.9,0,0,0,954.551,243.521Z" transform="translate(-949.83 -239.22)"/>
      <path id="Path_806" data-name="Path 806" d="M975.751,264.877c-.54-2.389-.382-4.879-.927-7.244s-2.241-4.855-4.544-4.893c-.994,0-2.15.363-2.867-.377-.435-.449-.521-1.156-.846-1.7-1.644-2.662-6.652-1.314-8.7.053-3.073,2.04-7.292,6.312-11.234,5.347-.186.454-.363.913-.511,1.386,4.023,1.257,8.372-3.178,11.521-5.256,2.05-1.362,7.053-2.714,8.7-.048.325.545.411,1.252.846,1.7.717.741,1.873.358,2.867.378,2.3.038,3.985,2.48,4.544,4.888s.377,4.97.956,7.373A4.079,4.079,0,0,1,975.751,264.877Z" transform="translate(-946.12 -244.396)"/>
      <path id="Path_807" data-name="Path 807" d="M1019.45,274.75c-.411,1.195-1.481,2.289-2.638,2.045s-1.72-1.558-2.585-2.389a3.526,3.526,0,0,0-4.057-.564,4.086,4.086,0,0,0-1.993,3.636,3.924,3.924,0,0,1,1.768-2.174,3.512,3.512,0,0,1,4.052.569c.865.822,1.433,2.141,2.59,2.389s2.227-.851,2.638-2.045a10.512,10.512,0,0,0,.411-2.16A6.656,6.656,0,0,1,1019.45,274.75Z" transform="translate(-978.523 -257.089)"/>
      <path id="Path_808" data-name="Path 808" d="M1035.787,252.953c-.846,2.227-2.389,4.148-2.867,6.489-.105.478-.162.956-.22,1.434.511-2.332,2.036-4.248,2.867-6.47a11.324,11.324,0,0,0,.693-3.116A10.863,10.863,0,0,1,1035.787,252.953Z" transform="translate(-991.328 -245.522)"/>
    </g>
    <circle id="Ellipse_135" data-name="Ellipse 135" class="cls-11" cx="0.186" cy="0.186" r="0.186" transform="translate(375.625 141.249)"/>
    <path id="Path_809" data-name="Path 809" class="cls-12" d="M497.7,585.229s5.256-3.77,10.718-1.433c0,0-1.529,3.24-8.314,3.2Z" transform="translate(-272.06 -338.945)"/>
    <path id="Path_810" data-name="Path 810" class="cls-12" d="M496.088,588.09s-1.4,6.322,2.867,10.422c0,0,2.389-2.676-.32-8.9Z" transform="translate(-271.103 -341.586)"/>
    <path id="Path_811" data-name="Path 811" class="cls-12" d="M481.75,571.419s.2-5.337,12.281-4.033c0,0,.191,3.436-3.966,5.223S483.924,573.1,481.75,571.419Z" transform="translate(-263.732 -330.668)"/>
    <path id="Path_812" data-name="Path 812" class="cls-12" d="M477.745,576s-5.017,1.825-.057,12.926c0,0,3.345-.879,3.746-5.385S480.01,577.567,477.745,576Z" transform="translate(-260.467 -335.273)"/>
    <path id="Path_813" data-name="Path 813" class="cls-12" d="M465.337,551.688s-1.023-8.73,11.3-8.3c0,0,1.175,7.894-9.046,10.326Z" transform="translate(-255.151 -318.234)"/>
    <path id="Path_814" data-name="Path 814" class="cls-12" d="M447.58,532.107s1.3-9.992,13.7-7.5c0,0,.373,8.6-11.6,9.791Z" transform="translate(-245.889 -308.229)"/>
    <path id="Path_815" data-name="Path 815" class="cls-13" d="M434.35,511.364s2.447-9.8,14.722-7.344c0,0-2.561,8.8-13.857,9.079Z" transform="translate(-238.981 -297.483)"/>
    <path id="Path_816" data-name="Path 816" class="cls-13" d="M421.76,490.649s2.389-10.14,14.225-7.574c0,0-3.555,9.681-13.38,9.256Z" transform="translate(-232.407 -286.535)"/>
    <path id="Path_817" data-name="Path 817" class="cls-13" d="M413.39,468.53s1.649-12.343,12.715-10.059c0,0-2.752,11.287-11.831,11.812Z" transform="translate(-228.037 -273.758)"/>
    <path id="Path_818" data-name="Path 818" class="cls-13" d="M405.35,445.4s2.069-12.467,13.274-9.294c0,0-3.894,11.855-12.424,10.99Z" transform="translate(-223.839 -261.956)"/>
    <path id="Path_819" data-name="Path 819" class="cls-13" d="M400.08,420.319s3.565-12.524,12.147-12.52c0,0-3.632,13.222-11.334,14.971Z" transform="translate(-221.087 -247.446)"/>
    <path id="Path_820" data-name="Path 820" class="cls-13" d="M396.45,396.777s3.823-15.057,10.837-14.178c0,0-2.6,11.5-10.513,16.486Z" transform="translate(-219.192 -234.268)"/>
    <path id="Path_821" data-name="Path 821" class="cls-13" d="M393.86,371.8s3.641-12.567,10.513-13.322c0,0-2.337,12.314-10.231,16.538Z" transform="translate(-217.839 -221.694)"/>
    <path id="Path_822" data-name="Path 822" class="cls-13" d="M391.19,347.929s4.659-12.615,9.2-13.069c0,0-1.763,12.314-8.668,15.09Z" transform="translate(-216.445 -209.36)"/>
    <path id="Path_823" data-name="Path 823" class="cls-13" d="M389.13,323.424s2.642-13.614,7.139-14.9c0,0-.2,11.057-6.642,15.893Z" transform="translate(-215.369 -195.607)"/>
    <path id="Path_824" data-name="Path 824" class="cls-13" d="M384.42,296.508s2.91-10.88,6.527-12.658c0,0-.244,12.7-5.572,15.253Z" transform="translate(-212.91 -182.725)"/>
    <path id="Path_825" data-name="Path 825" class="cls-13" d="M379.185,270.377l-1.4-18.937s7.411,14.049,2.012,22.248Z" transform="translate(-209.448 -165.802)"/>
    <path id="Path_826" data-name="Path 826" class="cls-13" d="M360.77,236.348s-5.476-13.652-6.69-14.378c0,0,10.035,8.6,9.557,20.2Z" transform="translate(-197.068 -150.414)"/>
    <path id="Path_827" data-name="Path 827" class="cls-12" d="M455.836,560.658s-8.754-.8-8.023,11.5c0,0,7.923.956,10.1-9.3Z" transform="translate(-245.988 -327.257)"/>
    <path id="Path_828" data-name="Path 828" class="cls-12" d="M436.986,540.08s-10.068.354-8.764,12.9c0,0,8.506,1.185,10.842-10.618Z" transform="translate(-235.721 -316.517)"/>
    <path id="Path_829" data-name="Path 829" class="cls-12" d="M418.117,520.813s-9.3-3.937-14.727,7.344c0,0,8.577,3.249,15.6-5.591Z" transform="translate(-222.815 -306.11)"/>
    <path id="Path_830" data-name="Path 830" class="cls-12" d="M405.372,498.731s-9.533-4.2-14.612,6.814c0,0,9.877,2.982,15.449-5.132Z" transform="translate(-216.221 -294.516)"/>
    <path id="Path_831" data-name="Path 831" class="cls-12" d="M395.975,476.592s-9.332-8.257-16.185.717c0,0,9.471,6.723,16.672,1.18Z" transform="translate(-210.492 -281.557)"/>
    <path id="Path_832" data-name="Path 832" class="cls-12" d="M388.725,451.677s-9.4-8.453-16.175,1.023c0,0,10.446,6.828,16.567.808Z" transform="translate(-206.712 -268.544)"/>
    <path id="Path_833" data-name="Path 833" class="cls-13" d="M385.04,423.984s-7.4-10.713-15.52-7.951c0,0,7.684,11.354,15.539,10.513Z" transform="translate(-205.13 -251.508)"/>
    <path id="Path_834" data-name="Path 834" class="cls-13" d="M381.44,399.847s-7.564-13.571-14.12-10.914c0,0,5.476,10.441,14.393,13.231Z" transform="translate(-203.981 -237.415)"/>
    <path id="Path_835" data-name="Path 835" class="cls-13" d="M379.114,374.8s-7.646-10.613-14.364-9.022c0,0,6.327,10.814,15.186,12.147Z" transform="translate(-202.639 -225.422)"/>
    <path id="Path_836" data-name="Path 836" class="cls-13" d="M381.152,348.586s-6.069-12-10.632-11.946c0,0,3.159,12.032,10.331,14.006Z" transform="translate(-205.652 -210.289)"/>
    <path id="Path_837" data-name="Path 837" class="cls-13" d="M377.142,326.038s-6.69-12.137-11.382-11.98c0,0,3.593,10.46,11.215,13.079Z" transform="translate(-203.167 -198.498)"/>
    <path id="Path_838" data-name="Path 838" class="cls-13" d="M376.79,299.742s-5.051-10.063-8.95-11.072c0,0,2.8,12.39,8.544,13.81Z" transform="translate(-204.253 -185.242)"/>
    <path id="Path_839" data-name="Path 839" class="cls-13" d="M367.479,273.463,356.46,258s3.268,15.539,12.653,18.421Z" transform="translate(-198.311 -169.227)"/>
    <path id="Path_840" data-name="Path 840" class="cls-13" d="M349.092,244.848s-12.424-7.889-12.9-9.218c0,0,6.623,11.468,18.11,13.088Z" transform="translate(-187.726 -157.547)"/>
    <path id="Path_841" data-name="Path 841" class="cls-13" d="M341.758,233.271s-14.4-12.821-17.948-12.672c0,0,11.468.086,18.254,11.946Z" transform="translate(-181.262 -149.697)"/>
    <path id="Path_842" data-name="Path 842" class="cls-14" d="M372.764,278.864l-.506.086c-3.393-20.332-7.646-32.264-12.018-33.592l.148-.478C365.009,246.275,369.286,258.035,372.764,278.864Z" transform="translate(-200.284 -162.377)"/>
    <path id="Path_843" data-name="Path 843" class="cls-14" d="M391.414,363.061l-.76.1c-.234-1.911-.43-3.851-.593-5.791-1.376-16.887-3.1-32.374-5.032-43.962l.42-.564c1.911,11.607,4,27.552,5.38,44.439C390.984,359.234,391.185,361.179,391.414,363.061Z" transform="translate(-213.229 -197.862)"/>
    <path id="Path_844" data-name="Path 844" class="cls-14" d="M459.462,506.648c-.139-.057-13.829-5.548-28.35-19.353a111.042,111.042,0,0,1-21.24-27.772c-6.962-12.9-11.521-28.919-13.442-44.573l.812.344c4.3,35.131,21.283,58.612,34.543,71.227C446.164,500.2,459.7,505.635,459.835,505.7Z" transform="translate(-219.181 -251.18)"/>
    <g id="Group_358" data-name="Group 358" class="cls-15" transform="translate(211.037 47.717)">
      <path id="Path_845" data-name="Path 845" class="cls-16" d="M548.25,573.644s6.145-2.031,10.656,1.811c0,0-2.423,2.643-8.888.578Z" transform="translate(-509.492 -381.479)"/>
      <path id="Path_846" data-name="Path 846" class="cls-16" d="M545.115,574.25s-3.221,5.619-.354,10.809c0,0,3.073-1.849,2.341-8.6Z" transform="translate(-507.05 -382.076)"/>
      <path id="Path_847" data-name="Path 847" class="cls-16" d="M536.46,555.917s1.778-5.041,12.9-.2c0,0-.841,3.345-5.342,3.823S538.037,558.168,536.46,555.917Z" transform="translate(-503.336 -371.302)"/>
      <path id="Path_848" data-name="Path 848" class="cls-16" d="M530.47,558s-5.338.253-3.9,12.324c0,0,3.431.153,5.175-4.023S532.167,560.131,530.47,558Z" transform="translate(-498.044 -373.591)"/>
      <path id="Path_849" data-name="Path 849" class="cls-16" d="M525.35,532.817s1.625-8.639,13.255-4.568c0,0-1.228,7.884-11.707,7.168Z" transform="translate(-497.535 -357.486)"/>
      <path id="Path_850" data-name="Path 850" class="cls-16" d="M514.34,508.908s4.219-9.151,15.291-3.087c0,0-2.193,8.3-13.986,5.892Z" transform="translate(-491.786 -345.262)"/>
      <path id="Path_851" data-name="Path 851" class="cls-16" d="M507.93,485.448s5.256-8.625,16.247-2.633c0,0-5.065,7.646-15.931,4.568Z" transform="translate(-488.439 -333.227)"/>
      <path id="Path_852" data-name="Path 852" class="cls-16" d="M502,461.86s5.285-8.974,15.84-3c0,0-6.274,8.185-15.539,4.855Z" transform="translate(-485.342 -320.753)"/>
      <path id="Path_853" data-name="Path 853" class="cls-16" d="M499.83,438.221s5.256-11.3,15.119-5.82c0,0-5.987,9.953-14.813,7.755Z" transform="translate(-484.209 -307.225)"/>
      <path id="Path_854" data-name="Path 854" class="cls-16" d="M499.2,413.7s5.686-11.287,15.439-4.922c0,0-7.249,10.159-15.138,6.771Z" transform="translate(-483.88 -294.655)"/>
      <path id="Path_855" data-name="Path 855" class="cls-16" d="M500.76,388.954s7.129-10.895,15.32-8.338c0,0-7.4,11.545-15.291,10.923Z" transform="translate(-484.695 -280.765)"/>
      <path id="Path_856" data-name="Path 856" class="cls-16" d="M503.338,364.993s8.123-13.241,14.565-10.307c0,0-5.911,10.2-14.933,12.61Z" transform="translate(-485.849 -267.208)"/>
      <path id="Path_857" data-name="Path 857" class="cls-16" d="M508.238,340.569s7.215-10.909,13.991-9.59c0,0-5.892,11.062-14.689,12.749Z" transform="translate(-488.235 -254.993)"/>
      <path id="Path_858" data-name="Path 858" class="cls-16" d="M513.521,316.622s8.2-10.661,12.672-9.743c0,0-5.347,11.229-12.763,11.831Z" transform="translate(-491.311 -242.437)"/>
      <path id="Path_859" data-name="Path 859" class="cls-16" d="M518.35,292s6.57-12.209,11.253-12.1c0,0-3.479,10.513-11.076,13.2Z" transform="translate(-493.88 -228.378)"/>
      <path id="Path_860" data-name="Path 860" class="cls-16" d="M522.6,264.7s6.011-9.519,10-10.145c0,0-4.014,12.056-9.858,12.9Z" transform="translate(-496.099 -215.148)"/>
      <path id="Path_861" data-name="Path 861" class="cls-16" d="M524.362,236.078l4.3-18.488s2.9,15.611-4.683,21.852Z" transform="translate(-496.819 -195.843)"/>
      <path id="Path_862" data-name="Path 862" class="cls-16" d="M522.017,198.111s-1.166-14.665-2.117-15.721c0,0,7.039,11.21,3.106,22.124Z" transform="translate(-494.689 -177.463)"/>
      <path id="Path_863" data-name="Path 863" class="cls-16" d="M512.606,538.18s-8.123-3.378-11.076,8.6c0,0,7.268,3.292,12.424-5.873Z" transform="translate(-485.097 -363.012)"/>
      <path id="Path_864" data-name="Path 864" class="cls-16" d="M500.349,513.388s-9.715-2.657-12.209,9.729c0,0,7.765,3.665,13.513-6.91Z" transform="translate(-478.105 -350.172)"/>
      <path id="Path_865" data-name="Path 865" class="cls-16" d="M489.537,489.777s-7.708-6.527-16.247,2.633c0,0,7.22,5.653,16.557-.7Z" transform="translate(-470.351 -336.791)"/>
      <path id="Path_866" data-name="Path 866" class="cls-16" d="M484.074,464.739s-7.846-6.847-15.974,2.169c0,0,8.539,5.782,16.275-.311Z" transform="translate(-467.641 -323.594)"/>
      <path id="Path_867" data-name="Path 867" class="cls-16" d="M482.8,440s-6.456-10.661-15.664-4.133c0,0,7.039,9.241,15.563,6.088Z" transform="translate(-467.14 -308.714)"/>
      <path id="Path_868" data-name="Path 868" class="cls-16" d="M483.169,414.11s-6.461-10.861-15.769-3.823c0,0,7.942,9.629,15.578,5.7Z" transform="translate(-467.276 -295.222)"/>
      <path id="Path_869" data-name="Path 869" class="cls-16" d="M489.213,384.936s-3.875-12.424-12.453-12.209c0,0,3.961,13.131,11.707,14.684Z" transform="translate(-472.163 -276.848)"/>
      <path id="Path_870" data-name="Path 870" class="cls-16" d="M493.005,360.7s-3.187-15.2-10.235-14.617c0,0,2.122,11.6,9.805,16.911Z" transform="translate(-475.301 -262.928)"/>
      <path id="Path_871" data-name="Path 871" class="cls-16" d="M498.293,335.9s-4.143-12.424-11.033-12.9c0,0,2.829,12.214,10.885,16.118Z" transform="translate(-477.646 -250.884)"/>
      <path id="Path_872" data-name="Path 872" class="cls-16" d="M508.075,311.34s-2.222-13.265-6.6-14.56c0,0-.564,12.424,5.7,16.447Z" transform="translate(-485.062 -237.193)"/>
      <path id="Path_873" data-name="Path 873" class="cls-16" d="M511.021,288.623s-2.786-13.58-7.3-14.813c0,0,.315,11.052,6.819,15.821Z" transform="translate(-486.24 -225.199)"/>
      <path id="Path_874" data-name="Path 874" class="cls-16" d="M518.367,263.4s-1.83-11.11-5.256-13.241c0,0-1.008,12.668,4.047,15.731Z" transform="translate(-491.101 -212.85)"/>
      <path id="Path_875" data-name="Path 875" class="cls-16" d="M517.27,235.549l-5.92-18.039s-1.505,15.812,6.6,21.355Z" transform="translate(-490.167 -195.802)"/>
      <path id="Path_876" data-name="Path 876" class="cls-16" d="M508.367,202.754s-9.514-11.229-9.557-12.644c0,0,2.91,12.9,13.38,17.881Z" transform="translate(-483.677 -181.495)"/>
      <path id="Path_877" data-name="Path 877" class="cls-16" d="M504.77,189.521s-9.934-16.529-13.38-17.441c0,0,10.933,3.5,13.857,16.839Z" transform="translate(-479.802 -172.08)"/>
      <path id="Path_878" data-name="Path 878" class="cls-17" d="M520.668,242.309l-.507-.072c2.81-20.418,2.284-33.081-1.481-35.647l.291-.421C522.961,208.889,523.549,221.38,520.668,242.309Z" transform="translate(-494.052 -189.88)"/>
      <path id="Path_879" data-name="Path 879" class="cls-18" d="M503.1,328.329l-.755-.139c.344-1.888.731-3.823,1.161-5.705,3.708-16.529,6.69-31.829,8.271-43.484l.569-.411c-1.606,11.655-4.377,27.5-8.095,44.043C503.826,324.544,503.434,326.451,503.1,328.329Z" transform="translate(-485.52 -227.695)"/>
      <path id="Path_880" data-name="Path 880" class="cls-18" d="M533.259,485.536c-.115-.091-11.554-9.414-21.307-26.907a110.9,110.9,0,0,1-12.037-32.837c-2.81-14.393-2.389-31.06.425-46.551l.674.569c-6.331,34.825,2.867,62.292,11.788,78.28,9.657,17.336,20.963,26.558,21.078,26.649Z" transform="translate(-483.257 -280.25)"/>
    </g>
    <path id="Path_881" data-name="Path 881" class="cls-19" d="M205.655,405.349a18.151,18.151,0,0,1-3.483,1.042,35.007,35.007,0,0,1-6.322.6c.062.559.11,1.08.158,1.553.115,1.3.182,2.193.182,2.193l-2.241-.153-18.483-1.261-10.809-1.6a20.166,20.166,0,0,0,1.7,1.993,8.94,8.94,0,0,0,2.16,1.677s9.753,7.9,11.44,7.97c.239,0,.315.239.277.616,4.1,0,16.868.6,13.327,7.7a5.663,5.663,0,0,1-2.9,2.824c-4.1,1.735-10.274-1.386-13.456-3.3-.311.607-.607,1.171-.87,1.653-.54,1.018-.917,1.692-.917,1.692l-.32-.229-16.4-11.678-3.593-3.049a12.54,12.54,0,0,1-3.111-.54h0l-.478-.153a.921.921,0,0,0-.053.129,6.686,6.686,0,0,0-.291,1.147v.172a13.426,13.426,0,0,0-.134,1.343c0,.306-.024.631-.024.956-.029,6.508,2.58,16.968,2.58,16.968s6.761,17.245,4.363,21.226h0a1.792,1.792,0,0,1-.478.516,4.746,4.746,0,0,0-1.615,3c-.894,4.224.674,10.67.674,10.67s-.143.239-.387.612a18.485,18.485,0,0,1-1.778,2.389c-.1.115-.205.234-.315.344a8.338,8.338,0,0,1-.956.86c.062.186.129.378.2.583s.153.526.22.812a11.65,11.65,0,0,1-.6,7.029,19.364,19.364,0,0,0-1.2,5.051h0a38.637,38.637,0,0,0,.244,9.509c-.072-.038-.134-.076-.205-.11q-7.927-4.143-15.63-8.654c-1.505-.87-3-1.758-4.487-2.652q-2.743-1.653-5.462-3.345-3.584-2.236-7.168-4.583l-1.118-.745-.43-.292c-.607-.406-1.2-.812-1.806-1.223a91.775,91.775,0,0,1-6.757-10.035c-.339-.607-.645-1.185-.9-1.716v-.029l-.162-.349-.674-.239h0c-1.266-.444-2.069-.755-2.069-.755h0a23.442,23.442,0,0,0,.831-6.546A19.825,19.825,0,0,0,99.789,442.3c-7.244-6.847-8.243-13.609-8.348-16.2v-.478a5.985,5.985,0,0,1,.029-.655l.554-.53c-1.4-.282-2.724-.411-2.724-.411s4.807-17.393,12.9-23.2c4.014-2.867,7.354-7.646,9.715-11.745a178.011,178.011,0,0,1,14.469-21.211l1.457-1.84.425-.54.091-.11.115-.153q-.3-.449-.6-.889l-.134-.2a4.864,4.864,0,0,1-1.094-3.053v-.277a3.668,3.668,0,0,1,.105-.564.542.542,0,0,0,.057.086c.683-1.988,3.316-2.867,5.256-3.966,4.573-2.571,6.523-8.195,7.5-13.427.76-4.071,1.391-8.635,4.544-11.248,2.036-1.682,4.778-2.236,6.838-3.9a12.816,12.816,0,0,0,2.905-3.732c.478-.812.889-1.653,1.333-2.466a24.874,24.874,0,0,1,8.252-9.3c3.541-2.2,8.033-3.058,11.913-1.577,1.5.569,2.867,1.434,4.3,2.069a16.742,16.742,0,0,0,2.733.851c2.92.683,5.992.86,8.735,2.079,4.458,1.978,7.359,6.355,10.006,10.513a50.09,50.09,0,0,1,4.75,8.458v-.33a12.132,12.132,0,0,1,.956,4.4,6.69,6.69,0,0,1-.205,1.911,5.475,5.475,0,0,1-2.972,3.407l-.225.11a9.556,9.556,0,0,1-.927.416c-.048.263-.1.53-.158.789-.024.11-.053.225-.081.334-.062.268-.134.53-.21.793a18.387,18.387,0,0,1-5.734,8.764A19.27,19.27,0,0,1,189.9,358.9c-.167.057-.344.1-.511.153a4.12,4.12,0,0,1-.6,1.113,3.218,3.218,0,0,1-.65.626,3.951,3.951,0,0,1-.478.277.639.639,0,0,1-.129.062c-1.72.774-4.076.167-5.734-.989-.086-.057-.167-.124-.248-.186a5.487,5.487,0,0,1-.091.855c-.048.3-.081.478-.134.726s-.072.368-.105.545-.057.3-.086.435l-.057.244a37.54,37.54,0,0,1-5.323,12.95,18.472,18.472,0,0,1-1.209,1.629l-1.185,1.806v.244a20.569,20.569,0,0,1-3.073,11.368,33.132,33.132,0,0,1-2.126,3.2l.268.158c2.676,1.524,7.951,4.234,11.287,4,0,0,12.615,1.629,14.077.812.2-.115.4.043.578.382,2.04-1.242,6.733-3.875,10.436-4.224,2.59-.248,4.7.616,5.089,3.823S208.359,404.188,205.655,405.349Z" transform="translate(-58.811 -196.365)"/>
    <path id="Path_882" data-name="Path 882" class="cls-20" d="M158.235,634.65a10.474,10.474,0,0,1,.688,9.189,23.34,23.34,0,0,0-1.171,9.2c-1.505-.87-3-1.758-4.487-2.652q-2.743-1.653-5.462-3.345-3.584-2.236-7.168-4.583l-1.118-.745-.43-.291a.9.9,0,0,0-.139-.191,86.764,86.764,0,0,1-6.589-10.092c-.4-.745-.75-1.434-1.027-2.064v-.034a4.021,4.021,0,0,1-.559-2.3,4.711,4.711,0,0,1,2.318-2.867c2.752-1.434,7.168-.11,11.535,2a79.768,79.768,0,0,1,10.771,6.561l.387.282.038.029c1.434,1.018,2.265,1.692,2.265,1.692A2.28,2.28,0,0,1,158.235,634.65Z" transform="translate(-80.444 -359.958)"/>
    <path id="Path_883" data-name="Path 883" class="cls-21" d="M156.741,633.325a10.474,10.474,0,0,1,.688,9.2,23.352,23.352,0,0,0-1.171,9.2q-2.255-1.314-4.487-2.657-2.748-1.653-5.462-3.345c-2.389-1.5-4.778-3.025-7.144-4.587l-1.118-.745-.43-.291a1.039,1.039,0,0,0-.139-.191,85.894,85.894,0,0,1-6.589-10.092c-.4-.745-.75-1.434-1.027-2.064v-.029a4.034,4.034,0,0,1-.559-2.3,4.726,4.726,0,0,1,2.318-2.867c2.752-1.434,7.168-.11,11.535,2a79.756,79.756,0,0,1,10.771,6.561l.387.282.038.029c1.434,1.018,2.265,1.692,2.265,1.692S156.655,633.187,156.741,633.325Z" transform="translate(-79.677 -359.269)"/>
    <path id="Path_884" data-name="Path 884" class="cls-20" d="M188.119,647.269a11.666,11.666,0,0,1-.674,2.389,18.893,18.893,0,0,0-1.085,4.3h0a38,38,0,0,0,.038,9.4q-7.927-4.143-15.63-8.654c-1.505-.87-3-1.758-4.487-2.652-.335-2.542-.812-4.778-1.352-5.328a95.145,95.145,0,0,1-7.254-11.072c-.325-.573-.607-1.128-.87-1.653v-.024c-.1-.21-.2-.411-.287-.612-.645-1.386-.989-2.466-.817-2.986a5.514,5.514,0,0,1,1.969-2.838c4.238-3.1,13.05,1.094,19.816,5.256l.167.1c1.281.8,2.494,1.586,3.584,2.322l.636.43c2.8,1.911,4.659,3.4,4.659,3.4a10.173,10.173,0,0,1,1.1,2.284,12.115,12.115,0,0,1,.4,1.386A11.55,11.55,0,0,1,188.119,647.269Z" transform="translate(-93.46 -361.625)"/>
    <path id="Path_885" data-name="Path 885" class="cls-4" d="M132.378,631.117c3.474,1.214,8.6,2.824,11.392,2.867a5.4,5.4,0,0,0,.865-.043h0c1.964-.268,8.018.162,13.576.664,2.227.2,4.372.4,6.145.583l4.454.478v-1.72c-1.238-.851-2.676-1.8-4.215-2.752-6.79-4.2-15.711-8.482-19.983-5.361-6.016-2.905-12.123-4.3-13.857.87C130.553,627.376,131.284,629.087,132.378,631.117Z" transform="translate(-80.439 -359.938)"/>
    <path id="Path_886" data-name="Path 886" class="cls-22" d="M99.25,549.915c.1,2.576,1.061,9.261,7.975,16.013,8.821,8.6,5.06,20.968,5.06,20.968s10.513,4.128,15.047,4.238a5.4,5.4,0,0,0,.865-.043c2.719-.377,13.528.621,19.74,1.247l4.453.478V556.251L103.679,544.42l-4.41,4.4a8.6,8.6,0,0,0-.019,1.1Z" transform="translate(-64.002 -318.784)"/>
    <path id="Path_887" data-name="Path 887" class="cls-23" d="M135.46,630.91" transform="translate(-82.914 -363.945)"/>
    <g id="Group_359" data-name="Group 359" class="cls-10" transform="translate(35.239 225.66)">
      <path id="Path_888" data-name="Path 888" d="M187.574,643.3l.8.081v.392l-4.453-.478c-4.458-.449-11.272-1.09-15.769-1.276C171.261,641.739,181.558,642.69,187.574,643.3Z" transform="translate(-135.222 -595.379)"/>
      <path id="Path_889" data-name="Path 889" d="M99.268,548.866l4.41-4.4,2.944.712-3.675,3.684a8.6,8.6,0,0,0,0,1.1c.1,2.576,1.061,9.256,7.975,16.013,8.821,8.6,5.06,20.963,5.06,20.963s8.7,3.417,13.681,4.119a11.831,11.831,0,0,0-1.434.081,5.384,5.384,0,0,1-.865.043c-4.535-.115-15.047-4.243-15.047-4.243s3.761-12.362-5.06-20.963c-6.948-6.757-7.913-13.437-8.009-16A8.6,8.6,0,0,1,99.268,548.866Z" transform="translate(-99.24 -544.47)"/>
    </g>
    <path id="Path_890" data-name="Path 890" class="cls-20" d="M303,496.57s14.732-10.216,15.807-1.023-15.807,7.9-15.807,7.9Z" transform="translate(-170.396 -291.261)"/>
    <path id="Path_891" data-name="Path 891" class="cls-24" d="M238.1,487.7s7.966,5.256,12.376,4.946c0,0,12.042,1.615,13.442.808s2.26,11.669,2.26,11.669l-19.787-1.4L233.7,501.787s-6.346-3.87-6.346-7.206S238.1,487.7,238.1,487.7Z" transform="translate(-130.895 -289.167)"/>
    <path id="Path_892" data-name="Path 892" class="cls-7" d="M238.1,487.7s7.966,5.256,12.376,4.946c0,0,12.042,1.615,13.442.808s2.26,11.669,2.26,11.669l-19.787-1.4L233.7,501.787s-6.346-3.87-6.346-7.206S238.1,487.7,238.1,487.7Z" transform="translate(-130.895 -289.167)"/>
    <path id="Path_893" data-name="Path 893" class="cls-20" d="M270.254,543.322s17.914-.741,13.9,7.6-17.585-1.787-17.585-1.787Z" transform="translate(-151.374 -318.201)"/>
    <path id="Path_894" data-name="Path 894" class="cls-22" d="M236.58,475.393s14.517-10.861,12.477-24.088-12.477,10.111-12.477,10.111Z" transform="translate(-135.714 -268.044)"/>
    <path id="Path_895" data-name="Path 895" class="cls-20" d="M245,360.59A18.368,18.368,0,0,0,256.468,377.6a16.475,16.475,0,0,0,2.361.784,18.639,18.639,0,0,0,2.6.478c.631.062,1.266.1,1.911.1a18.085,18.085,0,0,0,6.026-1.046A18.349,18.349,0,1,0,245,360.59Z" transform="translate(-140.111 -213.205)"/>
    <path id="Path_896" data-name="Path 896" class="cls-4" d="M99.25,549.915c1.644.3,3.675.855,3.675,1.706,0,1.434,22.936,9.179,22.936,9.179s-.86,2,1.434,5.447,20.944,23.228,20.944,23.228l-.062.583-.239,2.279-1.137,10.9s7.168-2.58,9.461-2.294a3.122,3.122,0,0,0,2.289-1.07,10.991,10.991,0,0,0-1.5-3.665s-1.859-1.462-4.664-3.4v-36.56L103.679,544.42l-4.41,4.4a8.6,8.6,0,0,0-.019,1.1Z" transform="translate(-64.002 -318.784)"/>
    <path id="Path_897" data-name="Path 897" class="cls-7" d="M94.94,469.956s5.734.569,5.734,2.007,22.936,9.179,22.936,9.179-.86,2,1.434,5.447,20.944,23.228,20.944,23.228l-1.434,13.762s7.168-2.58,9.461-2.294c1.027.129,2.16-.822,3.1-1.911a20.011,20.011,0,0,0,2.069-2.948s-2.585-10.9.86-13.485-3.727-21.5-3.727-21.5-3.245-13.456-2.289-19.228a7.018,7.018,0,0,1,.277-1.133.344.344,0,0,1,.043-.129c2.045-5.514,24.045-51.774,24.045-51.774a32.931,32.931,0,0,0-.277-3.923c-.043-.363-.1-.741-.172-1.118a19.211,19.211,0,0,0-.444-2.04c-.124-.44-.258-.86-.416-1.262-.679-1.749-1.72-3.092-3.278-3.125,0,0-1.72-1.911-5.734-2.418-2.963-.387-7.168,0-12.9,2.418-13.475,5.734-16.629,6.021-16.629,6.021l-6.776,8.874-1.4,1.825A175.511,175.511,0,0,0,116.553,435.4c-2.255,4.052-5.447,8.778-9.275,11.616C99.532,452.754,94.94,469.956,94.94,469.956Z" transform="translate(-61.756 -240.845)"/>
    <path id="Path_898" data-name="Path 898" class="cls-4" d="M171.093,482.3s-19.142,4.731-26.563,16.667Z" transform="translate(-87.65 -286.347)"/>
    <path id="Path_899" data-name="Path 899" class="cls-4" d="M184.692,526.18s-3.617,24.3-2.614,26.133S184.692,526.18,184.692,526.18Z" transform="translate(-107.164 -309.259)"/>
    <path id="Path_900" data-name="Path 900" class="cls-4" d="M189.949,545.606c1.4,1.825,7.048,15.917,7.048,15.917l-1.634,23.658-1.434,13.762s7.168-2.58,9.466-2.294c1.023.129,2.16-.817,3.1-1.911-1.491-8.061-4.673-24.924-5.256-25.249-.76-.43-4.63-13.982-4.836-17.747s-5.6-12.252-5.6-12.252S188.549,543.781,189.949,545.606Z" transform="translate(-111.127 -316.209)"/>
    <path id="Path_901" data-name="Path 901" class="cls-4" d="M201.68,454.047c.349,1.075.9,7.311.9,7.311.392,5.5,4.549,7.3,7.129,7.87a7.015,7.015,0,0,1,.277-1.133c1.72-4.869,24.088-51.9,24.088-51.9a30.882,30.882,0,0,0-.894-7.082c-4.869-1.434-12.582.774-12.582.774-2.227-.292-9.495,14.163-9.495,14.163s-4.845,11.072-5.376,12.577,0,3.985-.215,4.845-2.48,1.606-2.8,2.8-.11,3.541-.325,3.971S201.307,452.972,201.68,454.047Z" transform="translate(-117.443 -247.878)"/>
    <path id="Path_902" data-name="Path 902" class="cls-7" d="M205.283,452.253c.354,1.075.9,7.311.9,7.311a8.119,8.119,0,0,0,5.734,7.469,12.09,12.09,0,0,0,3.44.688l3.46,3L234.785,482.5s5.954-10.99,4.339-11.062-10.928-7.884-10.928-7.884c-2.867-1.52-5.705-6.6-7.029-9.213a7.431,7.431,0,0,0,.172-.956c.578-4.869,12.62-23.51,12.62-23.51s4.654-5.481,6.47-15.635c.053-.229.086-.478.129-.712a7.8,7.8,0,0,0,.1-.956c.215-3.9-2.623-5.323-6-5.662h0a24.285,24.285,0,0,0-5.256.163,37.854,37.854,0,0,0-5.161,1.013c-1.434-.186-5,5.811-7.33,10.059h0c-1.257,2.3-2.16,4.1-2.16,4.1s-4.869,11.076-5.414,12.582,0,3.98-.215,4.845-2.48,1.606-2.8,2.8-.115,3.541-.33,3.971S204.92,451.177,205.283,452.253Z" transform="translate(-119.326 -246.944)"/>
    <path id="Path_903" data-name="Path 903" class="cls-4" d="M166.61,393.734c3.03,3.116,7.97,3.125,11.917,1.543s7.3-4.468,10.962-6.69c2.389-1.434,4.893-2.642,7.235-4.138h0c.344-.225.679-.449,1-.679,2.7-1.911,5.041-4.363,7.837-6.116a12.194,12.194,0,0,1,6.3-2.016,7.134,7.134,0,0,1,3.006.631,3.89,3.89,0,0,1,.478.248,13.056,13.056,0,0,1,2.533,1.911c.788.712,1.548,1.472,2.389,2.131.053-.229.086-.478.129-.712a7.8,7.8,0,0,0,.1-.956c.631.062,1.266.1,1.911.1a18.086,18.086,0,0,0,6.035-1.07,1.342,1.342,0,0,1,.043-.234c.688-3.612,1.911-7.44,4.836-9.471,1.687-1.18,4.382-1.658,6.714-2.556a18.349,18.349,0,1,0-34.577,1.988c-2.963-.387-7.168,0-12.9,2.418-13.475,5.734-16.629,6.021-16.629,6.021l-6.738,8.888a7.613,7.613,0,0,1,1.634,3.526C170.973,390.914,168.641,392.582,166.61,393.734Z" transform="translate(-99.179 -213.215)"/>
    <path id="Path_904" data-name="Path 904" class="cls-25" d="M233.346,352.644c-2.91,2.036-4.148,5.858-4.836,9.466a7.444,7.444,0,0,1-1.109,3.211c-1.543,2-4.649,1.434-6.666,0s-3.6-3.612-5.854-4.63c-2.991-1.348-6.5-.363-9.3,1.391s-5.137,4.2-7.841,6.112c-2.614,1.844-5.529,3.159-8.252,4.817-3.66,2.232-7.005,5.113-10.957,6.69s-8.888,1.577-11.913-1.539c2.031-1.128,4.363-2.8,4.205-5.208s-2.972-4.224-2.781-6.69,3.1-3.45,5.189-4.664c4.372-2.542,6.212-8.123,7.168-13.284.726-4.028,1.324-8.534,4.339-11.119,1.94-1.668,4.573-2.212,6.527-3.861,1.854-1.567,2.867-3.942,4.052-6.126A24.333,24.333,0,0,1,203.194,318c3.378-2.179,7.674-3.02,11.382-1.553,1.434.559,2.714,1.434,4.119,2.04,3.488,1.51,7.488,1.309,10.947,2.9,4.258,1.959,7.024,6.288,9.557,10.4,2.165,3.512,6.4,9.729,5.213,14.268C243.2,350.681,236.5,350.432,233.346,352.644Z" transform="translate(-99.184 -199.363)"/>
    <g id="Group_360" data-name="Group 360" class="cls-10" transform="translate(67.417 140.428)">
      <path id="Path_905" data-name="Path 905" d="M169.59,420.259a2.968,2.968,0,0,1,.1-.559c.769,1.214,1.73,2.389,1.821,3.823a3.3,3.3,0,0,1-.081.98C170.575,423.126,169.471,421.841,169.59,420.259Z" transform="translate(-168.147 -394.088)"/>
      <path id="Path_906" data-name="Path 906" d="M177.652,402.277c3.952-1.586,7.3-4.468,10.957-6.69,2.724-1.658,5.639-2.972,8.252-4.817,2.7-1.911,5.046-4.363,7.841-6.112s6.308-2.738,9.3-1.391c2.251,1.018,3.823,3.173,5.854,4.63s5.122,2.026,6.666.024a7.362,7.362,0,0,0,1.109-3.206c.688-3.612,1.911-7.435,4.836-9.471,3.163-2.208,9.858-1.959,11.072-6.618a7.167,7.167,0,0,0,.158-2.528,10.164,10.164,0,0,1,.707,5.968c-1.219,4.659-7.913,4.41-11.076,6.618-2.905,2.036-4.148,5.858-4.836,9.471a7.4,7.4,0,0,1-1.1,3.206c-1.548,2-4.654,1.434-6.69-.024s-3.6-3.612-5.854-4.63c-2.991-1.348-6.5-.358-9.3,1.391s-5.137,4.2-7.841,6.112c-2.614,1.849-5.529,3.159-8.252,4.817-3.66,2.236-7.005,5.113-10.957,6.69s-8.888,1.572-11.913-1.543A14.866,14.866,0,0,0,168.8,402.7,12.739,12.739,0,0,0,177.652,402.277Z" transform="translate(-166.58 -366.1)"/>
    </g>
    <path id="Path_907" data-name="Path 907" class="cls-26" d="M571.132,318.692l-19.592-19.7a10.4,10.4,0,0,0-14.775-.1L413.74,420.874,361.722,368.45a10.374,10.374,0,0,0-14.67-.105l-19.8,19.592a10.513,10.513,0,0,0-.1,14.775l79,79.618a10.513,10.513,0,0,0,14.775.105l150.1-148.972a10.4,10.4,0,0,0,.11-14.77Z" transform="translate(-181.448 -188.997)"/>
    <g id="Group_361" data-name="Group 361" class="cls-27" transform="translate(347.121 287.656)">
      <path id="Path_908" data-name="Path 908" class="cls-28" d="M764.969,674.229s-14.612-.879-12.9,9.361a2.5,2.5,0,0,0,1.3,2.628s0-.76,1.5-.5a6.6,6.6,0,0,0,1.591.076,3.282,3.282,0,0,0,1.94-.8h0s4.1-1.7,5.706-8.415c0,0,1.18-1.462,1.132-1.84l-2.466,1.056a4.4,4.4,0,0,1,.182,3.254s-.081-3.192-.554-3.116c-.1,0-1.281.616-1.281.616s1.434,3.1.354,5.352c0,0,.416-3.823-.808-5.127l-1.734,1.013s1.691,3.2.545,5.811c0,0,.3-4-.913-5.562l-1.572,1.223s1.591,3.154.621,5.323c0,0-.124-4.664-.956-5.017a9.54,9.54,0,0,0-1.586,1.715s1.089,2.289.416,3.5c0,0-.416-3.111-.755-3.12a10.3,10.3,0,0,0-1.515,3.464,7.463,7.463,0,0,1,1.18-3.665,4.137,4.137,0,0,0-2.1,1.089s.21-1.434,2.437-1.586a9.626,9.626,0,0,1,1.434-1.653,8.98,8.98,0,0,0-3.555.411s1.18-1.376,3.957-.75l1.553-1.266a12.808,12.808,0,0,0-4.148.038s1.434-1.214,4.568-.33l1.692-1.008a15.406,15.406,0,0,0-3.966-.344s1.563-.841,4.463.072l1.209-.545s-1.821-.358-2.356-.411-.559-.206-.559-.206a6.322,6.322,0,0,1,3.417.382A15.441,15.441,0,0,0,764.969,674.229Z" transform="translate(-751.928 -674.21)"/>
    </g>
    <g id="Group_362" data-name="Group 362" class="cls-27" transform="translate(331.275 216.147)">
      <path id="Path_909" data-name="Path 909" class="cls-28" d="M721.434,524.574s-7.421,12.62,2.49,15.735a2.5,2.5,0,0,0,2.934.038s-.664-.368.229-1.562a6.838,6.838,0,0,0,.793-1.381,3.343,3.343,0,0,0,.167-2.093h0s.349-4.43-4.907-8.9c0,0-.769-1.72-1.123-1.849l-.182,2.676a4.423,4.423,0,0,1,2.982,1.319s-2.867-1.376-3.03-.922c-.029.1-.033,1.434-.033,1.434s3.421.115,4.931,2.112c0,0-3.211-2.1-4.936-1.606l.115,2.007s3.622-.057,5.428,2.15c0,0-3.436-2.083-5.371-1.715l.378,1.959s3.536,0,5.022,1.859c0,0-4.21-2-4.9-1.433a10.95,10.95,0,0,0,.8,2.193s2.537.067,3.307,1.219c0,0-2.958-1.042-3.125-.745a10.52,10.52,0,0,0,2.389,2.924,7.477,7.477,0,0,1-2.729-2.719,4.119,4.119,0,0,0,0,2.389s-1.2-.851-.3-2.867a9.509,9.509,0,0,1-.827-2.031,9.065,9.065,0,0,0-1.247,3.345s-.688-1.677,1.128-3.871l-.42-1.959a12.935,12.935,0,0,0-1.849,3.718s-.435-1.821,1.782-4.219l-.134-1.964a15.228,15.228,0,0,0-2.1,3.374s-.043-1.773,2.083-3.942l.067-1.324s-1.147,1.462-1.434,1.911-.435.406-.435.406a6.285,6.285,0,0,1,1.887-2.867A15.945,15.945,0,0,0,721.434,524.574Z" transform="translate(-718.766 -524.56)"/>
    </g>
    <g id="Group_363" data-name="Group 363" class="cls-27" transform="translate(284.864 115.465)">
      <path id="Path_910" data-name="Path 910" class="cls-28" d="M624.307,313.87s-7.416,12.625,2.49,15.735a2.494,2.494,0,0,0,2.934.038s-.664-.368.234-1.563a6.8,6.8,0,0,0,.788-1.381,3.311,3.311,0,0,0,.167-2.093h0s.354-4.43-4.907-8.9c0,0-.769-1.715-1.123-1.844l-.182,2.671a4.415,4.415,0,0,1,2.982,1.319s-2.867-1.376-3.025-.922c-.034.1-.034,1.434-.034,1.434s3.417.115,4.927,2.112c0,0-3.211-2.1-4.936-1.606l.119,2.007s3.617-.057,5.423,2.15c0,0-3.436-2.079-5.371-1.715l.377,1.959s3.536,0,5.027,1.864c0,0-4.215-2.007-4.908-1.434a10.712,10.712,0,0,0,.808,2.189s2.533.067,3.3,1.218c0,0-2.958-1.042-3.12-.745a10.36,10.36,0,0,0,2.389,2.924,7.482,7.482,0,0,1-2.733-2.714,4.147,4.147,0,0,0,0,2.361s-1.2-.851-.3-2.891a9.509,9.509,0,0,1-.827-2.031,9.066,9.066,0,0,0-1.247,3.345s-.688-1.677,1.133-3.871l-.425-1.959a12.837,12.837,0,0,0-1.845,3.718s-.44-1.821,1.778-4.219l-.134-1.964a15.228,15.228,0,0,0-2.1,3.374s-.043-1.773,2.083-3.937l.067-1.328s-1.147,1.462-1.433,1.911-.435.406-.435.406a6.317,6.317,0,0,1,1.911-2.867A15.294,15.294,0,0,0,624.307,313.87Z" transform="translate(-621.641 -313.86)"/>
    </g>
    <g id="Group_364" data-name="Group 364" class="cls-27" transform="translate(112.168 19.863)">
      <path id="Path_911" data-name="Path 911" class="cls-28" d="M275.823,113.79s-27.619,20.069-9.337,35.967c0,0,2.069,3.765,6.241,2.814,0,0-1.08-1.4,1.954-3.125a15.563,15.563,0,0,0,2.972-2.217,7.693,7.693,0,0,0,2.308-4.3h0s4.884-9.146-2.193-23.605c0,0-.043-4.391-.688-5l-2.867,5.553s4.152,1.954,5.151,5.6c0,0-4.879-5.634-5.619-4.778-.148.167-1.4,3.01-1.4,3.01s7.211,3.431,8.577,9.108c0,0-4.912-7.493-9.079-8.037l-1.62,4.4s7.794,3.254,9.6,9.657c0,0-5.409-7.645-9.891-8.673l-1.013,4.544s7.54,3.321,9.007,8.658c0,0-7.168-8.209-9.17-7.6,0,0-.679,4.224-.32,5.433,0,0,5.361,2.509,5.935,5.686,0,0-5.357-4.979-5.987-4.5,0,0,.583,5.734,2.418,8.491a17.47,17.47,0,0,1-3.311-8.353,9.671,9.671,0,0,0-2.165,5.07s-1.778-2.939,2.04-6.465c0,0-.272-4.492.134-5.113,0,0-4.262,2.948-5.8,6.006,0,0,.091-4.224,6.021-7.22l.917-4.583s-5.834,3.6-7.407,6.212c0,0,.76-4.3,7.732-7.368l1.548-4.324s-5.256,2.719-7.645,5.256c0,0,1.563-3.823,8.123-6.484l1.371-2.771s-3.823,2.055-4.85,2.743-1.314.478-1.314.478a14.7,14.7,0,0,1,6.718-4.382S276.143,114.015,275.823,113.79Z" transform="translate(-260.232 -113.79)"/>
    </g>
    <g id="Group_365" data-name="Group 365" class="cls-27" transform="translate(59.667 81.933)">
      <path id="Path_912" data-name="Path 912" class="cls-28" d="M191.623,247.84s-35.728-15.023-40.411,12.066c0,0-2.442,4.224.956,7.712,0,0,.731-1.873,4.186.062a17.762,17.762,0,0,0,3.9,1.586,8.773,8.773,0,0,0,5.553-.3h0s11.745-.636,21.632-16.008c0,0,4.234-2.619,4.449-3.6l-7.086.478s.545,5.185-2.389,8.3c0,0,2.6-8.047,1.352-8.271-.253-.048-3.742.411-3.742.411s.9,9.017-3.823,13.681c0,0,4.387-9.17,2.475-13.518l-5.223,1.008s1.434,9.485-3.737,15c0,0,4.248-9.748,2.609-14.7l-5.008,1.682s1.209,9.275-3.116,13.857c0,0,3.775-11.76,2-13.38,0,0-4.5,1.825-5.467,2.867,0,0,.717,6.69-2.036,9.1,0,0,1.692-8.123.855-8.458,0,0-5.232,3.937-6.828,7.335a19.87,19.87,0,0,1,6.169-8.123,10.955,10.955,0,0,0-6.212.874s1.811-3.445,7.478-1.811c0,0,4.2-2.91,5.041-2.867,0,0-5.361-2.389-9.237-2.093,0,0,4.152-2.389,10.546,1.6l4.984-1.806s-6.924-3.55-10.4-3.536c0,0,4.616-1.787,11.7,3.182l5.113-1.056s-5.734-3.512-9.6-4.324c0,0,4.64-.736,11.076,4.086l3.5-.291s-4.234-2.494-5.514-3.1-1.223-1-1.223-1a16.677,16.677,0,0,1,8.2,3.947S191.59,248.284,191.623,247.84Z" transform="translate(-150.363 -243.685)"/>
    </g>
    <g id="Group_366" data-name="Group 366" class="cls-27" transform="translate(44.834 28.783)">
      <path id="Path_913" data-name="Path 913" class="cls-28" d="M154.021,151.83s-12.668-29.277-30.878-15.85a5.419,5.419,0,0,0-3.823,5.113s1.5-.7,2.447,2.423a14.842,14.842,0,0,0,1.434,3.159,7.2,7.2,0,0,0,3.469,2.987h0s7.34,6.317,21.981,2.814c0,0,4.009.855,4.7.4l-4.477-3.761s-2.628,3.393-6.155,3.555c0,0,6.131-3.3,5.514-4.143-.124-.172-2.456-1.883-2.456-1.883s-4.6,5.868-10.035,5.959c0,0,7.832-2.953,9.17-6.618l-3.679-2.389s-4.621,6.465-10.828,6.8c0,0,8.076-3.369,9.925-7.249l-3.933-1.83s-4.568,6.212-9.734,6.446c0,0,8.94-4.836,8.8-6.809,0,0-3.713-1.481-4.888-1.4,0,0-3.378,4.372-6.394,4.248,0,0,5.634-3.866,5.323-4.54,0,0-5.352-.64-8.233.478a16.306,16.306,0,0,1,8.291-1.309,8.953,8.953,0,0,0-4.181-3.01s3.044-1.018,5.476,3.178c0,0,4.152.669,4.635,1.166,0,0-1.816-4.487-4.3-6.508,0,0,3.823.956,5.357,6.962l3.99,1.773s-2.088-6.059-4.162-8.023c0,0,3.761,1.567,5.137,8.553l3.627,2.289s-1.4-5.352-3.235-8.042c0,0,3.173,2.208,4.253,8.74l2.246,1.816s-1.1-3.89-1.515-4.979-.153-1.29-.153-1.29a13.738,13.738,0,0,1,2.623,7.015S153.753,152.083,154.021,151.83Z" transform="translate(-119.32 -132.456)"/>
    </g>
    <g id="Group_367" data-name="Group 367" class="cls-27" transform="translate(311.805 52.585)">
      <path id="Path_914" data-name="Path 914" class="cls-28" d="M692.642,193.073s-2.987-14.335-12.424-9.982a2.494,2.494,0,0,0-2.2,1.945s.741-.177.879,1.314a6.853,6.853,0,0,0,.339,1.553,3.345,3.345,0,0,0,1.286,1.663h0s2.714,3.517,9.609,3.3c0,0,1.725.755,2.079.612l-1.668-2.1a4.411,4.411,0,0,1-3.092,1.027s3.058-.913,2.867-1.352c-.043-.091-.932-1.075-.932-1.075s-2.609,2.212-5.07,1.749c0,0,3.789-.6,4.735-2.126l-1.434-1.41s-2.647,2.475-5.466,2.05c0,0,3.942-.765,5.132-2.337l-1.6-1.195s-2.628,2.361-4.974,1.993c0,0,4.468-1.348,4.587-2.246a9.519,9.519,0,0,0-2.069-1.08s-1.911,1.653-3.264,1.319c0,0,2.867-1.214,2.814-1.548a10.3,10.3,0,0,0-3.746-.549,7.507,7.507,0,0,1,3.847.177,4.1,4.1,0,0,0-1.6-1.739s1.462-.177,2.169,1.911a9.369,9.369,0,0,1,1.974.956,9.2,9.2,0,0,0-1.328-3.345s1.634.779,1.763,3.627l1.629,1.166a12.813,12.813,0,0,0-1.128-3.995s1.543,1.056,1.515,4.3l1.434,1.367a15.323,15.323,0,0,0-.707-3.914s1.219,1.285,1.1,4.3l.841,1.027s-.129-1.849-.215-2.389.048-.6.048-.6a6.316,6.316,0,0,1,.53,3.4A16.035,16.035,0,0,0,692.642,193.073Z" transform="translate(-678.02 -182.268)"/>
    </g>
    <g id="Group_368" data-name="Group 368" class="cls-27" transform="translate(260.374 318.323)">
      <path id="Path_915" data-name="Path 915" class="cls-28" d="M585.017,749.193s-2.982-14.335-12.424-9.982a2.5,2.5,0,0,0-2.2,1.945s.741-.177.879,1.314a6.592,6.592,0,0,0,.344,1.553,3.344,3.344,0,0,0,1.281,1.663h0s2.714,3.517,9.614,3.3c0,0,1.725.755,2.074.612l-1.663-2.1a4.417,4.417,0,0,1-3.1,1.027s3.058-.913,2.867-1.352c-.038-.091-.932-1.075-.932-1.075s-2.609,2.212-5.07,1.749c0,0,3.794-.6,4.735-2.126l-1.433-1.434s-2.619,2.485-5.447,2.045c0,0,3.942-.765,5.132-2.337l-1.6-1.195s-2.623,2.361-4.97,1.993c0,0,4.468-1.343,4.587-2.246a9.637,9.637,0,0,0-2.069-1.08s-1.911,1.653-3.268,1.319c0,0,2.867-1.214,2.814-1.548a10.3,10.3,0,0,0-3.746-.549,7.521,7.521,0,0,1,3.851.177,4.133,4.133,0,0,0-1.6-1.739s1.458-.177,2.165,1.911a9.39,9.39,0,0,1,1.978.956,9.192,9.192,0,0,0-1.328-3.345s1.634.779,1.759,3.627l1.634,1.166a12.86,12.86,0,0,0-1.132-3.995s1.548,1.056,1.52,4.3l1.434,1.367a15.192,15.192,0,0,0-.712-3.914s1.223,1.285,1.1,4.3l.841,1.027s-.134-1.849-.22-2.389.048-.593.048-.593a6.293,6.293,0,0,1,.53,3.4A17.924,17.924,0,0,0,585.017,749.193Z" transform="translate(-570.39 -738.388)"/>
    </g>
  </g>
</svg>
