<svg xmlns="http://www.w3.org/2000/svg" xmlns:xlink="http://www.w3.org/1999/xlink" width="2986.13" height="2025.787" viewBox="0 0 2986.13 2025.787">
  <defs>
    <filter id="Grey_bg" x="692.477" y="596" width="1518.282" height="714.664" filterUnits="userSpaceOnUse">
      <feOffset dx="6" dy="8" input="SourceAlpha"/>
      <feGaussianBlur stdDeviation="8" result="blur"/>
      <feFlood flood-opacity="0.161"/>
      <feComposite operator="in" in2="blur"/>
      <feComposite in="SourceGraphic"/>
    </filter>
    <filter id="Path_725" x="174.052" y="284.532" width="2403.739" height="1305.043" filterUnits="userSpaceOnUse">
      <feOffset dx="20" dy="20" input="SourceAlpha"/>
      <feGaussianBlur stdDeviation="10" result="blur-2"/>
      <feFlood flood-opacity="0.161"/>
      <feComposite operator="in" in2="blur-2"/>
      <feComposite in="SourceGraphic"/>
    </filter>
    <filter id="Path_724" x="0" y="0" width="2986.13" height="2016.787" filterUnits="userSpaceOnUse">
      <feOffset dx="20" dy="20" input="SourceAlpha"/>
      <feGaussianBlur stdDeviation="10" result="blur-3"/>
      <feFlood flood-opacity="0.161"/>
      <feComposite operator="in" in2="blur-3"/>
      <feComposite in="SourceGraphic"/>
    </filter>
    <filter id="Path_742" x="503.486" y="1730.498" width="2399.069" height="295.289" filterUnits="userSpaceOnUse">
      <feOffset dx="20" dy="20" input="SourceAlpha"/>
      <feGaussianBlur stdDeviation="10" result="blur-4"/>
      <feFlood flood-opacity="0.161"/>
      <feComposite operator="in" in2="blur-4"/>
      <feComposite in="SourceGraphic"/>
    </filter>
  </defs>
  <g id="custReviews_body" data-name="custReviews body" transform="translate(10 10)">
    <g transform="matrix(1, 0, 0, 1, -10, -10)" filter="url(#Grey_bg)">
      <path id="Grey_bg-2" data-name="Grey bg" d="M555.186,4961.024c4.805-.463-4.7.309,0,0,231.134-15.171,373.1,154.517,556.014,105,186.646-50.53,632.3-147.312,669.031,100.158s-344.567,501.106-504.381,455.1-212.51-212.964-544.245-157.271-402.3-65.374-415.585-137.2S314.918,4984.169,555.186,4961.024Z" transform="translate(398.05 -4348.06)" fill="#3f3d56"/>
    </g>
    <g id="Customer_review" data-name="Customer review" transform="translate(700.477 602.001)">
      <text id="_" data-name="&quot;" transform="translate(192.885 335.857)" fill="#57d16e" font-size="277" font-family="Poppins-Regular, Poppins" letter-spacing="0.02em"><tspan x="-41.55" y="0">&quot;</tspan></text>
      <text id="_2" data-name="&quot;" transform="translate(1064.885 605.857)" fill="#57d16e" font-size="277" font-family="Poppins-Regular, Poppins" letter-spacing="0.02em"><tspan x="-41.55" y="0">&quot;</tspan></text>
      <text id="Aliquam_faucibus_odio_nec_commodo_aliquam_neque_felis_placerat_dui_a_porta_ante_lectus_dapibus_est._" data-name="Aliquam faucibus, odio nec commodo aliquam, neque felis placerat dui, a porta ante lectus dapibus est. " transform="translate(233.885 198.857)" fill="#fff" font-size="42" font-family="Poppins-Bold, Poppins" font-weight="700"><tspan x="17.781" y="44">Aliquam faucibus, odio nec commodo </tspan><tspan x="49.617" y="107">aliquam, neque felis placerat dui, a </tspan><tspan x="105.96" y="170">porta ante lectus dapibus est. </tspan></text>
    </g>
    <text id="Customer_name" data-name="Customer name" transform="translate(1518.361 1054.858)" fill="#6ed782" font-size="42" font-family="Poppins-Bold, Poppins" font-weight="700"><tspan x="15.945" y="44">- Aaron Fuller</tspan></text>
    <g transform="matrix(1, 0, 0, 1, -10, -10)" filter="url(#Path_725)">
      <path id="Path_725-2" data-name="Path 725" d="M604.253,367.68c6.436-9.465,77.485-118.963,44.133-226.1C617.246,48.387,524.343,16.689,421.543,9.815c-77.235-3.029-175.393,3.034-240.518,16.3C39.421,56.433,111.144,40.362-21.894,72.1s-192.9-22.375-253.043-42.85C-332.3,8.438,353.138-172.1,664.511-211.69c30.3-3.853,363.22,454.166,338.563,594.428C986.315,478.072,149.118,848.715-13.048,891.172c-1.636.428-1053.657,5.1-1291.733-98.468-123.094-53.547,99.407-500.584,399.407-766.593C-636.229-212.539-297.222-270.308-211.1-352.051c13.053-12.39,566.7,43.268,617.717,190.808C467.5,14.838-125.535,88.664-274.937,30.417-675.73-125.836-759.261,72.256-775.929,113.348c-65,160.247-39.25,294.776,78.481,343.149,102.374,35.445,175.956,24.568,233.794,19.581,75.986-9.03,209.925-45.1,329.424-1.414C-33.137,510.5-24.819,523.932,88.272,598.632c88.938,53.106,147.947,29.543,223.03,6.119C456.337,548.718,560.336,436.207,604.253,367.68Z" transform="translate(1523.41 648.26)" fill="#6ed782"/>
    </g>
    <g transform="matrix(1, 0, 0, 1, -10, -10)" filter="url(#Path_724)">
      <path id="Path_724-2" data-name="Path 724" d="M943.9,470.021c22.337-46.946,65.581-167.71,20.727-272.727C909.029,82.849,780.478,72.973,676.23,77.883c-90.391,4.257-215.452,29.823-236.866,35.635-167.787,45.176-185.786,54.122-282.291,79.732S-32.234,175.7-107.608,136.044c-48.917-25.737,1312.823-301.19,1355.974-319.782,35.451-4.74,181.574,563.409,152.728,735.948-5.96,35.651,234.782,97.547-68.729,372.348-235.368,213.1,342.334,585.981,54.768,475-421.326-179.208-1295.339,237.723-2214.465,0-1.914.527-193.045-215.645-471.574-343.043-144.009-65.869,116.3-615.776,467.273-943C-516.754-180.05-2.871-195.462,97.881-296.015c15.271-15.241,1229.565-308.23,1289.252-126.739,56.417,171.546,493.616,33.919-138.767,274.037-85.391,32.423,179.18-71.033,176.8-69.48C1209.1-77.242-90.531,143.339-107.608,136.044-524.77-63.393-662.577,193.71-680.1,236.719-779.557,484.077-708.6,625.4-571.85,677.266c123.166,38.1,255.758,11.677,320.062,0,91.5-16.635,209.866-30.712,349.669,23.028,108.772,42.229,124.046,71.732,241.4,132.976,86.088,45.633,156.033,26.441,223.958,0C791.658,727.058,900.06,554.384,943.9,470.021Z" transform="translate(1349.36 491.86)" fill="#fff"/>
    </g>
    <ellipse id="Ellipse_119" data-name="Ellipse 119" cx="20.077" cy="20.077" rx="20.077" ry="20.077" transform="translate(1282.13 1277.423)" fill="#57d16e" opacity="0.74"/>
    <ellipse id="Ellipse_120" data-name="Ellipse 120" cx="36.577" cy="36.577" rx="36.577" ry="36.577" transform="translate(783.13 1297.423)" fill="#3f3d56" opacity="0.63"/>
    <ellipse id="Ellipse_121" data-name="Ellipse 121" cx="63.077" cy="63.077" rx="63.077" ry="63.077" transform="translate(1088.13 1587.423)" fill="#57d16e" opacity="0.74"/>
    <ellipse id="Ellipse_122" data-name="Ellipse 122" cx="28.577" cy="28.577" rx="28.577" ry="28.577" transform="translate(1705.13 1472.423)" fill="#3f3d56" opacity="0.63"/>
    <ellipse id="Ellipse_123" data-name="Ellipse 123" cx="42.077" cy="42.077" rx="42.077" ry="42.077" transform="translate(2249.129 481.423)" fill="#57d16e" opacity="0.81"/>
    <g id="custReviews_Head" data-name="custReviews Head" transform="translate(920.074 381.858)">
      <text id="WHAT_OUR_CUSTOMERS_SAY_" data-name="WHAT OUR CUSTOMERS SAY " transform="translate(520.287 62)" fill="#3f3d56" font-size="59" font-family="Poppins-Bold, Poppins" font-weight="700"><tspan x="-417.042" y="0">WHAT OUR CUSTOMERS SAY </tspan></text>
      <line id="Line_7" data-name="Line 7" x1="76.444" transform="translate(0 41.28)" fill="none" stroke="#707070" stroke-width="3"/>
      <line id="Line_8" data-name="Line 8" x1="76.444" transform="translate(955.04 41.28)" fill="none" stroke="#707070" stroke-width="3"/>
    </g>
    <g id="women_watching_Illustration" data-name="women watching Illustration" transform="translate(1889.833 1181.863)">
      <path id="Path_60" data-name="Path 60" d="M894.706,753.453c-14.7,19.683-45.206,21.754-45.206,21.754s-6.68-29.84,8.018-49.523,45.206-21.754,45.206-21.754S909.4,733.771,894.706,753.453Z" transform="translate(-622.89 -285.033)" fill="#3f3d56"/>
      <path id="Path_61" data-name="Path 61" d="M820.486,760.394c9.7,12.988,29.83,14.355,29.83,14.355s4.408-19.691-5.291-32.679-29.83-14.355-29.83-14.355S810.788,747.407,820.486,760.394Z" transform="translate(-623.541 -284.575)" fill="#3f3d56"/>
      <path id="Path_62" data-name="Path 62" d="M593.018,650.088h-262.7v-2.147H593.407Z" transform="translate(-330.318 -158.728)" fill="#3f3d56"/>
      <path id="Path_64" data-name="Path 64" d="M720.124,471.205l-2.875,16.53s-13.655,38.092-10.062,74.027,6.468,61.09,6.468,61.09-10.781,90.557-6.468,122.9c0,0,11.5,15.812,26.592-.719l11.5-119.306L757.5,540.92l10.781,94.87L775.464,743.6s10.062,10.781,25.155,1.437l-1.437-122.181s12.937-103.494,10.781-112.119-16.53-42.4-16.53-42.4Z" transform="translate(-625.62 -289.569)" fill="#3f3d56"/>
      <path id="Path_65" data-name="Path 65" d="M712.874,741.258l.719,15.093s-10.954,17.085,2.7,17.085h0c9.876-.031,18.8,4.413,17.634-5.393l-1.649-13.848L729.4,739.1Z" transform="translate(-625.557 -284.356)" fill="#2f2e41"/>
      <path id="Path_66" data-name="Path 66" d="M794.919,741.258l-.719,15.093s10.954,17.085-2.7,17.085h0c-9.876-.031-18.8,4.413-17.634-5.393l1.649-13.848,2.875-15.093Z" transform="translate(-624.319 -284.356)" fill="#2f2e41"/>
      <circle id="Ellipse_52" data-name="Ellipse 52" cx="22.999" cy="22.999" r="22.999" transform="translate(104.925 10.943)" fill="#9f616a"/>
      <path id="Path_67" data-name="Path 67" d="M742.906,341.095s2.875,33.061-5.75,38.092,35.935,2.875,35.935,2.875-10.062-38.81-9.343-43.123Z" transform="translate(-625.045 -292.06)" fill="#ffb8b8"/>
      <path id="Path_68" data-name="Path 68" d="M787.116,361.964s-28.748-12.937-69,0c0,0-17.608,4.672-19.764,10.421s24.077,71.512,21.2,83.011a62.417,62.417,0,0,0-1.437,21.561s63.246-8.625,78.339-2.156c0,0-5.75-18.686-4.312-31.623S805.8,369.869,805.8,369.869,799.335,363.4,787.116,361.964Z" transform="translate(-625.773 -291.727)" fill="#6ed782" stroke="#707070" stroke-width="1"/>
      <path id="Path_69" data-name="Path 69" d="M810.2,529.677s-10.781,33.061.719,33.779,6.468-25.155,6.468-25.155l-1.437-8.625Z" transform="translate(-623.706 -288.388)" fill="#9f616a"/>
      <path id="Path_70" data-name="Path 70" d="M789.017,373.924l15.093-4.312s8.625,6.468,8.625,15.093S811.3,448.67,811.3,448.67l10.781,82.652-16.53,5.75-19.405-89.12Z" transform="translate(-624.081 -291.469)" fill="#6ed782" stroke="#707070" stroke-width="1"/>
      <path id="Path_71" data-name="Path 71" d="M694.631,529.677s10.781,33.061-.719,33.779-6.468-25.155-6.468-25.155l1.437-8.625Z" transform="translate(-626.002 -288.388)" fill="#9f616a"/>
      <path id="Path_72" data-name="Path 72" d="M698.642,372.293c-1.708,7.218-4.669,76.377-4.669,76.377l-10.781,82.652,16.53,5.75,19.405-89.12S700.35,365.075,698.642,372.293Z" transform="translate(-626.063 -291.469)" fill="#6ed782" stroke="#707070" stroke-width="1"/>
      <path id="Path_73" data-name="Path 73" d="M763.347,293.108s-20.124-3.594-24.436,23-2.156,36.654-9.343,39.529-9.343,6.468-7.906,12.218,6.468,7.906-.719,18.686,15.812,7.906,34.5,16.53,61.809-3.594,56.059-13.655-15.093-5.75-10.781-17.249,5.75-13.655,0-20.843S803.595,299.576,763.347,293.108Z" transform="translate(-625.362 -292.945)" fill="#2f2e41"/>
    </g>
    <g transform="matrix(1, 0, 0, 1, -10, -10)" filter="url(#Path_742)">
      <path id="Path_742-2" data-name="Path 742" d="M1387.133,1239.64c-7.532,6.819,278.364,267.347,0,159.919-421.326-179.208-1295.339,237.723-2214.465,0-1.914.527-4.61-55.614,0-159.919C-216.611,1394.765-259.592,1442.568,1387.133,1239.64Z" transform="translate(1343.36 500.86)" fill="#fff"/>
    </g>
  </g>
</svg>
