<svg xmlns="http://www.w3.org/2000/svg" xmlns:xlink="http://www.w3.org/1999/xlink" width="1980.884" height="1793.158" viewBox="0 0 1980.884 1793.158"><defs><filter id="a" x="86.099" y="206.476" width="1833.868" height="1047.701" filterUnits="userSpaceOnUse"><feOffset dx="6" dy="8" input="SourceAlpha"/><feGaussianBlur stdDeviation="8" result="b"/><feFlood flood-opacity="0.161"/><feComposite operator="in" in2="b"/><feComposite in="SourceGraphic"/></filter><filter id="c" x="35.852" y="53.218" width="1846.644" height="1349.657" filterUnits="userSpaceOnUse"><feOffset dx="20" dy="20" input="SourceAlpha"/><feGaussianBlur stdDeviation="10" result="d"/><feFlood flood-opacity="0.161"/><feComposite operator="in" in2="d"/><feComposite in="SourceGraphic"/></filter><filter id="e" x="0" y="0" width="1980.884" height="1774.077" filterUnits="userSpaceOnUse"><feOffset dx="20" dy="20" input="SourceAlpha"/><feGaussianBlur stdDeviation="10" result="f"/><feFlood flood-opacity="0.161"/><feComposite operator="in" in2="f"/><feComposite in="SourceGraphic"/></filter><filter id="g" x="0.446" y="1497.819" width="1980.198" height="295.339" filterUnits="userSpaceOnUse"><feOffset dx="20" dy="20" input="SourceAlpha"/><feGaussianBlur stdDeviation="10" result="h"/><feFlood flood-opacity="0.161"/><feComposite operator="in" in2="h"/><feComposite in="SourceGraphic"/></filter></defs><g transform="translate(10 10)"><g transform="matrix(1, 0, 0, 1, -10, -10)" filter="url(#a)"><path d="M520.372,4806c292.483-25.035,436.218,128.231,601.207,83.565,186.646-50.53,835.106,31.487,871.838,278.957S1399.777,5845.5,1239.963,5799.5s-178.942-197.29-510.677-141.6S224.934,5421,211.644,5349.174,227.888,4831.033,520.372,4806Z" transform="translate(-104.99 -4580.74)" fill="#3f3d56"/></g><g transform="translate(197.436 369.321)"><text transform="translate(192.885 335.857)" fill="#57d16e" font-size="277" font-family="Poppins-Regular, Poppins" letter-spacing="0.02em"><tspan x="-41.55" y="0">&quot;</tspan></text><text transform="translate(1064.885 605.857)" fill="#57d16e" font-size="277" font-family="Poppins-Regular, Poppins" letter-spacing="0.02em"><tspan x="-41.55" y="0">&quot;</tspan></text><text transform="translate(233.885 198.857)" fill="#fff" font-size="42" font-family="Poppins-Bold, Poppins" font-weight="700"><tspan x="17.781" y="44">Aliquam faucibus, odio nec commodo </tspan><tspan x="49.617" y="107">aliquam, neque felis placerat dui, a </tspan><tspan x="105.96" y="170">porta ante lectus dapibus est. </tspan></text></g><text transform="translate(1015.321 822.178)" fill="#6ed782" font-size="42" font-family="Poppins-Bold, Poppins" font-weight="700"><tspan x="15.945" y="44">- Aaron Fuller</tspan></text><g transform="matrix(1, 0, 0, 1, -10, -10)" filter="url(#c)"><path d="M483.59-10.021C269.251-28.5,367.24-212.474,253.249-211.69s99.889,39.594,411.262,0c30.3-3.853,169.354,510.392,144.7,650.654C792.45,534.3,149.118,848.715-13.048,891.172c-1.636.428-583.376,103.566-821.453,0-79.887-34.752-128.357-249.435-129.457-487.515-.6-129.091-46.718-284.175,58.583-377.546C-636.229-212.539-297.222-270.308-211.1-352.051-198.05-364.441,818.112.212,483.59-10.021S64.981,212.243-263.942,49.29s-477.486-73.628-531.1,100.343-21.182,314.644,155.234,326.25,408.274-126.847,582.368,26.356,367.831,236.1,583.886-12.3S697.928,8.455,483.59-10.021Z" transform="translate(1020.37 415.58)" fill="#6ed782"/></g><g transform="matrix(1, 0, 0, 1, -10, -10)" filter="url(#e)"><path d="M885.8,192.4c-66.737-108.8,136.555-474.2,198.265-437.264.85,14.629-1.54,197.367,0,217.959,1.567,20.955-1.136-27.89,0,0-.388,330.579.115,1210.179-.84,1324.353C613.86,1304.287-91.112,1589.976-827.331,1399.56c-.228.063-3.135-2.943-8.695-8.652-.575-67.07-.193-925.819.169-1276.007,5.668-5.284,310.773-136.591,316.635-141.8C-206.265-305.01-88.247-184.735,300.838-153.917c250.011,19.8,640.241-121.389,783.223-90.942,3.288,89.4-111.544,616.123-198.265,437.264C795.773,15.053,524.839,67.056,320.568,164.55S80.184,227.8-233.052,94.911s-449.963,117.726-465.9,266.635,12.8,263.295,149.543,315.156c123.166,38.1,231.992,4.508,403.409-25.847s299.443,118.96,446.842,200.2,313.674-19.642,435.236-143.918S986.982,378.721,885.8,192.4Z" transform="translate(846.32 259.18)" fill="#fff"/></g><ellipse cx="20.077" cy="20.077" rx="20.077" ry="20.077" transform="translate(779.089 1044.742)" fill="#57d16e" opacity="0.74"/><ellipse cx="36.577" cy="36.577" rx="36.577" ry="36.577" transform="translate(280.089 1064.742)" fill="#3f3d56" opacity="0.63"/><ellipse cx="63.077" cy="63.077" rx="63.077" ry="63.077" transform="translate(585.089 1354.742)" fill="#57d16e" opacity="0.74"/><ellipse cx="28.577" cy="28.577" rx="28.577" ry="28.577" transform="translate(1202.089 1239.742)" fill="#3f3d56" opacity="0.63"/><ellipse cx="42.077" cy="42.077" rx="42.077" ry="42.077" transform="translate(1746.089 248.743)" fill="#57d16e" opacity="0.81"/><g transform="translate(417.034 149.178)"><text transform="translate(520.287 62)" fill="#3f3d56" font-size="59" font-family="Poppins-Bold, Poppins" font-weight="700"><tspan x="-417.042" y="0">WHAT OUR CUSTOMERS SAY </tspan></text><line x1="76.444" transform="translate(0 41.28)" fill="none" stroke="#707070" stroke-width="3"/><line x1="76.444" transform="translate(955.04 41.28)" fill="none" stroke="#707070" stroke-width="3"/></g><g transform="translate(1386.792 949.182)"><path d="M894.706,753.453c-14.7,19.683-45.206,21.754-45.206,21.754s-6.68-29.84,8.018-49.523,45.206-21.754,45.206-21.754S909.4,733.771,894.706,753.453Z" transform="translate(-622.89 -285.033)" fill="#3f3d56"/><path d="M820.486,760.394c9.7,12.988,29.83,14.355,29.83,14.355s4.408-19.691-5.291-32.679-29.83-14.355-29.83-14.355S810.788,747.407,820.486,760.394Z" transform="translate(-623.541 -284.575)" fill="#3f3d56"/><path d="M593.018,650.088h-262.7v-2.147H593.407Z" transform="translate(-330.318 -158.728)" fill="#3f3d56"/><path d="M720.124,471.205l-2.875,16.53s-13.655,38.092-10.062,74.027,6.468,61.09,6.468,61.09-10.781,90.557-6.468,122.9c0,0,11.5,15.812,26.592-.719l11.5-119.306L757.5,540.92l10.781,94.87L775.464,743.6s10.062,10.781,25.155,1.437l-1.437-122.181s12.937-103.494,10.781-112.119-16.53-42.4-16.53-42.4Z" transform="translate(-625.62 -289.569)" fill="#3f3d56"/><path d="M712.874,741.258l.719,15.093s-10.954,17.085,2.7,17.085h0c9.876-.031,18.8,4.413,17.634-5.393l-1.649-13.848L729.4,739.1Z" transform="translate(-625.557 -284.356)" fill="#2f2e41"/><path d="M794.919,741.258l-.719,15.093s10.954,17.085-2.7,17.085h0c-9.876-.031-18.8,4.413-17.634-5.393l1.649-13.848,2.875-15.093Z" transform="translate(-624.319 -284.356)" fill="#2f2e41"/><circle cx="22.999" cy="22.999" r="22.999" transform="translate(104.925 10.943)" fill="#9f616a"/><path d="M742.906,341.095s2.875,33.061-5.75,38.092,35.935,2.875,35.935,2.875-10.062-38.81-9.343-43.123Z" transform="translate(-625.045 -292.06)" fill="#ffb8b8"/><path d="M787.116,361.964s-28.748-12.937-69,0c0,0-17.608,4.672-19.764,10.421s24.077,71.512,21.2,83.011a62.417,62.417,0,0,0-1.437,21.561s63.246-8.625,78.339-2.156c0,0-5.75-18.686-4.312-31.623S805.8,369.869,805.8,369.869,799.335,363.4,787.116,361.964Z" transform="translate(-625.773 -291.727)" fill="#6ed782" stroke="#707070" stroke-width="1"/><path d="M810.2,529.677s-10.781,33.061.719,33.779,6.468-25.155,6.468-25.155l-1.437-8.625Z" transform="translate(-623.706 -288.388)" fill="#9f616a"/><path d="M789.017,373.924l15.093-4.312s8.625,6.468,8.625,15.093S811.3,448.67,811.3,448.67l10.781,82.652-16.53,5.75-19.405-89.12Z" transform="translate(-624.081 -291.469)" fill="#6ed782" stroke="#707070" stroke-width="1"/><path d="M694.631,529.677s10.781,33.061-.719,33.779-6.468-25.155-6.468-25.155l1.437-8.625Z" transform="translate(-626.002 -288.388)" fill="#9f616a"/><path d="M698.642,372.293c-1.708,7.218-4.669,76.377-4.669,76.377l-10.781,82.652,16.53,5.75,19.405-89.12S700.35,365.075,698.642,372.293Z" transform="translate(-626.063 -291.469)" fill="#6ed782" stroke="#707070" stroke-width="1"/><path d="M763.347,293.108s-20.124-3.594-24.436,23-2.156,36.654-9.343,39.529-9.343,6.468-7.906,12.218,6.468,7.906-.719,18.686,15.812,7.906,34.5,16.53,61.809-3.594,56.059-13.655-15.093-5.75-10.781-17.249,5.75-13.655,0-20.843S803.595,299.576,763.347,293.108Z" transform="translate(-625.362 -292.945)" fill="#2f2e41"/></g><g transform="matrix(1, 0, 0, 1, -10, -10)" filter="url(#g)"><path d="M1090.032,1247.311c0,24.735.657,46.187,0,106.382-469.379,4.614-1177.467,237.234-1917.363,45.867-1.914.527-4.61-55.614,0-159.919C-216.611,1394.765,1093.49,1245.082,1090.032,1247.311Z" transform="translate(840.32 268.18)" fill="#fff"/></g></g></svg>