<svg xmlns="http://www.w3.org/2000/svg" xmlns:xlink="http://www.w3.org/1999/xlink" width="175.132" height="133.283" viewBox="0 0 175.132 133.283"><defs><filter id="a" x="47.94" y="51.248" width="53.446" height="53.446" filterUnits="userSpaceOnUse"><feOffset dx="-5" dy="5" input="SourceAlpha"/><feGaussianBlur stdDeviation="5" result="b"/><feFlood flood-opacity="0.161"/><feComposite operator="in" in2="b"/><feComposite in="SourceGraphic"/></filter><filter id="c" x="0" y="26.911" width="53.446" height="53.446" filterUnits="userSpaceOnUse"><feOffset dx="-5" dy="5" input="SourceAlpha"/><feGaussianBlur stdDeviation="5" result="d"/><feFlood flood-opacity="0.161"/><feComposite operator="in" in2="d"/><feComposite in="SourceGraphic"/></filter><filter id="e" x="24.6" y="0" width="53.446" height="53.446" filterUnits="userSpaceOnUse"><feOffset dx="-5" dy="5" input="SourceAlpha"/><feGaussianBlur stdDeviation="5" result="f"/><feFlood flood-opacity="0.161"/><feComposite operator="in" in2="f"/><feComposite in="SourceGraphic"/></filter><linearGradient id="g" x1="-20.453" y1="1" x2="-20.453" gradientUnits="objectBoundingBox"><stop offset="0" stop-color="gray" stop-opacity="0.251"/><stop offset="0.535" stop-color="gray" stop-opacity="0.122"/><stop offset="1" stop-color="gray" stop-opacity="0.102"/></linearGradient></defs><g transform="translate(9.632 -16.564)"><path d="M93.436,217.4c0,.244,0,.487-.007.769-.412,23.983-21.167,43.338-46.711,43.338C21.355,261.511.713,242.43.017,218.6.006,218.232,0,217.819,0,217.4,41.016,217.306,59.262,217.546,93.436,217.4Z" transform="translate(0 -111.664)" fill="#3f3d56"/><g transform="matrix(1, 0, 0, 1, -9.63, 16.56)" filter="url(#a)"><ellipse cx="11.723" cy="11.723" rx="11.723" ry="11.723" transform="translate(67.94 61.25)" fill="#57d16e" opacity="0.74"/></g><line y1="21.265" x2="0.096" transform="translate(69.864 89.811)" fill="#3f3d56" stroke="#3f3d56" stroke-miterlimit="10" stroke-width="2"/><ellipse cx="3.007" cy="3.007" rx="3.007" ry="3.007" transform="translate(66.966 86.38)" fill="#3f3d56"/><path d="M492.532,480.56s-.388-9.241-9.2-8.207" transform="translate(-422.512 -377.789)" fill="#3f3d56"/><g transform="matrix(1, 0, 0, 1, -9.63, 16.56)" filter="url(#c)"><ellipse cx="11.723" cy="11.723" rx="11.723" ry="11.723" transform="translate(20 36.91)" fill="#57d16e" opacity="0.74"/></g><line y1="43.291" x2="0.675" transform="translate(21.427 66.037)" fill="#3f3d56" stroke="#3f3d56" stroke-miterlimit="10" stroke-width="2"/><ellipse cx="3.007" cy="3.007" rx="3.007" ry="3.007" transform="translate(19.094 62.203)" fill="#3f3d56"/><path d="M236.026,353.127s-.286-9.245-9.108-8.309" transform="translate(-214.115 -275.433)" fill="#3f3d56"/><path d="M234.256,467s2.21-17.736-8.945-18.769" transform="translate(-212.816 -358.26)" fill="none" stroke="#3f3d56" stroke-miterlimit="10" stroke-width="2"/><ellipse cx="3.007" cy="3.007" rx="3.007" ry="3.007" transform="translate(9.488 86.597)" fill="#3f3d56"/><g transform="matrix(1, 0, 0, 1, -9.63, 16.56)" filter="url(#e)"><ellipse cx="11.723" cy="11.723" rx="11.723" ry="11.723" transform="translate(44.6 10)" fill="#57d16e" opacity="0.74"/></g><line y1="70.929" transform="translate(46.554 39.633)" fill="#3f3d56" stroke="#3f3d56" stroke-miterlimit="10" stroke-width="2"/><ellipse cx="3.007" cy="3.007" rx="3.007" ry="3.007" transform="translate(43.579 35.434)" fill="#3f3d56"/><ellipse cx="3.007" cy="3.007" rx="3.007" ry="3.007" transform="translate(35.064 88.264)" fill="#3f3d56"/><path d="M368.041,234.187s-.43-9.24-9.236-8.166" transform="translate(-321.338 -180.065)" fill="#3f3d56"/><path d="M368.041,370.9s-.43-9.24-9.236-8.166" transform="translate(-321.338 -289.798)" fill="#3f3d56"/><path d="M368.041,475.5s1.933-17.959-9.236-18.819" transform="translate(-321.339 -365.038)" fill="none" stroke="#3f3d56" stroke-miterlimit="10" stroke-width="2"/><ellipse cx="3.007" cy="3.007" rx="3.007" ry="3.007" transform="translate(52.805 59.225)" fill="#3f3d56"/><path d="M407.436,327.313s-1.933-17,9.236-17.861" transform="translate(-360.746 -246.956)" fill="none" stroke="#3f3d56" stroke-miterlimit="10" stroke-width="2"/><path d="M520.086,238.43a4.215,4.215,0,1,1,4.215-4.215A4.215,4.215,0,0,1,520.086,238.43Zm0-8.047a3.832,3.832,0,1,0,3.832,3.832A3.832,3.832,0,0,0,520.086,230.383Z" transform="translate(-438.428 -212.794)" fill="none" stroke="#3f3d56" stroke-width="1"/><path d="M677.086,458.43a4.215,4.215,0,1,1,4.215-4.215A4.215,4.215,0,0,1,677.086,458.43Zm0-8.047a3.832,3.832,0,1,0,3.832,3.832A3.832,3.832,0,0,0,677.086,450.383Z" transform="translate(-580.49 -374.291)" fill="none" stroke="#3f3d56" stroke-width="1"/><circle cx="2" cy="2" r="2" transform="translate(94.5 50.676)" fill="#3f3d56"/><path d="M247.693,582.392c20.24,0,38.014-15.845,38.014-35.392h-76.1C209.608,566.546,227.453,582.392,247.693,582.392Z" transform="translate(-201.123 -440.747)" fill="#82dd93"/><path d="M747.919,417.823a37.169,37.169,0,0,0,16.39-49.945l-66.335,33.554A37.169,37.169,0,0,0,747.919,417.823Z" transform="translate(-602.819 -297.868)" fill="#3f3d56"/><path d="M960.7,266.377c.123-.084.243-.173.359-.267a5.5,5.5,0,0,1-1.144,1.954h0c-.12.132-.248.256-.379.375,0-.03-.006-.061-.007-.091-.015-.293.006-.6.01-.9A3.857,3.857,0,0,0,960.7,266.377Z" transform="translate(-821.559 -213.706)" stroke="#707070" stroke-width="1" fill="url(#g)"/><path d="M932,190.163a3.381,3.381,0,1,0-6.233-1.112,5.43,5.43,0,0,0-3.088,5.165,5.436,5.436,0,1,0,9.991,2.967c0-.087,0-.173-.007-.258A5.435,5.435,0,0,0,932,190.163Z" transform="translate(-791.06 -148.499)" fill="#2f2e41"/><g transform="translate(130.734 39.554)" opacity="0.1"><path d="M942.28,200.582l.045-.023c-.011-.059-.018-.118-.026-.177,0,.012,0,.025-.005.037C942.287,200.473,942.284,200.528,942.28,200.582Z" transform="translate(-938.355 -200.378)" stroke="#707070" stroke-width="1"/><path d="M933.5,229.4a5.414,5.414,0,0,1-.842,2.316c0,.086.006.172.006.258a5.436,5.436,0,0,1-10.854.438c-.012.146-.019.294-.019.443a5.436,5.436,0,0,0,10.873,0c0-.087,0-.173-.007-.258a5.419,5.419,0,0,0,.862-3.413C933.515,229.261,933.509,229.333,933.5,229.4Z" transform="translate(-921.792 -223.666)" stroke="#707070" stroke-width="1"/><path d="M975.5,200.362a3.37,3.37,0,0,1-.446,1.293c.095.1.185.2.272.3A3.383,3.383,0,0,0,975.5,200.362Z" transform="translate(-964.845 -200.362)" stroke="#707070" stroke-width="1"/></g><path d="M859.263,492.682a2.481,2.481,0,0,0,.247.889.984.984,0,0,0,.721.528,1.454,1.454,0,0,0,.8-.231,2.718,2.718,0,0,0,1.239-1.031,2.86,2.86,0,0,0,.168-1.555l-.325-4.145c-.783-.022-1.57-.021-2.352.022s-.911.225-.8.981C859.168,489.645,859.064,491.175,859.263,492.682Z" transform="translate(-739.35 -391.065)" fill="#fbbebe" stroke="#707070" stroke-width="1"/><path d="M968.635,509.613l1.863,3.01a.736.736,0,0,0,.405.381.637.637,0,0,0,.389-.068,4.862,4.862,0,0,0,1.553-1.289,2.875,2.875,0,0,0,.746-1.145,1.458,1.458,0,0,0-.372-1.372,4.5,4.5,0,0,0-.7-.5c-1.473-.993-2.137-2.881-3.591-3.9a.567.567,0,0,0-.294-.127.609.609,0,0,0-.3.1l-1.987,1.09c-.861.471-.588.526.066,1.033A10.988,10.988,0,0,1,968.635,509.613Z" transform="translate(-826.633 -405.063)" fill="#fbbebe" stroke="#707070" stroke-width="1"/><path d="M862.214,503.183a1.149,1.149,0,0,0-.836-.038.922.922,0,0,0-.436.687c-.052.277-.046.564-.122.835a2.823,2.823,0,0,1-.813,1.149,1.186,1.186,0,0,1-.51.355c-.269.069-.554-.057-.828-.009a.9.9,0,0,0-.653.665,2.652,2.652,0,0,0-.032.976l.211,2.31a3.509,3.509,0,0,1,.009.849,9,9,0,0,1-.537,1.441,1.273,1.273,0,0,0,.255,1.419,1.027,1.027,0,0,0,.981.086,2.279,2.279,0,0,0,.812-.617c1.255-1.368,1.815-3.222,2.791-4.8a9.337,9.337,0,0,0,.667-1.145c.134-.307.219-.632.328-.949a9.487,9.487,0,0,1,.537-1.233c.116-.228.56-.775.467-1.029C864.347,503.7,862.637,503.316,862.214,503.183Z" transform="translate(-738.303 -403.784)" fill="#2f2e41"/><path d="M991.779,523.373a2.388,2.388,0,0,1-1.32,1.131,1.191,1.191,0,0,0-.449.232.694.694,0,0,0-.078.761,2.438,2.438,0,0,0,.5.637,8.237,8.237,0,0,1,2.14,4.311,2.659,2.659,0,0,0,.355,1.176,1.772,1.772,0,0,0,2.21.238,1.429,1.429,0,0,0,.553-.448,1.8,1.8,0,0,0,.224-.682,9.4,9.4,0,0,0,.214-1.809,20.511,20.511,0,0,0-.651-3.377c-.292-1.6-.146-3.332-.893-4.781a1.066,1.066,0,0,0-.341-.429,1.2,1.2,0,0,0-.607-.136q-1.012-.041-2.026-.018c-.189,0-.411.028-.509.19a.586.586,0,0,0,.076.55C991.593,521.738,992.271,522.392,991.779,523.373Z" transform="translate(-846.079 -417.476)" fill="#2f2e41"/><path d="M843.641,382.143a1.042,1.042,0,0,0-.245,1.316c.15.248.418.479.359.762s-.423.394-.72.441a59.033,59.033,0,0,0-7.7,1.946l-2.661.8a7.929,7.929,0,0,0-2.211.918,3.979,3.979,0,0,0-1.391,1.661,8.213,8.213,0,0,0-.517,2.172,26.549,26.549,0,0,1-2.123,7.931l6.454,2.116a9.481,9.481,0,0,0,1.933.487,7.2,7.2,0,0,0,1.883-.091c-.04-1.441-.064-2.925-.1-4.366a12.262,12.262,0,0,0-.089-1.362c-.1-.691-.311-1.362-.378-2.056a1.64,1.64,0,0,1,1.116-.173,5.262,5.262,0,0,0,2.523-.684c.783-.4,1.511-.906,2.289-1.318,1.3-.686,2.773-1.147,3.763-2.23-.5,1.922-1.7,3.6-1.927,5.572-.233,1.994.579,3.946,1.373,5.79l2.539,5.892c.28.651.654,1.382,1.345,1.537a2.031,2.031,0,0,0,1.275-.252c2.337-1.094,4.206-3.152,6.7-3.81-.186-1.236-1.162-2.257-1.715-3.377a19.921,19.921,0,0,1-.929-3.016,4.007,4.007,0,0,0-1.783-2.506c-.446-.227-1.046-.425-1.088-.924a1.044,1.044,0,0,1,.1-.464,6.046,6.046,0,0,1,1.519-2.211.672.672,0,0,0,.2-.25.757.757,0,0,0,.015-.3,3.5,3.5,0,0,1,.862-2.2,8.175,8.175,0,0,0,1.3-2.016,6.158,6.158,0,0,0-.456-4.035,4.08,4.08,0,0,0-.762-1.478,3.746,3.746,0,0,0-2.4-.92C849.18,381.145,845.877,380.407,843.641,382.143Z" transform="translate(-713.97 -305.483)" fill="#2f2e41"/><g transform="translate(130.092 76.078)" opacity="0.1"><path d="M914.713,386.85a.54.54,0,0,0,.408-.368.392.392,0,0,0,.007-.11c-.041.029-.081.058-.121.089A.967.967,0,0,0,914.713,386.85Z" transform="translate(-914.713 -386.372)" stroke="#707070" stroke-width="1"/></g><path d="M933,270.711a2.118,2.118,0,0,1-.655,1.743c-.159.132-.343.233-.5.372a1.338,1.338,0,0,0,.2,2.032,2.54,2.54,0,0,0,1.758.126,10.27,10.27,0,0,0,2.307-.6,3.83,3.83,0,0,0,1.819-1.49,2.237,2.237,0,0,1-1.035-1.852c-.039-.738.163-1.576-.3-2.149a1.9,1.9,0,0,0-1.984-.358c-.345.1-.678.226-1.023.319-.175.047-.752.048-.866.177C932.513,269.264,932.985,270.339,933,270.711Z" transform="translate(-798.336 -215.511)" fill="#fbbebe"/><path d="M933,270.711a2.118,2.118,0,0,1-.655,1.743c-.159.132-.343.233-.5.372a1.338,1.338,0,0,0,.2,2.032,2.54,2.54,0,0,0,1.758.126,10.27,10.27,0,0,0,2.307-.6,3.83,3.83,0,0,0,1.819-1.49,2.237,2.237,0,0,1-1.035-1.852c-.039-.738.163-1.576-.3-2.149a1.9,1.9,0,0,0-1.984-.358c-.345.1-.678.226-1.023.319-.175.047-.752.048-.866.177C932.513,269.264,932.985,270.339,933,270.711Z" transform="translate(-798.336 -215.511)" opacity="0.1"/><ellipse cx="3.82" cy="3.82" rx="3.82" ry="3.82" transform="translate(132.813 47.371)" fill="#fbbebe"/><path d="M883.149,406.363a2.609,2.609,0,0,1-.36.848,3.974,3.974,0,0,0-.456,2.607,2.751,2.751,0,0,0,1.606,2.03,1.1,1.1,0,0,0,1.1-.069,3.676,3.676,0,0,1-.507-2.407.8.8,0,0,1,.107-.447.281.281,0,0,1,.4-.072,3.633,3.633,0,0,0,.3,1.534c.081.186.219.391.422.386.291-.008.37-.4.359-.692a7.7,7.7,0,0,0-.674-3.458,4.117,4.117,0,0,1-.567-1.164.691.691,0,0,0-.146-.407.521.521,0,0,0-.215-.1c-.329-.093-1.107-.382-1.379-.074C882.845,405.208,883.2,405.968,883.149,406.363Z" transform="translate(-758.328 -324.93)" fill="#fbbebe"/><path d="M887.48,307.258c-.438-.049-.784.352-1.024.721a13.96,13.96,0,0,0-1.9,4.508,9.741,9.741,0,0,1-.69,2.411,2.337,2.337,0,0,0-.225.491,4.862,4.862,0,0,0-.035.791,12.645,12.645,0,0,1-.417,1.371c-.056.28-.045.57-.1.851a8.521,8.521,0,0,1-.531,1.4c-.3.826-.3,1.733-.526,2.584a.893.893,0,0,1-.177.384,2.023,2.023,0,0,1-.594.315,1.287,1.287,0,0,0-.6.88,3.81,3.81,0,0,0-.02,1.093l.176,2.26c.181-.076.3-.281.45-.406a1.259,1.259,0,0,1,1.035-.114l.515.093a2.3,2.3,0,0,1,1.437.632c.268-.42.115-1.039.528-1.318.134-.091.3-.122.442-.2a.986.986,0,0,0,.449-.793,2.909,2.909,0,0,0-.129-.936,2.722,2.722,0,0,0,1.33-1.618,13.381,13.381,0,0,0,.615-2.5,63.943,63.943,0,0,0,1.2-10.151,4.873,4.873,0,0,0-.186-1.692C888.32,307.779,888.047,307.321,887.48,307.258Z" transform="translate(-757.046 -246.484)" fill="#d0cde1"/><path d="M919.147,288.187a4.81,4.81,0,0,1-2.323,1.349,14.351,14.351,0,0,1-2.69.4,1.675,1.675,0,0,1-.832-.072.576.576,0,0,1-.347-.682.726.726,0,0,0,.1-.265c0-.233-.347-.252-.569-.183a5.748,5.748,0,0,0-3.56,2.737,8.268,8.268,0,0,0-.631,2.519,20.937,20.937,0,0,0-.21,6.825,22.106,22.106,0,0,1,.7,3.585c.015.683-.1,1.364-.094,2.047a1.029,1.029,0,0,0,.181.675c.106.123.265.2.339.345.124.241-.042.573.121.79.2.267.618.075.893-.113a7.11,7.11,0,0,1,4.727-1.19c2,.215,3.992,1.282,5.934.749a2.864,2.864,0,0,1-.258-.462,13.518,13.518,0,0,1,.546-9.732,12.089,12.089,0,0,0,1.342-3.118,5.932,5.932,0,0,0,.018-1.581,6.535,6.535,0,0,0-.9-2.9A3.589,3.589,0,0,0,919.147,288.187Z" transform="translate(-779.809 -231.193)" fill="#d0cde1"/><path d="M917.516,413.317a3.478,3.478,0,0,0-.22,1.3,7.605,7.605,0,0,0,.063,1.27,2.022,2.022,0,0,0,.371,1,.913.913,0,0,0,.954.339,1,1,0,0,0,.575-.64,5.838,5.838,0,0,0,.18-.871,14.671,14.671,0,0,0,.631-2.564.723.723,0,0,0-.049-.307,1.74,1.74,0,0,0-1.374-.709C918.153,412.208,917.7,412.9,917.516,413.317Z" transform="translate(-786.753 -330.896)" fill="#fbbebe"/><path d="M929.192,305.02c-.076.76.659,1.332.95,2.038a3.436,3.436,0,0,1,.2,1.025,49.118,49.118,0,0,1-.113,7.3,10.332,10.332,0,0,1-2.707,6.907,2.9,2.9,0,0,1-1.474,1.216l-3.392,1.643a6.572,6.572,0,0,0-1.2.693,3.3,3.3,0,0,0-1,1.3c-.658-.336-1.341-.638-2-.974-.154-.079-.326-.181-.353-.352-.036-.229.2-.391.369-.555a3.32,3.32,0,0,0,.571-1.159c.546-1.309,1.919-2.147,2.414-3.476a5.3,5.3,0,0,1,.586-1.516,3.758,3.758,0,0,1,.647-.571,11.014,11.014,0,0,0,1.435-1.469,2.49,2.49,0,0,0,.469-.687,3.441,3.441,0,0,0,.112-1.2,15.293,15.293,0,0,1,.992-3.839c.346-1.2.49-2.46.944-3.624A4.267,4.267,0,0,1,929.192,305.02Z" transform="translate(-788.071 -244.662)" stroke="#707070" stroke-width="1" opacity="0.1"/><path d="M931.492,305.02c-.075.76.659,1.332.95,2.038a3.429,3.429,0,0,1,.2,1.025,49.118,49.118,0,0,1-.113,7.3,10.332,10.332,0,0,1-2.707,6.907,2.9,2.9,0,0,1-1.474,1.216l-3.392,1.643a6.562,6.562,0,0,0-1.2.693,3.3,3.3,0,0,0-1,1.3c-.658-.336-1.341-.638-2-.974-.154-.079-.326-.181-.353-.352-.036-.229.2-.391.369-.555a3.318,3.318,0,0,0,.571-1.159c.546-1.309,1.919-2.147,2.414-3.476a5.3,5.3,0,0,1,.586-1.516,3.76,3.76,0,0,1,.647-.571,11,11,0,0,0,1.435-1.469,2.489,2.489,0,0,0,.469-.687,3.444,3.444,0,0,0,.111-1.2,15.293,15.293,0,0,1,.992-3.839c.346-1.2.49-2.46.944-3.624A4.267,4.267,0,0,1,931.492,305.02Z" transform="translate(-789.931 -244.662)" fill="#d0cde1"/><path d="M945.358,229.247a5.412,5.412,0,0,0-3.392.7c.151.006.3.016.455.034a5.436,5.436,0,0,1,2.088,10.092,5.436,5.436,0,0,0,.849-10.829Z" transform="translate(-807.367 -183.992)" fill="#2f2e41"/><path d="M938.761,238.06a2.485,2.485,0,0,1,.043,1.9,2.406,2.406,0,0,0-.089-.232c-.672-1.5-2.742-2.114-4.623-1.382a3.789,3.789,0,0,0-2.233,2.128c-.479-1.445.494-3.106,2.279-3.8C936.019,235.946,938.089,236.565,938.761,238.06Z" transform="translate(-798.562 -189.81)" fill="#2f2e41"/><g transform="translate(134.6 37.17)" opacity="0.1"><path d="M947.042,234.721a3.39,3.39,0,0,0-5.075-4.105c.151.006.3.016.455.034A5.437,5.437,0,0,1,947.042,234.721Z" transform="translate(-941.967 -221.998)" stroke="#707070" stroke-width="1"/><path d="M951.643,214.015a3.39,3.39,0,0,0-5.075-4.105c.151.006.3.016.455.034A5.437,5.437,0,0,1,951.643,214.015Z" transform="translate(-945.686 -205.259)" stroke="#707070" stroke-width="1"/><path d="M960.25,190.934a2.046,2.046,0,0,0-3.063-2.478c.091,0,.182.01.274.021A3.282,3.282,0,0,1,960.25,190.934Z" transform="translate(-954.271 -188.104)" stroke="#707070" stroke-width="1"/><path d="M960.706,250.665a16.92,16.92,0,0,1-5.47,6.758,5.435,5.435,0,0,0,5.47-6.758Z" transform="translate(-952.694 -238.679)" stroke="#707070" stroke-width="1"/></g><line x1="0.703" y1="21.253" transform="translate(125.796 64.609)" fill="none" stroke="#3f3d56" stroke-miterlimit="10" stroke-width="1"/><ellipse cx="3.007" cy="3.007" rx="3.007" ry="3.007" transform="translate(122.769 61.276)" fill="#57d16e" opacity="0.74"/><path d="M854.03,356.18s-.735-9.22-9.5-7.856" transform="translate(-727.748 -280.517)" fill="#57d16e" opacity="0.74"/></g></svg>