<svg xmlns="http://www.w3.org/2000/svg" xmlns:xlink="http://www.w3.org/1999/xlink" width="2165.05" height="1228.165" viewBox="0 0 2165.05 1228.165">
  <defs>
    <style>
      .cls-1 {
        fill: #fff;
      }

      .cls-2 {
        filter: url(#Path_720);
      }
    </style>
    <filter id="Path_720" x="0" y="0" width="2165.05" height="1228.165" filterUnits="userSpaceOnUse">
      <feOffset dx="-19" dy="20" input="SourceAlpha"/>
      <feGaussianBlur stdDeviation="11.5" result="blur"/>
      <feFlood flood-opacity="0.161"/>
      <feComposite operator="in" in2="blur"/>
      <feComposite in="SourceGraphic"/>
    </filter>
  </defs>
  <g class="cls-2" transform="matrix(1, 0, 0, 1, 0, 0)">
    <path id="Path_720-2" data-name="Path 720" class="cls-1" d="M0-65.72C-5.6-254.843-119.177-388.97-312.29-407.315c-81.852.145-627.991-3.126-739.335,0C-1195.479-757.477-232.447-706.271-220.156-695.7c3.576,3.076,1106.782-75.758,1156.123-27.118,235.789,232.439-44.678,1142.444-65.59,1143.009-33.635.866-512.526-.722-656.032-.037-2.145-.189-4.239-.388-6.236-.593C85.484,407.082,20.93,328.023,1.61,217.649c-.191-2.812-.742-1.666-.842-4.546C-3.247,97.922,2.06,4.276,0-65.72Z" transform="translate(1119.77 753.21)"/>
  </g>
</svg>
