<svg xmlns="http://www.w3.org/2000/svg" xmlns:xlink="http://www.w3.org/1999/xlink" width="771" height="693.633" viewBox="0 0 771 693.633">
  <defs>
    <style>
      .cls-1, .cls-3, .cls-6 {
        fill: #3f3d56;
      }

      .cls-1, .cls-10, .cls-11, .cls-13, .cls-7, .cls-8 {
        stroke: #707070;
      }

      .cls-2 {
        fill: #57d16e;
        opacity: 0.74;
      }

      .cls-3, .cls-4 {
        stroke: #3f3d56;
      }

      .cls-15, .cls-3, .cls-4 {
        stroke-miterlimit: 10;
        stroke-width: 2px;
      }

      .cls-15, .cls-4 {
        fill: none;
      }

      .cls-5 {
        fill: #82dd93;
      }

      .cls-7 {
        fill: url(#linear-gradient);
      }

      .cls-12, .cls-8 {
        fill: #2f2e41;
      }

      .cls-13, .cls-9 {
        opacity: 0.1;
      }

      .cls-11 {
        fill: #fbbebe;
      }

      .cls-14 {
        fill: #d0cde1;
      }

      .cls-15 {
        stroke: #123523;
      }

      .cls-16 {
        filter: url(#Ellipse_6);
      }

      .cls-17 {
        filter: url(#Ellipse_3);
      }

      .cls-18 {
        filter: url(#Ellipse_1);
      }
    </style>
    <filter id="Ellipse_1" x="251.956" y="347.768" width="139.153" height="139.153" filterUnits="userSpaceOnUse">
      <feOffset dx="-5" dy="5" input="SourceAlpha"/>
      <feGaussianBlur stdDeviation="5" result="blur"/>
      <feFlood flood-opacity="0.161"/>
      <feComposite operator="in" in2="blur"/>
      <feComposite in="SourceGraphic"/>
    </filter>
    <filter id="Ellipse_3" x="28.768" y="234.465" width="139.153" height="139.153" filterUnits="userSpaceOnUse">
      <feOffset dx="-5" dy="5" input="SourceAlpha"/>
      <feGaussianBlur stdDeviation="5" result="blur-2"/>
      <feFlood flood-opacity="0.161"/>
      <feComposite operator="in" in2="blur-2"/>
      <feComposite in="SourceGraphic"/>
    </filter>
    <filter id="Ellipse_6" x="143.295" y="109.178" width="139.153" height="139.153" filterUnits="userSpaceOnUse">
      <feOffset dx="-5" dy="5" input="SourceAlpha"/>
      <feGaussianBlur stdDeviation="5" result="blur-3"/>
      <feFlood flood-opacity="0.161"/>
      <feComposite operator="in" in2="blur-3"/>
      <feComposite in="SourceGraphic"/>
    </filter>
    <linearGradient id="linear-gradient" x1="-20.453" y1="1" x2="-20.453" gradientUnits="objectBoundingBox">
      <stop offset="0" stop-color="gray" stop-opacity="0.251"/>
      <stop offset="0.535" stop-color="gray" stop-opacity="0.122"/>
      <stop offset="1" stop-color="gray" stop-opacity="0.102"/>
    </linearGradient>
  </defs>
  <g id="Hero_image_illustration" data-name="Hero image illustration" transform="translate(-1050 -226.824)">
    <path id="Path_47" data-name="Path 47" class="cls-1" d="M435,217.493c0,1.134-.01,2.266-.032,3.581C433.05,332.731,336.421,422.837,217.5,422.837,99.421,422.837,3.319,334,.078,223.05c-.05-1.7-.078-3.627-.078-5.556C190.953,217.037,275.9,218.151,435,217.493Z" transform="translate(1050.5 497.12)"/>
    <g class="cls-18" transform="matrix(1, 0, 0, 1, 1050, 226.82)">
      <circle id="Ellipse_1-2" data-name="Ellipse 1" class="cls-2" cx="54.577" cy="54.577" r="54.577" transform="translate(271.96 357.77)"/>
    </g>
    <line id="Line_1" data-name="Line 1" class="cls-3" y1="98.999" x2="0.448" transform="translate(1375.757 640.457)"/>
    <circle id="Ellipse_2" data-name="Ellipse 2" class="cls-1" cx="14" cy="14" r="14" transform="translate(1362.265 624.479)"/>
    <path id="Path_6" data-name="Path 6" class="cls-1" d="M526.161,510.857s-1.806-43.024-42.828-38.21" transform="translate(850.323 189.932)"/>
    <g class="cls-17" transform="matrix(1, 0, 0, 1, 1050, 226.82)">
      <circle id="Ellipse_3-2" data-name="Ellipse 3" class="cls-2" cx="54.577" cy="54.577" r="54.577" transform="translate(48.77 244.47)"/>
    </g>
    <line id="Line_2" data-name="Line 2" class="cls-3" y1="201.544" x2="3.141" transform="translate(1150.254 529.775)"/>
    <circle id="Ellipse_4" data-name="Ellipse 4" class="cls-1" cx="14" cy="14" r="14" transform="translate(1139.395 511.924)"/>
    <path id="Path_7" data-name="Path 7" class="cls-1" d="M269.32,383.743s-1.329-43.042-42.4-38.681" transform="translate(883.187 200.301)"/>
    <path id="Path_8" data-name="Path 8" class="cls-4" d="M266.954,535.608s10.288-82.569-41.643-87.379" transform="translate(883.36 192.96)"/>
    <circle id="Ellipse_5" data-name="Ellipse 5" class="cls-1" cx="14" cy="14" r="14" transform="translate(1094.671 625.491)"/>
    <g class="cls-16" transform="matrix(1, 0, 0, 1, 1050, 226.82)">
      <circle id="Ellipse_6-2" data-name="Ellipse 6" class="cls-2" cx="54.577" cy="54.577" r="54.577" transform="translate(163.29 119.18)"/>
    </g>
    <line id="Line_3" data-name="Line 3" class="cls-3" y1="330.218" transform="translate(1267.235 406.849)"/>
    <circle id="Ellipse_7" data-name="Ellipse 7" class="cls-1" cx="14" cy="14" r="14" transform="translate(1253.387 387.297)"/>
    <circle id="Ellipse_8" data-name="Ellipse 8" class="cls-1" cx="14" cy="14" r="14" transform="translate(1213.745 633.253)"/>
    <path id="Path_9" data-name="Path 9" class="cls-1" d="M401.8,264.354s-2-43.016-43-38.016" transform="translate(866.124 209.948)"/>
    <path id="Path_10" data-name="Path 10" class="cls-1" d="M401.8,401.066s-2-43.016-43-38.016" transform="translate(866.124 198.838)"/>
    <path id="Path_11" data-name="Path 11" class="cls-4" d="M401.8,544.292s9-83.612-43-87.612" transform="translate(866.122 192.299)"/>
    <circle id="Ellipse_9" data-name="Ellipse 9" class="cls-1" cx="14" cy="14" r="14" transform="translate(1296.337 498.057)"/>
    <path id="Path_12" data-name="Path 12" class="cls-4" d="M407.9,392.6s-9-79.151,43-83.152" transform="translate(859.966 203.835)"/>
    <path id="Path_13" data-name="Path 13" class="cls-1" d="M535.495,269.247a19.624,19.624,0,1,1,19.624-19.624,19.624,19.624,0,0,1-19.624,19.624Zm0-37.463a17.84,17.84,0,1,0,17.84,17.84A17.84,17.84,0,0,0,535.495,231.784Z" transform="translate(895.172 72.436)"/>
    <path id="Path_14" data-name="Path 14" class="cls-1" d="M196.775,177.809a26.9,26.9,0,1,1,26.9-26.9A26.9,26.9,0,0,1,196.775,177.809Zm0-51.363A24.458,24.458,0,1,0,221.234,150.9,24.458,24.458,0,0,0,196.775,126.446Z" transform="translate(970.349 103.324)"/>
    <path id="Path_15" data-name="Path 15" class="cls-1" d="M692.495,489.247a19.624,19.624,0,1,1,19.624-19.624A19.624,19.624,0,0,1,692.495,489.247Zm0-37.463a17.84,17.84,0,1,0,17.84,17.84A17.84,17.84,0,0,0,692.495,451.784Z" transform="translate(807.717 124.803)"/>
    <ellipse id="Ellipse_10" data-name="Ellipse 10" class="cls-1" cx="12" cy="11.5" rx="12" ry="11.5" transform="translate(1488 459)"/>
    <path id="Path_17" data-name="Path 17" class="cls-5" d="M386.916,711.768c94.23,0,176.978-73.769,176.978-164.768H209.608C209.608,638,292.686,711.768,386.916,711.768Z" transform="translate(880.392 170)"/>
    <path id="Path_18" data-name="Path 18" class="cls-6" d="M930.5,600.4A173.045,173.045,0,0,0,1006.8,367.878L697.974,524.093A173.046,173.046,0,0,0,930.5,600.4Z" transform="translate(795.529 180.392)"/>
    <path id="Path_19" data-name="Path 19" class="cls-7" d="M965,267.353c.575-.39,1.13-.807,1.67-1.243a25.614,25.614,0,0,1-5.326,9.1h0c-.558.615-1.155,1.191-1.767,1.747-.012-.141-.026-.282-.033-.423-.071-1.365.028-2.8.047-4.206A17.945,17.945,0,0,0,965,267.353Z" transform="translate(733.278 200.194)"/>
    <path id="Path_20" data-name="Path 20" class="cls-8" d="M969.3,208.832a15.743,15.743,0,1,0-29.02-5.175A25.277,25.277,0,0,0,925.9,227.7a25.308,25.308,0,1,0,46.513,13.812c0-.4-.012-.8-.03-1.2a25.3,25.3,0,0,0-3.084-31.481Z" transform="translate(737.353 207.467)"/>
    <g id="Group_4" data-name="Group 4" class="cls-9" transform="translate(1659.146 406.481)">
      <path id="Path_21" data-name="Path 21" class="cls-10" d="M942.28,201.316c.07-.035.138-.074.209-.108-.05-.273-.085-.55-.121-.826-.008.058-.018.115-.025.173C942.312,200.809,942.3,201.062,942.28,201.316Z" transform="translate(-924.005 -200.364)"/>
      <path id="Path_22" data-name="Path 22" class="cls-10" d="M976.3,230.193a25.2,25.2,0,0,1-3.922,10.783c.019.4.031.8.031,1.2a25.306,25.306,0,0,1-50.53,2.04c-.055.681-.089,1.369-.089,2.064a25.309,25.309,0,1,0,50.619,0c0-.4-.012-.8-.031-1.2a25.23,25.23,0,0,0,4.014-15.891C976.366,229.523,976.342,229.857,976.3,230.193Z" transform="translate(-921.792 -203.476)"/>
      <path id="Path_23" data-name="Path 23" class="cls-10" d="M977.126,200.362a15.682,15.682,0,0,1-2.077,6.019c.443.454.861.931,1.268,1.417a15.748,15.748,0,0,0,.809-7.436Z" transform="translate(-927.545 -200.362)"/>
    </g>
    <path id="Path_24" data-name="Path 24" class="cls-11" d="M860.515,513a11.55,11.55,0,0,0,1.15,4.141,4.58,4.58,0,0,0,3.355,2.457,6.772,6.772,0,0,0,3.7-1.073c2.253-1.177,4.592-2.545,5.768-4.8,1.139-2.182.975-4.786.782-7.24l-1.513-19.3c-3.645-.1-7.307-.1-10.949.1-3.608.2-4.241,1.046-3.739,4.568C860.071,498.865,859.584,505.986,860.515,513Z" transform="translate(748.252 182.415)"/>
    <path id="Path_25" data-name="Path 25" class="cls-11" d="M979,527.933l8.674,14.013a3.426,3.426,0,0,0,1.886,1.774,2.961,2.961,0,0,0,1.812-.315c2.892-1.264,5.106-3.665,7.231-6,1.441-1.584,2.931-3.255,3.472-5.328a6.789,6.789,0,0,0-1.733-6.386,21.012,21.012,0,0,0-3.27-2.337c-6.857-4.625-9.951-13.41-16.719-18.163a2.639,2.639,0,0,0-1.371-.59,2.836,2.836,0,0,0-1.409.472l-9.253,5.072c-4.007,2.192-2.737,2.449.306,4.81C973.111,518.434,975.911,523.3,979,527.933Z" transform="translate(732.6 181.138)"/>
    <path id="Path_26" data-name="Path 26" class="cls-12" d="M879.2,503.563a5.349,5.349,0,0,0-3.892-.178,4.293,4.293,0,0,0-2.028,3.2c-.242,1.288-.212,2.624-.57,3.885-.6,2.125-2.223,3.786-3.784,5.35a5.518,5.518,0,0,1-2.375,1.653c-1.251.32-2.581-.266-3.853-.043a4.194,4.194,0,0,0-3.04,3.1,12.341,12.341,0,0,0-.148,4.545l.984,10.756a16.305,16.305,0,0,1,.04,3.952c-.363,2.365-1.737,4.44-2.5,6.707s-.72,5.162,1.188,6.605a4.779,4.779,0,0,0,4.566.4,10.611,10.611,0,0,0,3.782-2.871c5.842-6.37,8.45-15,12.994-22.352a43.533,43.533,0,0,0,3.1-5.329c.624-1.429,1.02-2.944,1.525-4.419a44.091,44.091,0,0,1,2.5-5.74c.54-1.059,2.609-3.61,2.175-4.793C889.126,505.972,881.163,504.183,879.2,503.563Z" transform="translate(748.184 181.528)"/>
    <path id="Path_27" data-name="Path 27" class="cls-12" d="M998.819,535.078a11.12,11.12,0,0,1-6.145,5.267,5.547,5.547,0,0,0-2.089,1.081,3.233,3.233,0,0,0-.366,3.543,11.361,11.361,0,0,0,2.324,2.967,38.346,38.346,0,0,1,9.96,20.071c.311,1.9.514,3.921,1.651,5.475,2.222,3.036,6.951,2.837,10.292,1.107a6.656,6.656,0,0,0,2.574-2.087,8.367,8.367,0,0,0,1.041-3.175,43.771,43.771,0,0,0,.994-8.424c-.065-5.348-2.073-10.46-3.033-15.721-1.362-7.467-.679-15.51-4.157-22.257a4.966,4.966,0,0,0-1.588-2,5.574,5.574,0,0,0-2.828-.635q-4.712-.193-9.431-.083c-.881.02-1.912.131-2.368.885-.467.771-.059,1.756.351,2.558C997.95,527.464,1001.107,530.509,998.819,535.078Z" transform="translate(730.002 180.267)"/>
    <path id="Path_28" data-name="Path 28" class="cls-12" d="M906.541,386.208a4.852,4.852,0,0,0-1.138,6.126c.7,1.154,1.946,2.229,1.672,3.549-.284,1.37-1.969,1.835-3.351,2.055-12.18,1.937-24.034,5.5-35.843,9.059l-12.388,3.73c-3.572,1.075-7.206,2.18-10.292,4.275a18.523,18.523,0,0,0-6.474,7.734,38.223,38.223,0,0,0-2.409,10.113c-1.86,12.659-4.236,25.443-9.884,36.923l30.045,9.852a44.143,44.143,0,0,0,9,2.266,33.546,33.546,0,0,0,8.768-.424c-.186-6.709-.3-13.62-.486-20.328a57.1,57.1,0,0,0-.412-6.339c-.45-3.215-1.448-6.343-1.759-9.574,1.386-1.143,3.4-.859,5.2-.807,4.1.119,8.1-1.305,11.745-3.183s7.035-4.219,10.659-6.135c6.039-3.194,12.908-5.342,17.518-10.384-2.348,8.95-7.9,16.749-8.969,25.939-1.084,9.285,2.695,18.372,6.394,26.958l11.82,27.431c1.3,3.029,3.043,6.433,6.261,7.155,2,.45,4.073-.3,5.934-1.174,10.879-5.1,19.582-14.674,31.2-17.737-.866-5.752-5.411-10.507-7.985-15.724-2.171-4.4-2.88-9.353-4.326-14.041s-3.932-9.438-8.3-11.666c-2.075-1.058-4.871-1.979-5.065-4.3a4.863,4.863,0,0,1,.462-2.159,28.147,28.147,0,0,1,7.07-10.292,3.128,3.128,0,0,0,.93-1.163,3.51,3.51,0,0,0,.069-1.384c-.219-3.735,1.781-7.229,4.012-10.232s4.809-5.862,6.067-9.385c2.163-6.059.016-12.716-2.122-18.784-.864-2.452-1.773-4.98-3.548-6.88-2.784-2.979-7.119-3.837-11.172-4.282C932.331,381.559,916.953,378.124,906.541,386.208Z" transform="translate(747.654 193.02)"/>
    <g id="Group_5" data-name="Group 5" class="cls-9" transform="translate(1656.154 576.518)">
      <path id="Path_29" data-name="Path 29" class="cls-10" d="M914.713,388.6a2.515,2.515,0,0,0,1.9-1.714,1.836,1.836,0,0,0,.03-.511c-.188.137-.379.269-.564.413A4.5,4.5,0,0,0,914.713,388.6Z" transform="translate(-914.713 -386.372)"/>
    </g>
    <path id="Path_30" data-name="Path 30" class="cls-11" d="M938.594,279.092c.156,2.993-.747,6.2-3.048,8.116-.738.616-1.595,1.083-2.3,1.731a6.229,6.229,0,0,0,.911,9.462c2.389,1.458,5.427,1.064,8.184.586a47.808,47.808,0,0,0,10.742-2.8,17.827,17.827,0,0,0,8.467-6.935c-3-1.674-4.637-5.19-4.82-8.623s.76-7.338-1.417-10c-2.1-2.568-6.041-2.549-9.237-1.668-1.6.442-3.157,1.054-4.763,1.487-.814.219-3.5.225-4.034.824C936.307,272.357,938.5,277.361,938.594,279.092Z" transform="translate(738.866 200.229)"/>
    <path id="Path_31" data-name="Path 31" class="cls-13" d="M938.594,279.092c.156,2.993-.747,6.2-3.048,8.116-.738.616-1.595,1.083-2.3,1.731a6.229,6.229,0,0,0,.911,9.462c2.389,1.458,5.427,1.064,8.184.586a47.808,47.808,0,0,0,10.742-2.8,17.827,17.827,0,0,0,8.467-6.935c-3-1.674-4.637-5.19-4.82-8.623s.76-7.338-1.417-10c-2.1-2.568-6.041-2.549-9.237-1.668-1.6.442-3.157,1.054-4.763,1.487-.814.219-3.5.225-4.034.824C936.307,272.357,938.5,277.361,938.594,279.092Z" transform="translate(738.866 200.229)"/>
    <circle id="Ellipse_12" data-name="Ellipse 12" class="cls-11" cx="17.785" cy="17.785" r="17.785" transform="translate(1668.822 442.871)"/>
    <path id="Path_32" data-name="Path 32" class="cls-11" d="M886.331,412.3a12.143,12.143,0,0,1-1.674,3.949,18.5,18.5,0,0,0-2.123,12.137,12.81,12.81,0,0,0,7.476,9.45c1.665.655,3.727.828,5.1-.319-2.376-3.091-2.5-7.311-2.36-11.207a3.717,3.717,0,0,1,.5-2.08,1.307,1.307,0,0,1,1.878-.333,16.913,16.913,0,0,0,1.389,7.142c.376.866,1.019,1.822,1.963,1.8,1.354-.035,1.72-1.869,1.669-3.223-.209-5.516-.479-11.261-3.139-16.1-.973-1.771-2.271-3.433-2.641-5.42a3.216,3.216,0,0,0-.68-1.9,2.424,2.424,0,0,0-1-.466c-1.531-.433-5.155-1.78-6.419-.345C884.915,406.922,886.577,410.459,886.331,412.3Z" transform="translate(745.283 189.151)"/>
    <path id="Path_33" data-name="Path 33" class="cls-14" d="M912.564,307.273c-2.04-.229-3.65,1.637-4.767,3.359a64.978,64.978,0,0,0-8.851,20.986c-.862,3.809-1.4,7.764-3.211,11.226a10.884,10.884,0,0,0-1.045,2.284,22.537,22.537,0,0,0-.163,3.681c-.188,2.222-1.5,4.2-1.942,6.383-.263,1.3-.21,2.652-.443,3.96-.409,2.292-1.669,4.33-2.474,6.514-1.418,3.846-1.406,8.068-2.45,12.032a4.156,4.156,0,0,1-.824,1.788c-.708.777-1.839.967-2.764,1.465a5.99,5.99,0,0,0-2.777,4.1,17.743,17.743,0,0,0-.095,5.091l.818,10.52c.843-.353,1.393-1.307,2.1-1.891,1.286-1.069,3.174-.829,4.82-.531l2.4.435c2.452.444,5.118,1.011,6.691,2.943,1.25-1.954.535-4.835,2.456-6.135.625-.423,1.4-.566,2.057-.934a4.59,4.59,0,0,0,2.093-3.691,13.555,13.555,0,0,0-.6-4.357c3.079-1.3,4.989-4.417,6.193-7.535a62.292,62.292,0,0,0,2.864-11.623c2.781-15.634,5.324-31.38,5.576-47.257a22.687,22.687,0,0,0-.866-7.876C916.473,309.7,915.2,307.57,912.564,307.273Z" transform="translate(745.181 197.996)"/>
    <path id="Path_34" data-name="Path 34" class="cls-14" d="M960.347,288.187a22.4,22.4,0,0,1-10.817,6.282A66.8,66.8,0,0,1,937,296.315a7.793,7.793,0,0,1-3.874-.335,2.679,2.679,0,0,1-1.616-3.173,3.383,3.383,0,0,0,.468-1.234c-.021-1.083-1.615-1.173-2.65-.853-6.846,2.117-13.412,6.311-16.572,12.743-1.785,3.633-2.374,7.719-2.94,11.728-1.488,10.543-2.973,21.315-.978,31.774,1.064,5.577,3.11,11.013,3.238,16.689.071,3.181-.465,6.349-.44,9.531a4.79,4.79,0,0,0,.843,3.144c.493.572,1.235.933,1.579,1.605.574,1.124-.193,2.667.563,3.678.931,1.245,2.876.351,4.159-.527a33.1,33.1,0,0,1,22.007-5.54c9.321,1,18.584,5.968,27.624,3.485a13.294,13.294,0,0,1-1.2-2.152c-4.508-14.813-4.2-31.37,2.544-45.306,2.3-4.761,5.363-9.3,6.246-14.514a27.637,27.637,0,0,0,.083-7.362c-.475-4.735-1.6-9.508-4.176-13.511S965.082,288.655,960.347,288.187Z" transform="translate(738.856 199.488)"/>
    <path id="Path_35" data-name="Path 35" class="cls-11" d="M918.336,417.672a16.2,16.2,0,0,0-1.024,6.054,35.425,35.425,0,0,0,.294,5.911,9.413,9.413,0,0,0,1.728,4.643,4.249,4.249,0,0,0,4.44,1.578,4.658,4.658,0,0,0,2.679-2.978,27.229,27.229,0,0,0,.84-4.056c.78-4.037,2.9-7.826,2.936-11.937a3.358,3.358,0,0,0-.226-1.431c-.771-1.69-4.548-3.586-6.394-3.3C921.3,412.51,919.174,415.721,918.336,417.672Z" transform="translate(740.942 188.377)"/>
    <path id="Path_36" data-name="Path 36" class="cls-13" d="M969.747,305.02c-.352,3.536,3.069,6.2,4.421,9.488a15.974,15.974,0,0,1,.933,4.773c.95,11.307.212,22.679-.526,34a64.028,64.028,0,0,1-1.4,11.207c-1.909,7.737-6.605,14.444-11.208,20.95a13.484,13.484,0,0,1-6.862,5.66l-15.791,7.65a30.568,30.568,0,0,0-5.609,3.226,15.344,15.344,0,0,0-4.643,6.046c-3.063-1.565-6.245-2.971-9.308-4.536-.717-.366-1.519-.845-1.643-1.64-.166-1.068.95-1.821,1.718-2.581,1.437-1.422,1.88-3.529,2.658-5.394,2.542-6.094,8.933-10,11.239-16.183.886-2.378,1.157-5.065,2.728-7.058a17.506,17.506,0,0,1,3.013-2.659,51.263,51.263,0,0,0,6.679-6.838,11.594,11.594,0,0,0,2.185-3.2c.69-1.756.484-3.714.519-5.6.117-6.176,2.91-11.936,4.619-17.871,1.61-5.59,2.282-11.454,4.394-16.874S964.115,306.477,969.747,305.02Z" transform="translate(737.752 198.315)"/>
    <path id="Path_37" data-name="Path 37" class="cls-14" d="M972.047,305.02c-.352,3.536,3.069,6.2,4.421,9.488a15.974,15.974,0,0,1,.933,4.773c.95,11.307.212,22.679-.526,34a64.028,64.028,0,0,1-1.4,11.207c-1.909,7.737-6.605,14.444-11.208,20.95a13.485,13.485,0,0,1-6.862,5.66l-15.791,7.65a30.56,30.56,0,0,0-5.609,3.226,15.343,15.343,0,0,0-4.643,6.045c-3.064-1.566-6.245-2.971-9.308-4.537-.717-.366-1.519-.845-1.643-1.64-.166-1.068.949-1.821,1.718-2.581,1.437-1.422,1.88-3.529,2.658-5.394,2.542-6.094,8.933-10,11.239-16.183.886-2.378,1.157-5.065,2.728-7.058a17.493,17.493,0,0,1,3.013-2.659,51.252,51.252,0,0,0,6.679-6.838,11.6,11.6,0,0,0,2.185-3.2c.69-1.756.483-3.714.519-5.6.118-6.176,2.91-11.936,4.62-17.871,1.61-5.59,2.282-11.454,4.394-16.874S966.416,306.477,972.047,305.02Z" transform="translate(737.504 198.315)"/>
    <path id="Path_38" data-name="Path 38" class="cls-12" d="M957.758,229.393a25.194,25.194,0,0,0-15.791,3.269c.7.026,1.407.074,2.117.16a25.307,25.307,0,0,1,9.72,46.984,25.306,25.306,0,0,0,3.955-50.413Z" transform="translate(735.174 203.627)"/>
    <path id="Path_39" data-name="Path 39" class="cls-12" d="M964.439,244.237a11.568,11.568,0,0,1,.2,8.865,11.256,11.256,0,0,0-.415-1.079c-3.128-6.961-12.765-9.842-21.525-6.436a17.639,17.639,0,0,0-10.4,9.908c-2.23-6.729,2.3-14.46,10.611-17.693C951.674,234.4,961.311,237.276,964.439,244.237Z" transform="translate(738.771 202.726)"/>
    <g id="Group_6" data-name="Group 6" class="cls-9" transform="translate(1677.141 395.382)">
      <path id="Path_40" data-name="Path 40" class="cls-10" d="M965.593,251.865a25.337,25.337,0,0,0-16.913-21.834,25.289,25.289,0,0,0-6.713,2.721c.7.026,1.407.074,2.117.16a25.314,25.314,0,0,1,21.51,18.953Z" transform="translate(-941.967 -192.633)"/>
      <path id="Path_41" data-name="Path 41" class="cls-10" d="M970.194,231.159a25.337,25.337,0,0,0-16.913-21.834,25.287,25.287,0,0,0-6.713,2.721c.7.026,1.407.074,2.117.16a25.313,25.313,0,0,1,21.509,18.953Z" transform="translate(-942.464 -190.396)"/>
      <path id="Path_42" data-name="Path 42" class="cls-10" d="M971.445,201.281a9.525,9.525,0,0,0-14.258-11.535c.423.016.849.045,1.277.1A15.277,15.277,0,0,1,971.445,201.281Z" transform="translate(-943.611 -188.104)"/>
      <path id="Path_43" data-name="Path 43" class="cls-10" d="M980.7,250.665A25.328,25.328,0,0,1,961.094,277.4a25.465,25.465,0,0,1-5.858,4.721,25.3,25.3,0,0,0,25.464-31.46Z" transform="translate(-943.4 -194.862)"/>
    </g>
    <line id="Line_4" data-name="Line 4" class="cls-15" x1="3.273" y1="98.946" transform="translate(1636.155 518.496)"/>
    <circle id="Ellipse_13" data-name="Ellipse 13" class="cls-2" cx="14" cy="14" r="14" transform="translate(1622.061 502.981)"/>
    <path id="Path_44" data-name="Path 44" class="cls-2" d="M888.763,385.4s-3.421-42.926-44.233-36.573" transform="translate(749.654 193.814)"/>
  </g>
</svg>
