<svg xmlns="http://www.w3.org/2000/svg" xmlns:xlink="http://www.w3.org/1999/xlink" width="2494.621" height="1604.141" viewBox="0 0 2494.621 1604.141">
  <defs>
    <style>
      .cls-1 {
        fill: #6ed782;
      }

      .cls-2, .cls-5 {
        fill: none;
        stroke-width: 6px;
      }

      .cls-2 {
        stroke: #3f3d56;
      }

      .cls-2, .cls-3 {
        opacity: 0.86;
      }

      .cls-11, .cls-3, .cls-9 {
        fill: #fff;
      }

      .cls-10, .cls-12, .cls-4, .cls-6, .cls-8 {
        fill: #3f3d56;
      }

      .cls-5 {
        stroke: #fff;
      }

      .cls-5, .cls-6, .cls-7 {
        opacity: 0.9;
      }

      .cls-7 {
        fill: #6ed781;
      }

      .cls-8 {
        font-size: 58px;
      }

      .cls-10, .cls-8, .cls-9 {
        font-family: Poppins-Bold, Poppins;
        font-weight: 700;
      }

      .cls-9 {
        font-size: 63px;
      }

      .cls-10 {
        font-size: 34px;
      }

      .cls-12 {
        font-size: 10px;
        font-family: Poppins-Regular, Poppins;
      }

      .cls-13 {
        filter: url(#Path_730);
      }

      .cls-14 {
        filter: url(#Path_729);
      }

      .cls-15 {
        filter: url(#Path_723);
      }

      .cls-16 {
        filter: url(#Rectangle_17);
      }

      .cls-17 {
        filter: url(#Rectangle_16);
      }

      .cls-18 {
        filter: url(#Rectangle_15);
      }
    </style>
    <filter id="Rectangle_15" x="238.902" y="581.282" width="362.252" height="329.836" filterUnits="userSpaceOnUse">
      <feOffset dx="4" dy="11" input="SourceAlpha"/>
      <feGaussianBlur stdDeviation="8" result="blur"/>
      <feFlood flood-opacity="0.161"/>
      <feComposite operator="in" in2="blur"/>
      <feComposite in="SourceGraphic"/>
    </filter>
    <filter id="Rectangle_16" x="476.912" y="702.665" width="364.233" height="319.072" filterUnits="userSpaceOnUse">
      <feOffset dx="4" dy="11" input="SourceAlpha"/>
      <feGaussianBlur stdDeviation="8" result="blur-2"/>
      <feFlood flood-opacity="0.161"/>
      <feComposite operator="in" in2="blur-2"/>
      <feComposite in="SourceGraphic"/>
    </filter>
    <filter id="Rectangle_17" x="553.323" y="448.419" width="201.41" height="304.562" filterUnits="userSpaceOnUse">
      <feOffset dx="4" dy="11" input="SourceAlpha"/>
      <feGaussianBlur stdDeviation="8" result="blur-3"/>
      <feFlood flood-opacity="0.161"/>
      <feComposite operator="in" in2="blur-3"/>
      <feComposite in="SourceGraphic"/>
    </filter>
    <filter id="Path_723" x="812.456" y="637.134" width="20.603" height="20.603" filterUnits="userSpaceOnUse">
      <feOffset dx="1" dy="1" input="SourceAlpha"/>
      <feGaussianBlur stdDeviation="0.5" result="blur-4"/>
      <feFlood flood-opacity="0.161"/>
      <feComposite operator="in" in2="blur-4"/>
      <feComposite in="SourceGraphic"/>
    </filter>
    <filter id="Path_729" x="137.343" y="0" width="2212.67" height="629.205" filterUnits="userSpaceOnUse">
      <feOffset dx="-4" dy="20" input="SourceAlpha"/>
      <feGaussianBlur stdDeviation="9" result="blur-5"/>
      <feFlood flood-opacity="0.161"/>
      <feComposite operator="in" in2="blur-5"/>
      <feComposite in="SourceGraphic"/>
    </filter>
    <filter id="Path_730" x="0" y="788.218" width="2268.028" height="815.923" filterUnits="userSpaceOnUse">
      <feOffset dy="-20" input="SourceAlpha"/>
      <feGaussianBlur stdDeviation="10" result="blur-6"/>
      <feFlood flood-opacity="0.161"/>
      <feComposite operator="in" in2="blur-6"/>
      <feComposite in="SourceGraphic"/>
    </filter>
  </defs>
  <g id="newsletter_bg" data-name="newsletter bg" transform="translate(10.367 7)">
    <g id="Subscribe_form" data-name="Subscribe form" transform="translate(0 259.902)">
      <path id="Subscribe_form_BG" data-name="Subscribe form BG" class="cls-1" d="M-58.736,3670s357.207-165.78,594,19.226,282.5,336.216,599.068,123.8c210.575-150.255,460.634-164.227,1017.041,215.369,235.833,226.925,19.833,4.993,19.833,4.993v375.579s-292.966-334.641-598.881-108.183-496.8,111.551-659.695,47.984S661.494,4345.4,411.2,4520.208s-633.86,96-633.86,96Z" transform="translate(222.661 -3601.702)"/>
      <g id="Subscribe_form_illustration" data-name="Subscribe form illustration" transform="translate(167.661 -3522.702)">
        <g id="Group_38" data-name="Group 38" transform="translate(-97 35)">
          <ellipse id="Ellipse_32" data-name="Ellipse 32" class="cls-2" cx="27.325" cy="27.325" rx="27.325" ry="27.325" transform="translate(591.118 3923.713)"/>
          <g class="cls-18" transform="matrix(1, 0, 0, 1, -81.03, 3220.8)">
            <path id="Rectangle_15-2" data-name="Rectangle 15" class="cls-3" d="M0,0H132A148,148,0,0,1,280,148v0a0,0,0,0,1,0,0H148A148,148,0,0,1,0,0V0A0,0,0,0,1,0,0Z" transform="matrix(0.82, -0.57, 0.57, 0.82, 258.9, 754.88)"/>
          </g>
          <g class="cls-17" transform="matrix(1, 0, 0, 1, -81.03, 3220.8)">
            <path id="Rectangle_16-2" data-name="Rectangle 16" class="cls-4" d="M0,0H132A148,148,0,0,1,280,148v0a0,0,0,0,1,0,0H148A148,148,0,0,1,0,0V0A0,0,0,0,1,0,0Z" transform="translate(736.92 986.74) rotate(-149)"/>
          </g>
          <g class="cls-16" transform="matrix(1, 0, 0, 1, -81.03, 3220.8)">
            <path id="Rectangle_17-2" data-name="Rectangle 17" class="cls-3" d="M0,0H105A149,149,0,0,1,254,149v0a0,0,0,0,1,0,0H149A149,149,0,0,1,0,0V0A0,0,0,0,1,0,0Z" transform="translate(573.32 715.38) rotate(-89)"/>
          </g>
          <ellipse id="Ellipse_33" data-name="Ellipse 33" class="cls-5" cx="27.326" cy="27.326" rx="27.326" ry="27.326" transform="translate(398.399 4011.987)"/>
          <g id="Group_28" data-name="Group 28" transform="translate(333.368 3799.82)">
            <ellipse id="Ellipse_29" data-name="Ellipse 29" class="cls-6" cx="32.204" cy="32.204" rx="32.204" ry="32.204" transform="translate(73.813)"/>
          </g>
        </g>
        <ellipse id="Ellipse_36" data-name="Ellipse 36" class="cls-6" cx="8.801" cy="8.801" rx="8.801" ry="8.801" transform="translate(148.928 3811.434)"/>
        <g class="cls-15" transform="matrix(1, 0, 0, 1, -178.03, 3255.8)">
          <path id="Path_723-2" data-name="Path 723" class="cls-6" d="M8.8,0A8.8,8.8,0,1,1,0,8.8,8.8,8.8,0,0,1,8.8,0Z" transform="translate(812.96 637.63)"/>
        </g>
        <ellipse id="Ellipse_39" data-name="Ellipse 39" class="cls-6" cx="8.801" cy="8.801" rx="8.801" ry="8.801" transform="translate(479.928 4294.434)"/>
        <ellipse id="Ellipse_40" data-name="Ellipse 40" class="cls-6" cx="8.801" cy="8.801" rx="8.801" ry="8.801" transform="translate(421.928 3599.434)"/>
        <ellipse id="Ellipse_41" data-name="Ellipse 41" class="cls-6" cx="8.801" cy="8.801" rx="8.801" ry="8.801" transform="translate(45.928 4051.434)"/>
        <ellipse id="Ellipse_42" data-name="Ellipse 42" class="cls-6" cx="8.801" cy="8.801" rx="8.801" ry="8.801" transform="translate(94.928 4471.434)"/>
        <ellipse id="Ellipse_37" data-name="Ellipse 37" class="cls-7" cx="8.801" cy="8.801" rx="8.801" ry="8.801" transform="translate(705.289 3793.525)"/>
        <ellipse id="Ellipse_43" data-name="Ellipse 43" class="cls-7" cx="8.801" cy="8.801" rx="8.801" ry="8.801" transform="translate(151.289 3617.525)"/>
        <ellipse id="Ellipse_44" data-name="Ellipse 44" class="cls-7" cx="8.801" cy="8.801" rx="8.801" ry="8.801" transform="translate(112.289 4260.525)"/>
        <ellipse id="Ellipse_45" data-name="Ellipse 45" class="cls-7" cx="8.801" cy="8.801" rx="8.801" ry="8.801" transform="translate(340.289 4367.525)"/>
        <ellipse id="Ellipse_46" data-name="Ellipse 46" class="cls-2" cx="10.325" cy="10.325" rx="10.325" ry="10.325" transform="translate(810.29 4024.687)"/>
        <ellipse id="Ellipse_47" data-name="Ellipse 47" class="cls-2" cx="10.325" cy="10.325" rx="10.325" ry="10.325" transform="translate(96.29 3602.687)"/>
        <ellipse id="Ellipse_48" data-name="Ellipse 48" class="cls-2" cx="10.325" cy="10.325" rx="10.325" ry="10.325" transform="translate(254.29 3662.687)"/>
        <ellipse id="Ellipse_49" data-name="Ellipse 49" class="cls-2" cx="10.325" cy="10.325" rx="10.325" ry="10.325" transform="translate(393.29 4061.687)"/>
        <ellipse id="Ellipse_50" data-name="Ellipse 50" class="cls-2" cx="10.325" cy="10.325" rx="10.325" ry="10.325" transform="translate(213.29 4255.687)"/>
        <ellipse id="Ellipse_51" data-name="Ellipse 51" class="cls-2" cx="10.325" cy="10.325" rx="10.325" ry="10.325" transform="translate(723.29 3887.687)"/>
      </g>
    </g>
    <g id="subscribe_form-2" data-name="subscribe form" transform="translate(152.661 -3237.8)">
      <g id="Group_33" data-name="Group 33" transform="translate(1182 3746)">
        <text id="SUBSCRIBE_TO_OUR" data-name="SUBSCRIBE TO OUR" class="cls-8" transform="translate(0 61)"><tspan x="0" y="0">SUBSCRIBE TO OUR</tspan></text>
        <text id="NEWSLETTER" class="cls-9" transform="translate(0 125)"><tspan x="0" y="0">NEWSLETTER</tspan></text>
      </g>
      <text id="Stay_updated_with_all_the_latest_News_Products_from_Essence" data-name="Stay updated with all the latest
News &amp; Products from
Essence" class="cls-10" transform="translate(1182 3929)"><tspan x="0" y="0">Stay updated with all the latest</tspan><tspan x="0" y="51">News &amp; Products from</tspan><tspan x="0" y="102">Essence</tspan></text>
    </g>
    <g class="cls-14" transform="matrix(1, 0, 0, 1, -10.37, -7)">
      <path id="Path_729-2" data-name="Path 729" class="cls-11" d="M1117.244,183.514C993.061,119.679,846.886,49.3,680.358,42.983,421.306,37.34,327.394,245.371,122.369,245c.037.009-.015,0,0,0C-32.6,239-140.834,35.958-321.285-39.793-400.7-71.712-578.214-98.552-802.82-6.221c-33.056-22.577-4.991-65.561,0-85.445,14.05-55.969,471.808-228.925,512.261-222.5,75.12,11.926,1067.324-63.875,1440.322,37.858C1513.463-177.113,1271.149,295.1,1117.244,183.514Z" transform="translate(987.03 337.2)"/>
    </g>
    <g class="cls-13" transform="matrix(1, 0, 0, 1, -10.37, -7)">
      <path id="Path_730-2" data-name="Path 730" class="cls-11" d="M160.849-10.1C182.579-2.93,268,59.994,268,134A134,134,0,0,1,134,268c-14.791,0-1868.218,477.562-2071.113,459.437-16.448-1.469,37.1-221.313,150.676-295.631,276.172,0,435.067-90.681,595.587-206.809,211.516-153.021,312.435-97.524,366.931-77.2C-593.854,233.578-345.105,225.5-96,41.407,51.759-67.787,139.119-17.267,160.849-10.1Z" transform="translate(1970.03 866.2)"/>
    </g>
    <text id="v" class="cls-12" transform="translate(1605.661 928.2)"><tspan x="0" y="0">v</tspan></text>
  </g>
</svg>
