<svg xmlns="http://www.w3.org/2000/svg" width="375.155" height="374.265" viewBox="0 0 375.155 374.265"><path d="M46.061,3622.425a212.159,212.159,0,0,1,28.089,14.082c108.985,65.063,165,99.421,288.131,23.752,20.686-12.712,39.872-22.237,58.682-28.541,0,38.567.04,308.979.04,336.952-.571-.1.012-.014,0,0-54.463-10.088-103.778-39.965-157.681-47.174-99.087-13.253-192.666,32.2-217.278,74.833-.7-.577.761,1.047,0,0C46.044,3913.077,46.061,3712.5,46.061,3622.425Z" transform="translate(-45.848 -3622.425)" fill="#6ed782"/></svg>