<svg xmlns="http://www.w3.org/2000/svg" xmlns:xlink="http://www.w3.org/1999/xlink" width="446.062" height="392.35" viewBox="0 0 446.062 392.35"><defs><filter id="a" x="239.991" y="119.379" width="137.439" height="114.104" filterUnits="userSpaceOnUse"><feOffset dx="4" dy="11" input="SourceAlpha"/><feGaussianBlur stdDeviation="8" result="b"/><feFlood flood-opacity="0.161"/><feComposite operator="in" in2="b"/><feComposite in="SourceGraphic"/></filter><filter id="c" x="317.359" y="117.04" width="128.703" height="140.782" filterUnits="userSpaceOnUse"><feOffset dx="4" dy="11" input="SourceAlpha"/><feGaussianBlur stdDeviation="8" result="d"/><feFlood flood-opacity="0.161"/><feComposite operator="in" in2="d"/><feComposite in="SourceGraphic"/></filter><filter id="e" x="271.658" y="185.711" width="114.104" height="137.439" filterUnits="userSpaceOnUse"><feOffset dx="4" dy="11" input="SourceAlpha"/><feGaussianBlur stdDeviation="8" result="f"/><feFlood flood-opacity="0.161"/><feComposite operator="in" in2="f"/><feComposite in="SourceGraphic"/></filter></defs><g transform="translate(-18.848 -3601.687)"><path d="M46.061,3622.425a212.159,212.159,0,0,1,28.089,14.082c108.985,65.063,165,99.421,288.131,23.752,20.686-12.712,39.872-22.237,58.682-28.541,0,38.567.04,308.979.04,336.952-.571-.1.012-.014,0,0-54.463-10.088-103.778-39.965-157.681-47.174-99.087-13.253-192.666,32.2-217.278,74.833-.7-.577.761,1.047,0,0C46.044,3913.077,46.061,3712.5,46.061,3622.425Z" transform="translate(-27 -7)" fill="#6ed782"/><g transform="translate(155 -56.79)"><ellipse cx="9.825" cy="9.825" rx="9.825" ry="9.825" transform="translate(217.527 3871.052)" fill="none" stroke="#3f3d56" stroke-width="3" opacity="0.86"/><g transform="matrix(1, 0, 0, 1, -136.15, 3658.48)" filter="url(#a)"><path d="M0,0H33A47,47,0,0,1,80,47v0a0,0,0,0,1,0,0H47A47,47,0,0,1,0,0V0A0,0,0,0,1,0,0Z" transform="translate(337.26 198.48) rotate(-165)" fill="#3f3d56"/></g><g transform="matrix(1, 0, 0, 1, -136.15, 3658.48)" filter="url(#c)"><path d="M0,0H33A47,47,0,0,1,80,47v0a0,0,0,0,1,0,0H47A47,47,0,0,1,0,0V0A0,0,0,0,1,0,0Z" transform="translate(337.36 199.32) rotate(-60)" fill="#6ed782"/></g><g transform="matrix(1, 0, 0, 1, -136.15, 3658.48)" filter="url(#e)"><path d="M0,0H33A47,47,0,0,1,80,47v0a0,0,0,0,1,0,0H47A47,47,0,0,1,0,0V0A0,0,0,0,1,0,0Z" transform="matrix(-0.26, -0.97, 0.97, -0.26, 312.36, 288.15)" fill="#fff"/></g><ellipse cx="9.826" cy="9.826" rx="9.826" ry="9.826" transform="translate(200.916 3799.153)" fill="none" stroke="#fff" stroke-width="3" opacity="0.9"/><ellipse cx="9.825" cy="9.5" rx="9.825" ry="9.5" transform="translate(148.456 3856.529)" fill="#3f3d56" stroke="#3f3d56" stroke-width="3"/></g><ellipse cx="8.801" cy="8.801" rx="8.801" ry="8.801" transform="translate(168.928 3808.434)" fill="#fff" opacity="0.9"/><ellipse cx="8.801" cy="8.801" rx="8.801" ry="8.801" transform="translate(315.271 3630.098) rotate(-68)" fill="#3f3d56" opacity="0.9"/><ellipse cx="8.801" cy="8.801" rx="8.801" ry="8.801" transform="translate(111.928 3976.434)" fill="#3f3d56" opacity="0.9"/><ellipse cx="10.325" cy="10.325" rx="10.325" ry="10.325" transform="translate(100.29 3603.687)" fill="none" stroke="#3f3d56" stroke-width="4" opacity="0.86"/><ellipse cx="10.325" cy="10.325" rx="10.325" ry="10.325" transform="translate(264.29 3955.687)" fill="none" stroke="#3f3d56" stroke-width="4" opacity="0.86"/></g></svg>