<svg xmlns="http://www.w3.org/2000/svg" xmlns:xlink="http://www.w3.org/1999/xlink" width="366.62" height="392.35" viewBox="0 0 366.62 392.35"><defs><filter id="a" x="160.549" y="119.379" width="137.439" height="114.104" filterUnits="userSpaceOnUse"><feOffset dx="4" dy="11" input="SourceAlpha"/><feGaussianBlur stdDeviation="8" result="b"/><feFlood flood-opacity="0.161"/><feComposite operator="in" in2="b"/><feComposite in="SourceGraphic"/></filter><filter id="c" x="237.917" y="117.04" width="128.703" height="140.782" filterUnits="userSpaceOnUse"><feOffset dx="4" dy="11" input="SourceAlpha"/><feGaussianBlur stdDeviation="8" result="d"/><feFlood flood-opacity="0.161"/><feComposite operator="in" in2="d"/><feComposite in="SourceGraphic"/></filter><filter id="e" x="192.216" y="185.711" width="114.104" height="137.439" filterUnits="userSpaceOnUse"><feOffset dx="4" dy="11" input="SourceAlpha"/><feGaussianBlur stdDeviation="8" result="f"/><feFlood flood-opacity="0.161"/><feComposite operator="in" in2="f"/><feComposite in="SourceGraphic"/></filter></defs><g transform="translate(2 2)"><g transform="translate(-100.29 -3603.687)"><g transform="translate(155 -56.79)"><ellipse cx="9.825" cy="9.825" rx="9.825" ry="9.825" transform="translate(217.527 3871.052)" fill="none" stroke="#3f3d56" stroke-width="3" opacity="0.86"/><g transform="matrix(1, 0, 0, 1, -56.71, 3658.48)" filter="url(#a)"><path d="M0,0H33A47,47,0,0,1,80,47v0a0,0,0,0,1,0,0H47A47,47,0,0,1,0,0V0A0,0,0,0,1,0,0Z" transform="translate(257.82 198.48) rotate(-165)" fill="#3f3d56"/></g><g transform="matrix(1, 0, 0, 1, -56.71, 3658.48)" filter="url(#c)"><path d="M0,0H33A47,47,0,0,1,80,47v0a0,0,0,0,1,0,0H47A47,47,0,0,1,0,0V0A0,0,0,0,1,0,0Z" transform="translate(257.92 199.32) rotate(-60)" fill="#6ed782"/></g><g transform="matrix(1, 0, 0, 1, -56.71, 3658.48)" filter="url(#e)"><path d="M0,0H33A47,47,0,0,1,80,47v0a0,0,0,0,1,0,0H47A47,47,0,0,1,0,0V0A0,0,0,0,1,0,0Z" transform="matrix(-0.26, -0.97, 0.97, -0.26, 232.92, 288.15)" fill="#fff"/></g><ellipse cx="9.826" cy="9.826" rx="9.826" ry="9.826" transform="translate(200.916 3799.153)" fill="none" stroke="#fff" stroke-width="3" opacity="0.9"/><ellipse cx="9.825" cy="9.5" rx="9.825" ry="9.5" transform="translate(148.456 3856.529)" fill="#3f3d56" stroke="#3f3d56" stroke-width="3"/></g><ellipse cx="8.801" cy="8.801" rx="8.801" ry="8.801" transform="translate(168.928 3808.434)" fill="#fff" opacity="0.9"/><ellipse cx="8.801" cy="8.801" rx="8.801" ry="8.801" transform="translate(315.271 3630.098) rotate(-68)" fill="#3f3d56" opacity="0.9"/><ellipse cx="8.801" cy="8.801" rx="8.801" ry="8.801" transform="translate(111.928 3976.434)" fill="#3f3d56" opacity="0.9"/><ellipse cx="10.325" cy="10.325" rx="10.325" ry="10.325" transform="translate(100.29 3603.687)" fill="none" stroke="#3f3d56" stroke-width="4" opacity="0.86"/><ellipse cx="10.325" cy="10.325" rx="10.325" ry="10.325" transform="translate(264.29 3955.687)" fill="none" stroke="#3f3d56" stroke-width="4" opacity="0.86"/></g></g></svg>