<svg xmlns="http://www.w3.org/2000/svg" xmlns:xlink="http://www.w3.org/1999/xlink" width="592.952" height="518.56" viewBox="0 0 592.952 518.56">
  <defs>
    <linearGradient id="linear-gradient" x1="0.5" y1="1" x2="0.5" gradientUnits="objectBoundingBox">
      <stop offset="0" stop-color="gray" stop-opacity="0.251"/>
      <stop offset="0.54" stop-color="gray" stop-opacity="0.122"/>
      <stop offset="1" stop-color="gray" stop-opacity="0.102"/>
    </linearGradient>
    <linearGradient id="linear-gradient-2" x1="0.5" y1="1" x2="0.5" y2="0" xlink:href="#linear-gradient"/>
    <linearGradient id="linear-gradient-5" x1="0.5" y1="1" x2="0.5" y2="0" xlink:href="#linear-gradient"/>
  </defs>
  <g id="about_art" data-name="about art" transform="translate(-211.85 -134)">
    <g id="Group_61" data-name="Group 61" transform="translate(85 -107)">
      <g id="Group_49" data-name="Group 49" transform="translate(274.85 261.21)" opacity="0.5">
        <circle id="Ellipse_68" data-name="Ellipse 68" cx="68.376" cy="68.376" r="68.376" fill="url(#linear-gradient)"/>
      </g>
      <circle id="Ellipse_69" data-name="Ellipse 69" cx="66.944" cy="66.944" r="66.944" transform="translate(276.282 262.27)" fill="#f5f5f5"/>
      <path id="Path_102" data-name="Path 102" d="M498.828,513.731a66.63,66.63,0,0,0,36.787-11.012c-2.463-13.475-11.857-14.32-11.857-14.32H472.008s-8.864.73-11.628,13.131a66.63,66.63,0,0,0,38.448,12.2Z" transform="translate(-155.416 -117.373)" fill="#3f3d56"/>
      <circle id="Ellipse_70" data-name="Ellipse 70" cx="29.67" cy="29.67" r="29.67" transform="translate(313.04 298.069)" fill="#333"/>
      <path id="Path_103" data-name="Path 103" d="M315,326.46h20.706v16.525a10.353,10.353,0,0,1-10.353,10.353h0A10.353,10.353,0,0,1,315,342.985Z" transform="translate(17.343 28.186)" opacity="0.1"/>
      <path id="Path_104" data-name="Path 104" d="M316.939,325.93H333.65a1.976,1.976,0,0,1,1.976,1.976V342.5a10.353,10.353,0,0,1-10.353,10.353h0A10.353,10.353,0,0,1,314.92,342.5V327.906a1.976,1.976,0,0,1,1.976-1.976Z" transform="translate(17.309 27.957)" fill="#be7c5e"/>
      <path id="Path_105" data-name="Path 105" d="M479.48,483.189a29.8,29.8,0,0,0,20.706,0V480.64H479.48Z" transform="translate(-147.165 -120.725)" opacity="0.1"/>
      <circle id="Ellipse_71" data-name="Ellipse 71" cx="29.67" cy="29.67" r="29.67" transform="translate(313.04 304.513)" fill="#be7c5e"/>
      <path id="Path_106" data-name="Path 106" d="M482.437,465.314a5.184,5.184,0,0,1,1.933-3.365,5.484,5.484,0,0,1,3.093-.387c8.205.444,16.339-1.432,24.343-3.379,4.554-1.117,9.451-2.477,12.372-6.143s-.9-15.222-5.384-16.6c-2.964-.9-6.372.788-9.165-.544a17.771,17.771,0,0,1-3.236-2.563,19.576,19.576,0,0,0-7.761-3.164c-3.193-.788-6.659-1.561-9.694-.286-2.348.988-4.081,3.05-6.315,4.3-4.3,2.334-9.465,1.26-14.32,1.246-1.647,0-3.608.329-4.3,1.847a7.546,7.546,0,0,0,0,3.308c.143,3.523-2.778,6.3-5.227,8.835s-4.768,6.2-3.208,9.379c.587,1.217,1.675,2.119,2.277,3.322,1.06,2.076.53,4.582.9,6.888a17.313,17.313,0,0,0,1.933,4.955c1.819,3.537,10.94,22.6,15.15,17.756,2.033-2.348,2.377-9.179,3.179-12.243Q480.675,471.886,482.437,465.314Z" transform="translate(-157.711 -143.374)" fill="#333"/>
      <ellipse id="Ellipse_72" data-name="Ellipse 72" cx="2.764" cy="5.169" rx="2.764" ry="5.169" transform="translate(318.826 327.925)" fill="#be7c5e"/>
    </g>
    <g id="Group_60" data-name="Group 60" transform="translate(43 -38)">
      <circle id="Ellipse_74" data-name="Ellipse 74" cx="76.842" cy="76.842" r="76.842" transform="translate(387.222 366.29)" fill="#f5f5f5"/>
      <path id="Path_107" data-name="Path 107" d="M615.093,621.387a76.481,76.481,0,0,0,42.226-12.64c-2.827-15.467-13.61-16.437-13.61-16.437h-59.4s-10.174.838-13.347,15.073A76.481,76.481,0,0,0,615.093,621.387Z" transform="translate(-150.963 -101.148)" fill="#3f3d56"/>
      <circle id="Ellipse_75" data-name="Ellipse 75" cx="37.082" cy="37.082" r="37.082" transform="translate(426.242 404.424)" fill="#f55f44"/>
      <path id="Path_108" data-name="Path 108" d="M425.53,430.4h23.784v19.067a11.884,11.884,0,0,1-11.884,11.884h0a11.884,11.884,0,0,1-11.884-11.884V430.4Z" transform="translate(25.812 42.007)" opacity="0.1"/>
      <path id="Path_109" data-name="Path 109" d="M427.8,429.86h19.231a2.268,2.268,0,0,1,2.268,2.268v16.749a11.884,11.884,0,0,1-11.884,11.884h0a11.884,11.884,0,0,1-11.884-11.884V432.128A2.268,2.268,0,0,1,427.8,429.86Z" transform="translate(25.812 41.66)" fill="#fda57d"/>
      <path id="Path_110" data-name="Path 110" d="M590.06,587.506a34.2,34.2,0,0,0,23.768,0V584.58H590.06Z" transform="translate(-138.669 -106.124)" opacity="0.1"/>
      <circle id="Ellipse_76" data-name="Ellipse 76" cx="34.057" cy="34.057" r="34.057" transform="translate(429.267 414.845)" fill="#fda57d"/>
      <circle id="Ellipse_77" data-name="Ellipse 77" cx="13.708" cy="13.708" r="13.708" transform="translate(449.567 390.075)" fill="#f55f44"/>
      <circle id="Ellipse_78" data-name="Ellipse 78" cx="8.991" cy="8.991" r="8.991" transform="translate(454.285 381.297)" fill="#f55f44"/>
      <path id="Path_111" data-name="Path 111" d="M597.051,550.582a13.708,13.708,0,0,1-7.15-17.522l-.279.575a13.71,13.71,0,1,0,25.017,11.226l.247-.592a13.708,13.708,0,0,1-17.834,6.312Z" transform="translate(-139.727 -139.287)" fill="#f55f44"/>
      <path id="Path_112" data-name="Path 112" d="M582.56,551.1s14.349,29.143,54.85,12.213l-9.435-14.793-16.749-5.983Z" transform="translate(-143.496 -133.185)" opacity="0.1"/>
      <path id="Path_113" data-name="Path 113" d="M582.56,550.844s14.349,29.143,54.85,12.213l-9.435-14.793-16.749-5.983Z" transform="translate(-143.496 -133.352)" fill="#f55f44"/>
      <path id="Path_114" data-name="Path 114" d="M589.27,541.2a169.287,169.287,0,0,1,26.529,0S596.239,543.094,589.27,541.2Z" transform="translate(-139.177 -134.38)" fill="#333"/>
      <path id="Path_115" data-name="Path 115" d="M599.332,525.133a9,9,0,0,0-2.022.148h.526a8.991,8.991,0,0,1,1.348,17.834,8.991,8.991,0,0,0,.164-17.982Z" transform="translate(-134.002 -144.394)" fill="#f55f44"/>
      <ellipse id="Ellipse_79" data-name="Ellipse 79" cx="3.172" cy="5.934" rx="3.172" ry="5.934" transform="translate(426.079 442.936)" fill="#fda57d"/>
      <ellipse id="Ellipse_80" data-name="Ellipse 80" cx="3.172" cy="5.934" rx="3.172" ry="5.934" transform="translate(494.209 442.936)" fill="#fda57d"/>
      <path id="Path_116" data-name="Path 116" d="M416.75,398.849l6.641-3.419,1.512,5.49-4.076,2.778Z" transform="translate(20.16 19.497)" fill="#f55f44"/>
      <g id="Group_50" data-name="Group 50" transform="translate(385.43 365.14)" opacity="0.5">
        <circle id="Ellipse_73" data-name="Ellipse 73" cx="78.486" cy="78.486" r="78.486" fill="url(#linear-gradient-2)"/>
      </g>
    </g>
    <g id="Group_59" data-name="Group 59" transform="translate(296 7)">
      <g id="Group_51" data-name="Group 51" transform="translate(385.38 258.86)" opacity="0.5">
        <circle id="Ellipse_81" data-name="Ellipse 81" cx="61.711" cy="61.711" r="61.711" fill="url(#linear-gradient-2)"/>
      </g>
      <circle id="Ellipse_82" data-name="Ellipse 82" cx="60.419" cy="60.419" r="60.419" transform="translate(386.672 259.816)" fill="#f5f5f5"/>
      <path id="Path_117" data-name="Path 117" d="M581.785,457.27s-6.85,33.744-10.585,31.87c0,0,36.057,31.146,67.889,0,0,0-5.609-23.78-13.7-31.87Z" transform="translate(-158.266 -136.492)" fill="#333"/>
      <path id="Path_118" data-name="Path 118" d="M605.619,508.927a60.137,60.137,0,0,0,33.216-10c-2.225-12.16-10.7-12.922-10.7-12.922H581.374s-8,.659-10.494,11.851a60.135,60.135,0,0,0,34.739,11.076Z" transform="translate(-158.36 -128.092)" fill="#3f3d56"/>
      <circle id="Ellipse_83" data-name="Ellipse 83" cx="26.778" cy="26.778" r="26.778" transform="translate(419.848 292.126)" fill="#333"/>
      <path id="Path_119" data-name="Path 119" d="M425.49,324.12h18.688v14.953a9.344,9.344,0,0,1-9.344,9.344h0a9.344,9.344,0,0,1-9.344-9.344V324.12Z" transform="translate(11.727 19.081)" opacity="0.1"/>
      <path id="Path_120" data-name="Path 120" d="M427.274,323.58h15.121a1.783,1.783,0,0,1,1.784,1.783v13.169a9.344,9.344,0,0,1-9.344,9.344h0a9.344,9.344,0,0,1-9.344-9.344V325.415a1.783,1.783,0,0,1,1.783-1.835Z" transform="translate(11.727 18.923)" fill="#be7c5e"/>
      <path id="Path_121" data-name="Path 121" d="M590,480.6a26.894,26.894,0,0,0,18.688,0v-2.3H590Z" transform="translate(-152.77 -130.343)" opacity="0.1"/>
      <circle id="Ellipse_84" data-name="Ellipse 84" cx="26.778" cy="26.778" r="26.778" transform="translate(419.848 297.942)" fill="#be7c5e"/>
      <path id="Path_122" data-name="Path 122" d="M577.46,456.833h51.1s-4.355-20.678-23.663-19.308S577.46,456.833,577.46,456.833Z" transform="translate(-156.436 -142.284)" fill="#333"/>
      <ellipse id="Ellipse_85" data-name="Ellipse 85" cx="2.494" cy="4.665" rx="2.494" ry="4.665" transform="translate(417.909 318.917)" fill="#be7c5e"/>
      <ellipse id="Ellipse_86" data-name="Ellipse 86" cx="2.494" cy="4.665" rx="2.494" ry="4.665" transform="translate(470.225 318.917)" fill="#be7c5e"/>
      <path id="Path_123" data-name="Path 123" d="M577.46,457.4h51.1s-4.394-20.678-23.7-19.386S577.46,457.4,577.46,457.4Z" transform="translate(-156.436 -142.139)" opacity="0.1"/>
    </g>
    <g id="Group_58" data-name="Group 58" transform="translate(67 -124)">
      <g id="Group_62" data-name="Group 62" transform="translate(498 258)">
        <circle id="Ellipse_87" data-name="Ellipse 87" cx="58.101" cy="58.101" r="58.101" fill="url(#linear-gradient)"/>
        <circle id="Ellipse_88" data-name="Ellipse 88" cx="56.885" cy="56.885" r="56.885" transform="translate(1.217 1.217)" fill="#f5f5f5"/>
        <path id="Path_124" data-name="Path 124" d="M717.421,507.365a56.617,56.617,0,0,0,31.259-9.357c-2.093-11.45-10.075-12.168-10.075-12.168H694.63s-7.532.621-9.88,11.158A56.617,56.617,0,0,0,717.421,507.365Z" transform="translate(-657.677 -391.734)" fill="#3f3d56"/>
        <circle id="Ellipse_89" data-name="Ellipse 89" cx="27.451" cy="27.451" r="27.451" transform="translate(31.697 29.872)" fill="#72351c"/>
        <path id="Path_125" data-name="Path 125" d="M539.33,323.91h17.595v14.078a8.8,8.8,0,0,1-8.8,8.8h0a8.8,8.8,0,0,1-8.8-8.8V323.91Z" transform="translate(-489.04 -243.712)" opacity="0.1"/>
        <path id="Path_126" data-name="Path 126" d="M541.009,323.37h14.236a1.679,1.679,0,0,1,1.679,1.679v12.4a8.8,8.8,0,0,1-8.8,8.8h0a8.8,8.8,0,0,1-8.8-8.8v-12.4a1.679,1.679,0,0,1,1.679-1.679Z" transform="translate(-489.04 -243.829)" fill="#fda57d"/>
        <path id="Path_127" data-name="Path 127" d="M703.85,480.246a25.321,25.321,0,0,0,17.595,0V478.08H703.85Z" transform="translate(-653.536 -393.416)" opacity="0.1"/>
        <circle id="Ellipse_90" data-name="Ellipse 90" cx="25.212" cy="25.212" r="25.212" transform="translate(33.936 37.586)" fill="#fda57d"/>
        <path id="Path_128" data-name="Path 128" d="M696.35,442.4s10.623,21.574,40.6,9.041L729.97,440.49,717.6,436Z" transform="translate(-655.162 -402.539)" opacity="0.1"/>
        <path id="Path_129" data-name="Path 129" d="M696.35,442.132s10.623,21.574,40.6,9.041l-6.984-10.951L717.6,435.78Z" transform="translate(-655.162 -402.586)" fill="#72351c"/>
        <path id="Path_130" data-name="Path 130" d="M696.364,442.9a14.6,14.6,0,0,1,3.65-5.877c4.964-4.867,13.093-5.938,17.266-11.523a3.261,3.261,0,0,1-1.5,4.6c3.991,0,8.627-.377,10.89-3.65a7.471,7.471,0,0,1-1.217,7.9c3.541.158,7.3,2.567,7.544,6.084a7.045,7.045,0,0,1-3.261,5.938,18.132,18.132,0,0,1-6.583,2.434C716.331,450.335,691.971,456.528,696.364,442.9Z" transform="translate(-655.273 -404.815)" fill="#72351c"/>
        <path id="Path_131" data-name="Path 131" d="M740.813,460.29h-.669l-13.007,11.584c-12.533-5.865-21.732,0-21.732,0l-13.64-11.1-1.375.17a25.214,25.214,0,0,0,50.423-.645ZM715.565,476.3c-4.867,0-8.882-1-8.882-2.215s3.979-2.215,8.882-2.215,8.883,1,8.883,2.215-3.979,2.227-8.883,2.227Z" transform="translate(-656.454 -397.273)" fill="#72351c"/>
        <ellipse id="Ellipse_91" data-name="Ellipse 91" cx="2.348" cy="4.393" rx="2.348" ry="4.393" transform="translate(31.576 58.381)" fill="#fda57d"/>
        <ellipse id="Ellipse_92" data-name="Ellipse 92" cx="2.348" cy="4.393" rx="2.348" ry="4.393" transform="translate(82.011 58.381)" fill="#fda57d"/>
      </g>
    </g>
    <g id="Group_63" data-name="Group 63" transform="translate(-59 -77)">
      <g id="Group_53" data-name="Group 53" transform="translate(274.5 362.02)" opacity="0.5">
        <circle id="Ellipse_93" data-name="Ellipse 93" cx="73.645" cy="73.645" r="73.645" fill="url(#linear-gradient-5)"/>
      </g>
      <circle id="Ellipse_94" data-name="Ellipse 94" cx="72.103" cy="72.103" r="72.103" transform="translate(276.181 363.084)" fill="#f5f5f5"/>
      <path id="Path_132" data-name="Path 132" d="M501.435,616.483a71.763,71.763,0,0,0,39.622-11.86c-2.653-14.513-12.77-15.423-12.77-15.423H472.564s-9.547.787-12.523,14.143A71.765,71.765,0,0,0,501.435,616.483Z" transform="translate(-153.09 -108.916)" fill="#3f3d56"/>
      <circle id="Ellipse_95" data-name="Ellipse 95" cx="34.794" cy="34.794" r="34.794" transform="translate(312.796 398.881)" fill="#333"/>
      <path id="Path_133" data-name="Path 133" d="M314.61,427.27h22.3v17.844a11.151,11.151,0,0,1-11.151,11.151h0a11.151,11.151,0,0,1-11.151-11.151V427.27Z" transform="translate(21.752 35.385)" opacity="0.1"/>
      <path id="Path_134" data-name="Path 134" d="M316.748,426.73h18.045a2.128,2.128,0,0,1,2.128,2.128v15.716a11.151,11.151,0,0,1-11.151,11.151h0a11.151,11.151,0,0,1-11.151-11.151V428.858A2.128,2.128,0,0,1,316.748,426.73Z" transform="translate(21.757 35.093)" fill="#fdb797"/>
      <path id="Path_135" data-name="Path 135" d="M479.14,584.2a32.1,32.1,0,0,0,22.3,0V581.45h-22.3Z" transform="translate(-142.732 -113.119)" opacity="0.1"/>
      <circle id="Ellipse_96" data-name="Ellipse 96" cx="31.957" cy="31.957" r="31.957" transform="translate(315.633 408.644)" fill="#fdb797"/>
      <path id="Path_136" data-name="Path 136" d="M471.63,547.461s13.464,27.345,51.467,11.459l-8.853-13.881-15.685-5.629Z" transform="translate(-146.805 -135.917)" opacity="0.1"/>
      <path id="Path_137" data-name="Path 137" d="M471.63,547.191s13.464,27.345,51.467,11.459l-8.853-13.881-15.685-5.629Z" transform="translate(-146.805 -136.064)" fill="#333"/>
      <path id="Path_138" data-name="Path 138" d="M471.784,550.925a18.507,18.507,0,0,1,4.627-7.449c6.293-6.169,16.6-7.526,21.885-14.606a4.133,4.133,0,0,1-1.9,5.83c5.059,0,10.935-.478,13.8-4.627a9.469,9.469,0,0,1-1.542,10.01c4.488.2,9.254,3.254,9.562,7.711a8.929,8.929,0,0,1-4.133,7.526,22.983,22.983,0,0,1-8.344,3.085C497.155,560.348,466.216,568.23,471.784,550.925Z" transform="translate(-147.082 -141.633)" fill="#333"/>
      <ellipse id="Ellipse_97" data-name="Ellipse 97" cx="2.977" cy="5.568" rx="2.977" ry="5.568" transform="translate(312.641 435.002)" fill="#fdb797"/>
      <ellipse id="Ellipse_98" data-name="Ellipse 98" cx="2.977" cy="5.568" rx="2.977" ry="5.568" transform="translate(376.569 435.002)" fill="#fdb797"/>
    </g>
    <g id="Group_65" data-name="Group 65" transform="translate(50 31)">
      <g id="Group_64" data-name="Group 64" transform="translate(573 401.31)">
        <g id="Group_54" data-name="Group 54" transform="translate(0 0)" opacity="0.5">
          <circle id="Ellipse_99" data-name="Ellipse 99" cx="65.901" cy="65.901" r="65.901" fill="url(#linear-gradient)"/>
        </g>
        <circle id="Ellipse_100" data-name="Ellipse 100" cx="64.521" cy="64.521" r="64.521" transform="translate(1.38 1.021)" fill="#f5f5f5"/>
        <path id="Path_139" data-name="Path 139" d="M723.586,618.914A64.218,64.218,0,0,0,759.042,608.3c-2.374-12.987-11.427-13.8-11.427-13.8H697.737s-8.543.7-11.207,12.656A64.216,64.216,0,0,0,723.586,618.914Z" transform="translate(-657.506 -488.658)" fill="#3f3d56"/>
        <path id="Path_140" data-name="Path 140" d="M541.11,432.56h19.957v15.968a9.978,9.978,0,0,1-9.978,9.978h0a9.978,9.978,0,0,1-9.978-9.978V432.56Z" transform="translate(-485.753 -342.507)" opacity="0.1"/>
        <path id="Path_141" data-name="Path 141" d="M543.014,432h16.148a1.9,1.9,0,0,1,1.9,1.9v14.1a9.978,9.978,0,0,1-9.978,9.978h0a9.978,9.978,0,0,1-9.978-9.978V433.946a1.9,1.9,0,0,1,1.9-1.9Z" transform="translate(-485.753 -342.719)" fill="#fdb797"/>
        <path id="Path_142" data-name="Path 142" d="M705.63,589.2a28.72,28.72,0,0,0,19.957,0V586.74H705.63Z" transform="translate(-650.245 -491.608)" opacity="0.1"/>
        <circle id="Ellipse_101" data-name="Ellipse 101" cx="28.596" cy="28.596" r="28.596" transform="translate(36.808 41.735)" fill="#fdb797"/>
        <ellipse id="Ellipse_102" data-name="Ellipse 102" cx="2.664" cy="4.982" rx="2.664" ry="4.982" transform="translate(34.724 64.135)" fill="#fdb797"/>
        <ellipse id="Ellipse_103" data-name="Ellipse 103" cx="2.664" cy="4.982" rx="2.664" ry="4.982" transform="translate(90.592 64.135)" fill="#fdb797"/>
      </g>
      <rect id="Rectangle_138" data-name="Rectangle 138" width="12.228" height="6.114" rx="2.22" transform="translate(620.973 471.779)" fill="none" stroke="#333" stroke-miterlimit="10" stroke-width="2"/>
      <rect id="Rectangle_139" data-name="Rectangle 139" width="12.228" height="6.114" rx="2.22" transform="translate(655.835 477.893) rotate(180)" fill="none" stroke="#333" stroke-miterlimit="10" stroke-width="2"/>
      <path id="Path_143" data-name="Path 143" d="M708.77,569.558s3.878-2.112,11.041,0" transform="translate(-76.052 -97.186)" fill="none" stroke="#333" stroke-miterlimit="10" stroke-width="2"/>
      <path id="Path_144" data-name="Path 144" d="M727.21,553.75l7.011,16.3S742.805,559.243,727.21,553.75Z" transform="translate(-69.042 -102.838)" fill="#858585"/>
      <line id="Line_9" data-name="Line 9" y1="9.357" x2="10.475" transform="translate(655.835 465.486)" fill="none" stroke="#333" stroke-linecap="round" stroke-linejoin="round" stroke-width="2"/>
      <path id="Path_145" data-name="Path 145" d="M701.14,553.75l-7.011,16.3S685.545,559.243,701.14,553.75Z" transform="translate(-82.513 -102.838)" fill="#858585"/>
      <line id="Line_10" data-name="Line 10" x1="10.613" y1="9.357" transform="translate(610.36 465.486)" fill="none" stroke="#333" stroke-linecap="round" stroke-linejoin="round" stroke-width="2"/>
    </g>
    <g id="Group_66" data-name="Group 66" transform="translate(-63 18)">
      <g id="Group_55" data-name="Group 55" transform="translate(274.85 469.37)" opacity="0.5">
        <circle id="Ellipse_104" data-name="Ellipse 104" cx="76.877" cy="76.877" r="76.877" fill="url(#linear-gradient-2)"/>
      </g>
      <circle id="Ellipse_105" data-name="Ellipse 105" cx="75.267" cy="75.267" r="75.267" transform="translate(276.46 470.561)" fill="#f5f5f5"/>
      <path id="Path_146" data-name="Path 146" d="M543.61,687.43c0,27.708-18.08,58.572-40.395,58.572S462.82,715.138,462.82,687.43s18.08-41.86,40.395-41.86S543.61,659.706,543.61,687.43Z" transform="translate(-150.183 -134.823)" fill="#fdd835"/>
      <path id="Path_147" data-name="Path 147" d="M503.608,725.041a74.913,74.913,0,0,0,41.361-12.381c-2.769-15.15-13.331-16.1-13.331-16.1H473.453s-9.966.821-13.073,14.764a74.913,74.913,0,0,0,43.228,13.717Z" transform="translate(-151.672 -103.719)" fill="#3f3d56"/>
      <path id="Path_148" data-name="Path 148" d="M315,534.63h23.281v18.628a11.64,11.64,0,0,1-11.64,11.64h0A11.64,11.64,0,0,1,315,553.258V534.63Z" transform="translate(24.491 39.809)" opacity="0.1"/>
      <path id="Path_149" data-name="Path 149" d="M317.19,534.09h18.789a2.222,2.222,0,0,1,2.222,2.222v16.406a11.64,11.64,0,0,1-11.64,11.64h0a11.64,11.64,0,0,1-11.64-11.64V536.312a2.222,2.222,0,0,1,2.222-2.222Z" transform="translate(24.443 39.479)" fill="#fdb797"/>
      <path id="Path_150" data-name="Path 150" d="M479.48,691.666a33.5,33.5,0,0,0,23.281,0V688.8H479.48Z" transform="translate(-140.021 -108.453)" opacity="0.1"/>
      <circle id="Ellipse_106" data-name="Ellipse 106" cx="33.359" cy="33.359" r="33.359" transform="translate(317.789 518.056)" fill="#fdb797"/>
      <ellipse id="Ellipse_107" data-name="Ellipse 107" cx="3.107" cy="5.812" rx="3.107" ry="5.812" transform="translate(315.357 544.187)" fill="#fdb797"/>
      <ellipse id="Ellipse_108" data-name="Ellipse 108" cx="3.107" cy="5.812" rx="3.107" ry="5.812" transform="translate(380.531 544.187)" fill="#fdb797"/>
      <path id="Path_151" data-name="Path 151" d="M468.37,666.683s18.885,25.76,62.114,17c0,0,4.83-5.876-6.923-23.925S479.044,644.642,468.37,666.683Z" transform="translate(-146.798 -133.364)" opacity="0.1"/>
      <path id="Path_152" data-name="Path 152" d="M468.37,666.423s18.885,25.76,62.114,17c0,0,4.83-5.877-6.923-23.925S479.044,644.382,468.37,666.423Z" transform="translate(-146.798 -133.523)" fill="#fdd835"/>
    </g>
    <g id="Group_67" data-name="Group 67" transform="translate(40 40)">
      <g id="Group_56" data-name="Group 56" transform="translate(388.29 474.85)" opacity="0.5">
        <circle id="Ellipse_109" data-name="Ellipse 109" cx="68.855" cy="68.855" r="68.855" fill="url(#linear-gradient)"/>
      </g>
      <circle id="Ellipse_110" data-name="Ellipse 110" cx="67.413" cy="67.413" r="67.413" transform="translate(389.876 475.845)" fill="#f5f5f5"/>
      <path id="Path_153" data-name="Path 153" d="M649.568,689.842c0,22.423-16.107,33.454-37.03,33.454s-38.717-11.031-38.717-33.454,16.958-40.592,37.867-40.592S649.568,667.419,649.568,689.842Z" transform="translate(-155.205 -139.936)" fill="#333"/>
      <path id="Path_154" data-name="Path 154" d="M612.533,727.552a67.1,67.1,0,0,0,37.059-11.132c-2.48-13.569-11.94-14.42-11.94-14.42H585.539s-8.926.735-11.709,13.223a67.1,67.1,0,0,0,38.7,12.329Z" transform="translate(-155.201 -116.622)" fill="#3f3d56"/>
      <path id="Path_155" data-name="Path 155" d="M428.4,540.1h20.851v16.684a10.425,10.425,0,0,1-10.426,10.426h0A10.426,10.426,0,0,1,428.4,556.784V540.1Z" transform="translate(17.728 28.84)" opacity="0.1"/>
      <path id="Path_156" data-name="Path 156" d="M430.39,539.57h16.871a1.99,1.99,0,0,1,1.99,1.99v14.694a10.425,10.425,0,0,1-10.425,10.425h0A10.426,10.426,0,0,1,428.4,556.254V541.546A1.99,1.99,0,0,1,430.39,539.57Z" transform="translate(17.728 28.605)" fill="#fda57d"/>
      <path id="Path_157" data-name="Path 157" d="M592.93,696.847a30.009,30.009,0,0,0,20.851,0V694.28H592.93Z" transform="translate(-146.759 -120.034)" opacity="0.1"/>
      <circle id="Ellipse_111" data-name="Ellipse 111" cx="29.878" cy="29.878" r="29.878" transform="translate(426.748 518.456)" fill="#fda57d"/>
      <path id="Path_158" data-name="Path 158" d="M576.3,688.242s18.6-2.249,32.7-20.3c0,0,18.6,20.491,31.58,18.227,0,0,7.513-7.888,0-15.79s-13.339-17.852-23.3-16.54-22.178,1.874-27.4,6.575S576.3,688.242,576.3,688.242Z" transform="translate(-154.109 -137.961)" opacity="0.1"/>
      <path id="Path_159" data-name="Path 159" d="M576.3,687.982s18.6-2.25,32.7-20.3c0,0,18.6,20.491,31.58,18.227,0,0,7.513-7.888,0-15.79s-13.339-17.852-23.3-16.54-22.178,1.875-27.4,6.575S576.3,687.982,576.3,687.982Z" transform="translate(-154.109 -138.076)" fill="#333"/>
      <ellipse id="Ellipse_112" data-name="Ellipse 112" cx="2.783" cy="5.206" rx="2.783" ry="5.206" transform="translate(423.95 543.099)" fill="#fda57d"/>
      <ellipse id="Ellipse_113" data-name="Ellipse 113" cx="2.783" cy="5.206" rx="2.783" ry="5.206" transform="translate(483.72 543.099)" fill="#fda57d"/>
    </g>
  </g>
</svg>
