<svg xmlns="http://www.w3.org/2000/svg" xmlns:xlink="http://www.w3.org/1999/xlink" width="2498.334" height="1852.629" viewBox="0 0 2498.334 1852.629">
  <defs>
    <filter id="about_bg" x="0" y="697.218" width="2402.289" height="1025.931" filterUnits="userSpaceOnUse">
      <feOffset dx="-4" dy="-20" input="SourceAlpha"/>
      <feGaussianBlur stdDeviation="14.5" result="blur"/>
      <feFlood flood-opacity="0.161"/>
      <feComposite operator="in" in2="blur"/>
      <feComposite in="SourceGraphic"/>
    </filter>
    <filter id="Path_746" x="54.471" y="0" width="2257.154" height="632.205" filterUnits="userSpaceOnUse">
      <feOffset dx="-4" dy="21" input="SourceAlpha"/>
      <feGaussianBlur stdDeviation="9.5" result="blur-2"/>
      <feFlood flood-opacity="0.161"/>
      <feComposite operator="in" in2="blur-2"/>
      <feComposite in="SourceGraphic"/>
    </filter>
    <filter id="Path_747" x="87.265" y="1545.34" width="2411.069" height="307.289" filterUnits="userSpaceOnUse">
      <feOffset dx="-4" dy="17" input="SourceAlpha"/>
      <feGaussianBlur stdDeviation="12" result="blur-3"/>
      <feFlood flood-opacity="0.161"/>
      <feComposite operator="in" in2="blur-3"/>
      <feComposite in="SourceGraphic"/>
    </filter>
  </defs>
  <g id="about_bg-2" data-name="about bg" transform="translate(127.14 88.7)">
    <g transform="matrix(1, 0, 0, 1, -127.14, -88.7)" filter="url(#about_bg)">
      <path id="about_bg-3" data-name="about bg" d="M2019.489,739.1c21.73,7.168,107.151,70.092,107.151,144.1S2370.3,1560.7,2296.3,1560.7c-8.682,0-729.677,97.953-1359.082,99.445-443.263,1.051-837.727-91.959-921.524-99.445-16.448-1.469-57.066-305.372,56.512-379.69,276.172,0,435.067-90.681,595.587-206.809,211.516-153.021,312.435-97.524,366.931-77.2,230.066,85.785,478.814,77.709,727.922-106.386C1910.4,681.413,1997.759,731.934,2019.489,739.1Z" transform="translate(52.5 39.5)" fill="#fff"/>
    </g>
    <g transform="matrix(1, 0, 0, 1, -127.14, -88.7)" filter="url(#Path_746)">
      <path id="Path_746-2" data-name="Path 746" d="M1117.244,183.514C993.061,119.679,846.886,49.3,680.358,42.983,421.306,37.34,327.394,245.371,122.369,245c.037.009-.015,0,0,0C-32.6,239-211.284,19.155-325.391-33.672-443.723-97.065-622.716-166.944-847.322-74.613c-33.056-22.577,7.531-171.41,12.522-191.295,14.05-55.969,503.788-54.683,544.24-48.261,75.12,11.926,1067.324-63.875,1440.322,37.858C1513.463-177.113,1271.149,295.1,1117.244,183.514Z" transform="translate(947.14 337.7)" fill="#fff"/>
    </g>
    <g transform="matrix(1, 0, 0, 1, -127.14, -88.7)" filter="url(#Path_747)">
      <path id="Path_747-2" data-name="Path 747" d="M1387.133,1239.64c-7.532,6.819,278.364,267.347,0,159.919-421.326-179.208-1295.339,237.723-2214.465,0-1.914.527-4.61-55.614,0-159.919C-216.611,1394.765-259.592,1442.568,1387.133,1239.64Z" transform="translate(957.14 324.7)" fill="#fff"/>
    </g>
  </g>
</svg>
