<svg xmlns="http://www.w3.org/2000/svg" width="26.238" height="26.242" viewBox="0 0 26.238 26.242">
  <defs>
    <style>
      .cls-1 {
        fill: #3f3d56;
      }
    </style>
  </defs>
  <path id="Search_Icon" data-name="Search Icon" class="cls-1" d="M25.881,22.688l-5.11-5.11a1.229,1.229,0,0,0-.871-.359h-.835a10.655,10.655,0,1,0-1.845,1.845V19.9a1.229,1.229,0,0,0,.359.871l5.11,5.11a1.225,1.225,0,0,0,1.737,0l1.45-1.45a1.236,1.236,0,0,0,.005-1.742ZM10.66,17.22a6.56,6.56,0,1,1,6.56-6.56A6.556,6.556,0,0,1,10.66,17.22Z"/>
</svg>
