<svg xmlns="http://www.w3.org/2000/svg" width="38.728" height="26.033" viewBox="0 0 38.728 26.033">
  <defs>
    <style>
      .cls-1 {
        fill: #ffffff;
      }
    </style>
  </defs>
  <path id="Shopping_cart" data-name="Shopping cart" class="cls-1" d="M16.137,26.863a2.305,2.305,0,0,1-2.421,2.169,2.182,2.182,0,1,1,0-4.339A2.306,2.306,0,0,1,16.137,26.863Zm5.648-2.169a2.182,2.182,0,1,0,0,4.339,2.182,2.182,0,1,0,0-4.339Zm2.156-7.231,3.19-10.124H0L4.741,17.463ZM31.959,3,26.421,20.355H6.093l1.354,2.893H28.811L34.416,5.893h3.113L38.728,3Z" transform="translate(0 -3)"/>
</svg>
