<svg xmlns="http://www.w3.org/2000/svg" width="146.326" height="146.326" viewBox="0 0 146.326 146.326">
  <defs>
    <style>
      .cls-1 {
        fill: #3f3d56;
        stroke: #707070;
      }

      .cls-2, .cls-6 {
        fill: #e9fdec;
      }

      .cls-2 {
        font-size: 10px;
        font-family: Poppins-Regular, Poppins;
      }

      .cls-3 {
        fill: #58d06f;
      }

      .cls-3, .cls-4, .cls-5, .cls-6 {
        fill-rule: evenodd;
      }

      .cls-4 {
        fill: #57d16e;
      }

      .cls-5 {
        fill: #a6f6b5;
      }

      .cls-7, .cls-8, .cls-9 {
        fill: #fff;
        font-family: JosefinSans-Regular, Josefin Sans;
      }

      .cls-7 {
        font-size: 27px;
      }

      .cls-8 {
        font-size: 25px;
      }

      .cls-9 {
        font-size: 28px;
      }
    </style>
  </defs>
  <g id="Essence_Dark_bg" data-name="Essence Dark bg" transform="translate(0.5 0.5)">
    <path id="Path_50" data-name="Path 50" class="cls-1" d="M72.663,0A72.663,72.663,0,1,1,0,72.663,72.663,72.663,0,0,1,72.663,0Z"/>
    <g id="Group_17" data-name="Group 17" transform="translate(11.31 53.061)">
      <text id="Naturals" class="cls-2" transform="translate(77.441 38.727)"><tspan x="0" y="0">Naturals</tspan></text>
      <g id="Group_15" data-name="Group 15" transform="translate(0 0)">
        <path id="Path_1" data-name="Path 1" class="cls-3" d="M124.489-29.5H66.338v16.041h57.4a.7.7,0,0,0,.751-.643Z" transform="translate(-4.73 40.202)"/>
        <g id="Group_14" data-name="Group 14" transform="translate(3 0.107) rotate(-11)">
          <path id="Path_2" data-name="Path 2" class="cls-4" d="M16.285,0a8.493,8.493,0,0,0-3.24,8.123A21.284,21.284,0,0,0,2.919,25.256a20.984,20.984,0,0,0,1.108,7.9L4,33.29A21.453,21.453,0,0,1,16.285,0Z" transform="translate(0 0)"/>
          <path id="Path_3" data-name="Path 3" class="cls-5" d="M14.045,0c-1.075,1.392-2.206,2.5-2.323,4.85a13.134,13.134,0,0,0,.264,2.636C10.948,8.593,9.8,9.8,8.647,11.131A29.883,29.883,0,0,0,2.113,22.581c-.923,3.275-.582,8.349-.32,10.589h0A27.215,27.215,0,0,1,.4,19.1C2.314,9.794,9.5,3.038,14.045,0Z" transform="translate(2.24 0)"/>
        </g>
        <path id="Path_4" data-name="Path 4" class="cls-6" d="M21.917.327a7.241,7.241,0,0,0-5.412,5.129A18.146,18.146,0,0,0,2.545,15.1C1.451,17.188.23,19.178.008,21.393h0c-.086-3.149.538-8.165,2.3-11.53A18.133,18.133,0,0,1,21.917.327Z" transform="translate(8.236 10.679) rotate(-14)"/>
        <g id="Group_1" data-name="Group 1" transform="translate(25.048 5.566)">
          <g id="Group" transform="translate(0 0)">
            <text id="e" class="cls-7" transform="translate(0 20)"><tspan x="0" y="0">e</tspan></text>
            <text id="s" class="cls-8" transform="translate(14.63 19)"><tspan x="0" y="0">s</tspan></text>
            <text id="s-2" data-name="s" class="cls-8" transform="translate(25.765 19)"><tspan x="0" y="0">s</tspan></text>
          </g>
        </g>
        <g id="Group_2" data-name="Group 2" transform="translate(61.948 4.566)">
          <g id="Group-2" data-name="Group" transform="translate(0 0)">
            <text id="e-2" data-name="e" class="cls-7" transform="translate(0 20)"><tspan x="0" y="0">e</tspan></text>
            <text id="n" class="cls-9" transform="translate(14.63 21)"><tspan x="0" y="0">n</tspan></text>
            <text id="c" class="cls-7" transform="translate(30.281 20)"><tspan x="0" y="0">c</tspan></text>
            <text id="e-3" data-name="e" class="cls-7" transform="translate(42.931 20)"><tspan x="0" y="0">e</tspan></text>
          </g>
        </g>
      </g>
    </g>
  </g>
</svg>
